<svg width="53" height="44" viewBox="0 0 53 44" fill="none" xmlns="http://www.w3.org/2000/svg">
<path fill-rule="evenodd" clip-rule="evenodd" d="M17.1808 39.5088C22.6753 37.5112 25.5106 31.4388 23.5135 25.9459C21.5163 20.4526 15.4432 17.6194 9.94872 19.6171C4.45422 21.6147 1.6188 27.6867 3.61601 33.18C5.61307 38.6729 11.6863 41.5064 17.1808 39.5088Z" fill="#DBEEFF"/>
<path fill-rule="evenodd" clip-rule="evenodd" d="M22.9616 6.16744C19.6692 7.36445 17.9702 11.0033 19.1669 14.2947C20.3635 17.5861 24.0029 19.284 27.2952 18.087C30.5876 16.89 32.2866 13.2512 31.0899 9.9598C29.8933 6.6684 26.2539 4.97044 22.9616 6.16744Z" fill="#DBEEFF"/>
<path fill-rule="evenodd" clip-rule="evenodd" d="M41.2952 36.087C38.0028 37.2841 34.3635 35.5861 33.1669 32.2947C31.9702 29.0033 33.6692 25.3645 36.9616 24.1674C40.2539 22.9704 43.8933 24.6684 45.0899 27.9598C46.2866 31.2512 44.5876 34.89 41.2952 36.087Z" fill="#DBEEFF"/>
<path fill-rule="evenodd" clip-rule="evenodd" d="M46.2952 14.087C43.0028 15.284 39.3635 13.586 38.1668 10.2947C36.9702 7.00328 38.6692 3.36445 41.9616 2.16745C45.2539 0.970438 48.8932 2.66838 50.0899 5.95976C51.2865 9.25113 49.5875 12.89 46.2952 14.087Z" fill="#DBEEFF"/>
</svg>
