<svg width="103" height="100" viewBox="0 0 103 100" fill="none" xmlns="http://www.w3.org/2000/svg">
<path d="M103 83.334C103 92.5378 95.3137 100 85.8337 100C76.3528 100 68.6675 92.5378 68.6675 83.334C68.6675 74.1292 76.3528 66.6677 85.8337 66.6677C95.3137 66.6677 103 74.1292 103 83.334Z" fill="#DBEEFF"/>
<path d="M81.5422 43.75C81.5422 51.8046 74.8175 58.3334 66.5212 58.3334C58.2249 58.3334 51.5002 51.8046 51.5002 43.75C51.5002 35.6963 58.2249 29.1665 66.5212 29.1665C74.8175 29.1665 81.5422 35.6963 81.5422 43.75Z" fill="#DBEEFF"/>
<path d="M51.5004 74.9996C51.5004 88.8068 39.9715 100 25.7501 100C11.5297 100 0.000732422 88.8068 0.000732422 74.9996C0.000732422 61.1925 11.5297 50.0002 25.7501 50.0002C39.9715 50.0002 51.5004 61.1925 51.5004 74.9996Z" fill="#DBEEFF"/>
<path d="M42.9176 20.8338C42.9176 32.3397 33.3099 41.6675 21.4588 41.6675C9.60764 41.6675 0 32.3397 0 20.8338C0 9.3278 9.60764 0 21.4588 0C33.3099 0 42.9176 9.3278 42.9176 20.8338Z" fill="#DBEEFF"/>
<path d="M103 12.5002C103 19.4038 97.2351 24.9999 90.1244 24.9999C83.0137 24.9999 77.2498 19.4038 77.2498 12.5002C77.2498 5.5966 83.0137 0.000488281 90.1244 0.000488281C97.2351 0.000488281 103 5.5966 103 12.5002Z" fill="#DBEEFF"/>
<path d="M98.7076 54.1659C98.7076 56.4671 96.7863 58.3324 94.4161 58.3324C92.0458 58.3324 90.1245 56.4671 90.1245 54.1659C90.1245 51.8656 92.0458 50.0002 94.4161 50.0002C96.7863 50.0002 98.7076 51.8656 98.7076 54.1659Z" fill="#DBEEFF"/>
<path d="M66.5212 14.5838C66.5212 18.0361 63.6392 20.8342 60.0833 20.8342C56.5285 20.8342 53.6465 18.0361 53.6465 14.5838C53.6465 11.1325 56.5285 8.33447 60.0833 8.33447C63.6392 8.33447 66.5212 11.1325 66.5212 14.5838Z" fill="#DBEEFF"/>
</svg>
