<svg width="64" height="123" viewBox="0 0 64 123" fill="none" xmlns="http://www.w3.org/2000/svg">
<path d="M26.2307 48.3207C27.8723 52.836 32.8647 55.1652 37.3814 53.5231C41.898 51.881 44.2287 46.8893 42.5871 42.3739C40.9454 37.8586 35.953 35.5293 31.4364 37.1715C28.7265 38.1567 25.7309 36.7591 24.746 34.05C23.761 31.3409 25.1595 28.3458 27.8694 27.3605C37.8062 23.7477 48.7892 28.8719 52.4009 38.8059C56.0126 48.7398 50.8852 59.7213 40.9484 63.3341C31.0115 66.9469 20.0285 61.8227 16.4168 51.8887C15.4319 49.1796 16.8303 46.1844 19.5402 45.1992C22.2502 44.2139 25.2457 45.6115 26.2307 48.3207Z" fill="#DBEEFF"/>
<path fill-rule="evenodd" clip-rule="evenodd" d="M12.4306 56.7496C17.6832 71.1967 33.6561 78.649 48.1073 73.3949C50.8168 72.4098 53.8119 73.8072 54.7967 76.5159C55.7815 79.2247 54.3833 82.2193 51.6738 83.2044C31.8035 90.4287 9.84046 80.1816 2.61829 60.3171C1.63347 57.6084 3.03171 54.6137 5.74122 53.6286C8.45073 52.6435 11.4458 54.0409 12.4306 56.7496Z" fill="#DBEEFF"/>
<path d="M-2.55627 69.0653C6.352 90.7201 31.1338 101.051 52.7949 92.1404C55.645 90.9679 58.9058 92.3274 60.0779 95.1766C61.2501 98.0258 59.8897 101.286 57.0396 102.459C29.678 113.715 -1.62501 100.665 -12.8776 73.3112C-14.0497 70.462 -12.6894 67.2015 -9.83932 66.0291C-6.98925 64.8566 -3.72838 66.216 -2.55627 69.0653Z" fill="#DBEEFF"/>
<path fill-rule="evenodd" clip-rule="evenodd" d="M51.938 28.6094C48.926 20.3249 39.7664 16.0514 31.4795 19.0643C28.7773 20.0468 25.7904 18.6532 24.8082 15.9518C23.8261 13.2504 25.2205 10.2639 27.9227 9.28145C41.6143 4.30359 56.7474 11.364 61.7238 25.0516C62.7059 27.753 61.3114 30.7395 58.6093 31.7219C55.9071 32.7044 52.9202 31.3108 51.938 28.6094Z" fill="#DBEEFF"/>
</svg>
