<svg width="96" height="150" viewBox="0 0 96 150" fill="none" xmlns="http://www.w3.org/2000/svg">
<path d="M50.1572 58.4557C52.1543 63.9486 58.2276 66.7821 63.7221 64.7845C69.2166 62.7868 72.0519 56.7144 70.0548 51.2215C68.0578 45.7286 61.9845 42.895 56.49 44.8927C53.1934 46.0913 49.5493 44.3911 48.3511 41.0954C47.1529 37.7997 48.8541 34.1562 52.1507 32.9576C64.2389 28.5627 77.5997 34.7963 81.9934 46.881C86.387 58.9656 80.1495 72.3246 68.0613 76.7195C55.9731 81.1145 42.6123 74.8809 38.2187 62.7962C37.0205 59.5005 38.7217 55.857 42.0183 54.6584C45.315 53.4598 48.959 55.16 50.1572 58.4557Z" fill="#F6F7F9"/>
<path fill-rule="evenodd" clip-rule="evenodd" d="M33.3695 68.7095C39.7592 86.2843 59.1903 95.3501 76.7703 88.9585C80.0664 87.7601 83.7099 89.46 84.9079 92.7552C86.1059 96.0503 84.405 99.6934 81.1089 100.892C56.9367 109.68 30.2186 97.2145 21.4328 73.0493C20.2348 69.7541 21.9358 66.1111 25.2319 64.9128C28.528 63.7144 32.1715 65.4143 33.3695 68.7095Z" fill="#F6F7F9"/>
<path d="M15.1379 83.6917C25.9748 110.035 56.1219 122.603 82.4726 111.763C85.9397 110.336 89.9066 111.99 91.3325 115.456C92.7583 118.922 91.1035 122.889 87.6363 124.315C54.3509 138.008 16.2708 122.133 2.58195 88.8569C1.15608 85.3908 2.81095 81.4244 6.27807 79.9981C9.74519 78.5718 13.712 80.2255 15.1379 83.6917Z" fill="#F6F7F9"/>
<path fill-rule="evenodd" clip-rule="evenodd" d="M81.4302 34.4769C77.7661 24.3989 66.6234 19.2002 56.5424 22.8654C53.2552 24.0605 49.6216 22.3652 48.4268 19.079C47.232 15.7927 48.9284 12.1596 52.2156 10.9645C68.8714 4.90892 87.2808 13.498 93.3346 30.1489C94.5293 33.4351 92.833 37.0682 89.5458 38.2633C86.2586 39.4585 82.625 37.7632 81.4302 34.4769Z" fill="#F6F7F9"/>
</svg>
