<svg width="103" height="100" viewBox="0 0 103 100" fill="none" xmlns="http://www.w3.org/2000/svg">
<path d="M103 83.3341C103 92.538 95.3139 100.001 85.8339 100.001C76.3529 100.001 68.6675 92.538 68.6675 83.3341C68.6675 74.1293 76.3529 66.6677 85.8339 66.6677C95.3139 66.6677 103 74.1293 103 83.3341Z" fill="#F6F7F9"/>
<path d="M81.5424 43.7498C81.5424 51.8046 74.8177 58.3334 66.5213 58.3334C58.225 58.3334 51.5002 51.8046 51.5002 43.7498C51.5002 35.6961 58.225 29.1663 66.5213 29.1663C74.8177 29.1663 81.5424 35.6961 81.5424 43.7498Z" fill="#F6F7F9"/>
<path d="M51.5002 74.9996C51.5002 88.8069 39.9711 100 25.7496 100C11.5291 100 0 88.8069 0 74.9996C0 61.1923 11.5291 50 25.7496 50C39.9711 50 51.5002 61.1923 51.5002 74.9996Z" fill="#F6F7F9"/>
<path d="M42.918 20.834C42.918 32.34 33.3102 41.6679 21.459 41.6679C9.60773 41.6679 0 32.34 0 20.834C0 9.32789 9.60773 0 21.459 0C33.3102 0 42.918 9.32789 42.918 20.834Z" fill="#F6F7F9"/>
<path d="M103 12.4998C103 19.4035 97.2353 24.9996 90.1246 24.9996C83.0138 24.9996 77.2498 19.4035 77.2498 12.4998C77.2498 5.59616 83.0138 0 90.1246 0C97.2353 0 103 5.59616 103 12.4998Z" fill="#F6F7F9"/>
<path d="M98.7077 54.1657C98.7077 56.4669 96.7864 58.3323 94.4161 58.3323C92.0459 58.3323 90.1245 56.4669 90.1245 54.1657C90.1245 51.8654 92.0459 50 94.4161 50C96.7864 50 98.7077 51.8654 98.7077 54.1657Z" fill="#F6F7F9"/>
<path d="M66.5213 14.5834C66.5213 18.0357 63.6393 20.8338 60.0834 20.8338C56.5285 20.8338 53.6465 18.0357 53.6465 14.5834C53.6465 11.1321 56.5285 8.33398 60.0834 8.33398C63.6393 8.33398 66.5213 11.1321 66.5213 14.5834Z" fill="#F6F7F9"/>
</svg>
