<svg width="228" height="196" viewBox="0 0 228 196" fill="none" xmlns="http://www.w3.org/2000/svg">
<g opacity="0.8">
<path d="M4.00024 2C4.00024 3.10457 3.10481 4 2.00024 4C0.895675 4 0.000244141 3.10457 0.000244141 2C0.000244141 0.89543 0.895675 0 2.00024 0C3.10481 0 4.00024 0.89543 4.00024 2Z" fill="url(#paint0_linear)"/>
<path d="M4.00024 18C4.00024 19.1046 3.10481 20 2.00024 20C0.895675 20 0.000244141 19.1046 0.000244141 18C0.000244141 16.8954 0.895675 16 2.00024 16C3.10481 16 4.00024 16.8954 4.00024 18Z" fill="url(#paint1_linear)"/>
<path d="M4.00024 34C4.00024 35.1046 3.10481 36 2.00024 36C0.895675 36 0.000244141 35.1046 0.000244141 34C0.000244141 32.8954 0.895675 32 2.00024 32C3.10481 32 4.00024 32.8954 4.00024 34Z" fill="url(#paint2_linear)"/>
<path d="M4.00024 50C4.00024 51.1046 3.10481 52 2.00024 52C0.895675 52 0.000244141 51.1046 0.000244141 50C0.000244141 48.8954 0.895675 48 2.00024 48C3.10481 48 4.00024 48.8954 4.00024 50Z" fill="url(#paint3_linear)"/>
<path d="M4.00024 66C4.00024 67.1046 3.10481 68 2.00024 68C0.895675 68 0.000244141 67.1046 0.000244141 66C0.000244141 64.8954 0.895675 64 2.00024 64C3.10481 64 4.00024 64.8954 4.00024 66Z" fill="url(#paint4_linear)"/>
<path d="M4.00024 82C4.00024 83.1046 3.10481 84 2.00024 84C0.895675 84 0.000244141 83.1046 0.000244141 82C0.000244141 80.8954 0.895675 80 2.00024 80C3.10481 80 4.00024 80.8954 4.00024 82Z" fill="url(#paint5_linear)"/>
<path d="M4.00024 98C4.00024 99.1046 3.10481 100 2.00024 100C0.895675 100 0.000244141 99.1046 0.000244141 98C0.000244141 96.8954 0.895675 96 2.00024 96C3.10481 96 4.00024 96.8954 4.00024 98Z" fill="url(#paint6_linear)"/>
<path d="M4.00024 114C4.00024 115.105 3.10481 116 2.00024 116C0.895675 116 0.000244141 115.105 0.000244141 114C0.000244141 112.895 0.895675 112 2.00024 112C3.10481 112 4.00024 112.895 4.00024 114Z" fill="url(#paint7_linear)"/>
<path d="M4.00024 130C4.00024 131.105 3.10481 132 2.00024 132C0.895675 132 0.000244141 131.105 0.000244141 130C0.000244141 128.895 0.895675 128 2.00024 128C3.10481 128 4.00024 128.895 4.00024 130Z" fill="url(#paint8_linear)"/>
<path d="M4.00024 146C4.00024 147.105 3.10481 148 2.00024 148C0.895675 148 0.000244141 147.105 0.000244141 146C0.000244141 144.895 0.895675 144 2.00024 144C3.10481 144 4.00024 144.895 4.00024 146Z" fill="url(#paint9_linear)"/>
<path d="M4.00024 162C4.00024 163.105 3.10481 164 2.00024 164C0.895675 164 0.000244141 163.105 0.000244141 162C0.000244141 160.895 0.895675 160 2.00024 160C3.10481 160 4.00024 160.895 4.00024 162Z" fill="url(#paint10_linear)"/>
<path d="M4.00024 178C4.00024 179.105 3.10481 180 2.00024 180C0.895675 180 0.000244141 179.105 0.000244141 178C0.000244141 176.895 0.895675 176 2.00024 176C3.10481 176 4.00024 176.895 4.00024 178Z" fill="url(#paint11_linear)"/>
<path d="M4.00024 194C4.00024 195.105 3.10481 196 2.00024 196C0.895675 196 0.000244141 195.105 0.000244141 194C0.000244141 192.895 0.895675 192 2.00024 192C3.10481 192 4.00024 192.895 4.00024 194Z" fill="url(#paint12_linear)"/>
<path d="M20.0002 2C20.0002 3.10457 19.1048 4 18.0002 4C16.8957 4 16.0002 3.10457 16.0002 2C16.0002 0.89543 16.8957 0 18.0002 0C19.1048 0 20.0002 0.89543 20.0002 2Z" fill="url(#paint13_linear)"/>
<path d="M20.0002 18C20.0002 19.1046 19.1048 20 18.0002 20C16.8957 20 16.0002 19.1046 16.0002 18C16.0002 16.8954 16.8957 16 18.0002 16C19.1048 16 20.0002 16.8954 20.0002 18Z" fill="url(#paint14_linear)"/>
<path d="M20.0002 34C20.0002 35.1046 19.1048 36 18.0002 36C16.8957 36 16.0002 35.1046 16.0002 34C16.0002 32.8954 16.8957 32 18.0002 32C19.1048 32 20.0002 32.8954 20.0002 34Z" fill="url(#paint15_linear)"/>
<path d="M20.0002 50C20.0002 51.1046 19.1048 52 18.0002 52C16.8957 52 16.0002 51.1046 16.0002 50C16.0002 48.8954 16.8957 48 18.0002 48C19.1048 48 20.0002 48.8954 20.0002 50Z" fill="url(#paint16_linear)"/>
<path d="M20.0002 66C20.0002 67.1046 19.1048 68 18.0002 68C16.8957 68 16.0002 67.1046 16.0002 66C16.0002 64.8954 16.8957 64 18.0002 64C19.1048 64 20.0002 64.8954 20.0002 66Z" fill="url(#paint17_linear)"/>
<path d="M20.0002 82C20.0002 83.1046 19.1048 84 18.0002 84C16.8957 84 16.0002 83.1046 16.0002 82C16.0002 80.8954 16.8957 80 18.0002 80C19.1048 80 20.0002 80.8954 20.0002 82Z" fill="url(#paint18_linear)"/>
<path d="M20.0002 98C20.0002 99.1046 19.1048 100 18.0002 100C16.8957 100 16.0002 99.1046 16.0002 98C16.0002 96.8954 16.8957 96 18.0002 96C19.1048 96 20.0002 96.8954 20.0002 98Z" fill="url(#paint19_linear)"/>
<path d="M20.0002 114C20.0002 115.105 19.1048 116 18.0002 116C16.8957 116 16.0002 115.105 16.0002 114C16.0002 112.895 16.8957 112 18.0002 112C19.1048 112 20.0002 112.895 20.0002 114Z" fill="url(#paint20_linear)"/>
<path d="M20.0002 130C20.0002 131.105 19.1048 132 18.0002 132C16.8957 132 16.0002 131.105 16.0002 130C16.0002 128.895 16.8957 128 18.0002 128C19.1048 128 20.0002 128.895 20.0002 130Z" fill="url(#paint21_linear)"/>
<path d="M20.0002 146C20.0002 147.105 19.1048 148 18.0002 148C16.8957 148 16.0002 147.105 16.0002 146C16.0002 144.895 16.8957 144 18.0002 144C19.1048 144 20.0002 144.895 20.0002 146Z" fill="url(#paint22_linear)"/>
<path d="M20.0002 162C20.0002 163.105 19.1048 164 18.0002 164C16.8957 164 16.0002 163.105 16.0002 162C16.0002 160.895 16.8957 160 18.0002 160C19.1048 160 20.0002 160.895 20.0002 162Z" fill="url(#paint23_linear)"/>
<path d="M20.0002 178C20.0002 179.105 19.1048 180 18.0002 180C16.8957 180 16.0002 179.105 16.0002 178C16.0002 176.895 16.8957 176 18.0002 176C19.1048 176 20.0002 176.895 20.0002 178Z" fill="url(#paint24_linear)"/>
<path d="M20.0002 194C20.0002 195.105 19.1048 196 18.0002 196C16.8957 196 16.0002 195.105 16.0002 194C16.0002 192.895 16.8957 192 18.0002 192C19.1048 192 20.0002 192.895 20.0002 194Z" fill="url(#paint25_linear)"/>
<path d="M36.0002 2C36.0002 3.10457 35.1048 4 34.0002 4C32.8957 4 32.0002 3.10457 32.0002 2C32.0002 0.89543 32.8957 0 34.0002 0C35.1048 0 36.0002 0.89543 36.0002 2Z" fill="url(#paint26_linear)"/>
<path d="M36.0002 18C36.0002 19.1046 35.1048 20 34.0002 20C32.8957 20 32.0002 19.1046 32.0002 18C32.0002 16.8954 32.8957 16 34.0002 16C35.1048 16 36.0002 16.8954 36.0002 18Z" fill="url(#paint27_linear)"/>
<path d="M36.0002 34C36.0002 35.1046 35.1048 36 34.0002 36C32.8957 36 32.0002 35.1046 32.0002 34C32.0002 32.8954 32.8957 32 34.0002 32C35.1048 32 36.0002 32.8954 36.0002 34Z" fill="url(#paint28_linear)"/>
<path d="M36.0002 50C36.0002 51.1046 35.1048 52 34.0002 52C32.8957 52 32.0002 51.1046 32.0002 50C32.0002 48.8954 32.8957 48 34.0002 48C35.1048 48 36.0002 48.8954 36.0002 50Z" fill="url(#paint29_linear)"/>
<path d="M36.0002 66C36.0002 67.1046 35.1048 68 34.0002 68C32.8957 68 32.0002 67.1046 32.0002 66C32.0002 64.8954 32.8957 64 34.0002 64C35.1048 64 36.0002 64.8954 36.0002 66Z" fill="url(#paint30_linear)"/>
<path d="M36.0002 82C36.0002 83.1046 35.1048 84 34.0002 84C32.8957 84 32.0002 83.1046 32.0002 82C32.0002 80.8954 32.8957 80 34.0002 80C35.1048 80 36.0002 80.8954 36.0002 82Z" fill="url(#paint31_linear)"/>
<path d="M36.0002 98C36.0002 99.1046 35.1048 100 34.0002 100C32.8957 100 32.0002 99.1046 32.0002 98C32.0002 96.8954 32.8957 96 34.0002 96C35.1048 96 36.0002 96.8954 36.0002 98Z" fill="url(#paint32_linear)"/>
<path d="M36.0002 114C36.0002 115.105 35.1048 116 34.0002 116C32.8957 116 32.0002 115.105 32.0002 114C32.0002 112.895 32.8957 112 34.0002 112C35.1048 112 36.0002 112.895 36.0002 114Z" fill="url(#paint33_linear)"/>
<path d="M36.0002 130C36.0002 131.105 35.1048 132 34.0002 132C32.8957 132 32.0002 131.105 32.0002 130C32.0002 128.895 32.8957 128 34.0002 128C35.1048 128 36.0002 128.895 36.0002 130Z" fill="url(#paint34_linear)"/>
<path d="M36.0002 146C36.0002 147.105 35.1048 148 34.0002 148C32.8957 148 32.0002 147.105 32.0002 146C32.0002 144.895 32.8957 144 34.0002 144C35.1048 144 36.0002 144.895 36.0002 146Z" fill="url(#paint35_linear)"/>
<path d="M36.0002 162C36.0002 163.105 35.1048 164 34.0002 164C32.8957 164 32.0002 163.105 32.0002 162C32.0002 160.895 32.8957 160 34.0002 160C35.1048 160 36.0002 160.895 36.0002 162Z" fill="url(#paint36_linear)"/>
<path d="M36.0002 178C36.0002 179.105 35.1048 180 34.0002 180C32.8957 180 32.0002 179.105 32.0002 178C32.0002 176.895 32.8957 176 34.0002 176C35.1048 176 36.0002 176.895 36.0002 178Z" fill="url(#paint37_linear)"/>
<path d="M36.0002 194C36.0002 195.105 35.1048 196 34.0002 196C32.8957 196 32.0002 195.105 32.0002 194C32.0002 192.895 32.8957 192 34.0002 192C35.1048 192 36.0002 192.895 36.0002 194Z" fill="url(#paint38_linear)"/>
<path d="M52.0002 2C52.0002 3.10457 51.1048 4 50.0002 4C48.8957 4 48.0002 3.10457 48.0002 2C48.0002 0.89543 48.8957 0 50.0002 0C51.1048 0 52.0002 0.89543 52.0002 2Z" fill="url(#paint39_linear)"/>
<path d="M52.0002 18C52.0002 19.1046 51.1048 20 50.0002 20C48.8957 20 48.0002 19.1046 48.0002 18C48.0002 16.8954 48.8957 16 50.0002 16C51.1048 16 52.0002 16.8954 52.0002 18Z" fill="url(#paint40_linear)"/>
<path d="M52.0002 34C52.0002 35.1046 51.1048 36 50.0002 36C48.8957 36 48.0002 35.1046 48.0002 34C48.0002 32.8954 48.8957 32 50.0002 32C51.1048 32 52.0002 32.8954 52.0002 34Z" fill="url(#paint41_linear)"/>
<path d="M52.0002 50C52.0002 51.1046 51.1048 52 50.0002 52C48.8957 52 48.0002 51.1046 48.0002 50C48.0002 48.8954 48.8957 48 50.0002 48C51.1048 48 52.0002 48.8954 52.0002 50Z" fill="url(#paint42_linear)"/>
<path d="M52.0002 66C52.0002 67.1046 51.1048 68 50.0002 68C48.8957 68 48.0002 67.1046 48.0002 66C48.0002 64.8954 48.8957 64 50.0002 64C51.1048 64 52.0002 64.8954 52.0002 66Z" fill="url(#paint43_linear)"/>
<path d="M52.0002 82C52.0002 83.1046 51.1048 84 50.0002 84C48.8957 84 48.0002 83.1046 48.0002 82C48.0002 80.8954 48.8957 80 50.0002 80C51.1048 80 52.0002 80.8954 52.0002 82Z" fill="url(#paint44_linear)"/>
<path d="M52.0002 98C52.0002 99.1046 51.1048 100 50.0002 100C48.8957 100 48.0002 99.1046 48.0002 98C48.0002 96.8954 48.8957 96 50.0002 96C51.1048 96 52.0002 96.8954 52.0002 98Z" fill="url(#paint45_linear)"/>
<path d="M52.0002 114C52.0002 115.105 51.1048 116 50.0002 116C48.8957 116 48.0002 115.105 48.0002 114C48.0002 112.895 48.8957 112 50.0002 112C51.1048 112 52.0002 112.895 52.0002 114Z" fill="url(#paint46_linear)"/>
<path d="M52.0002 130C52.0002 131.105 51.1048 132 50.0002 132C48.8957 132 48.0002 131.105 48.0002 130C48.0002 128.895 48.8957 128 50.0002 128C51.1048 128 52.0002 128.895 52.0002 130Z" fill="url(#paint47_linear)"/>
<path d="M52.0002 146C52.0002 147.105 51.1048 148 50.0002 148C48.8957 148 48.0002 147.105 48.0002 146C48.0002 144.895 48.8957 144 50.0002 144C51.1048 144 52.0002 144.895 52.0002 146Z" fill="url(#paint48_linear)"/>
<path d="M52.0002 162C52.0002 163.105 51.1048 164 50.0002 164C48.8957 164 48.0002 163.105 48.0002 162C48.0002 160.895 48.8957 160 50.0002 160C51.1048 160 52.0002 160.895 52.0002 162Z" fill="url(#paint49_linear)"/>
<path d="M52.0002 178C52.0002 179.105 51.1048 180 50.0002 180C48.8957 180 48.0002 179.105 48.0002 178C48.0002 176.895 48.8957 176 50.0002 176C51.1048 176 52.0002 176.895 52.0002 178Z" fill="url(#paint50_linear)"/>
<path d="M52.0002 194C52.0002 195.105 51.1048 196 50.0002 196C48.8957 196 48.0002 195.105 48.0002 194C48.0002 192.895 48.8957 192 50.0002 192C51.1048 192 52.0002 192.895 52.0002 194Z" fill="url(#paint51_linear)"/>
<path d="M68.0002 2C68.0002 3.10457 67.1048 4 66.0002 4C64.8957 4 64.0002 3.10457 64.0002 2C64.0002 0.89543 64.8957 0 66.0002 0C67.1048 0 68.0002 0.89543 68.0002 2Z" fill="url(#paint52_linear)"/>
<path d="M68.0002 18C68.0002 19.1046 67.1048 20 66.0002 20C64.8957 20 64.0002 19.1046 64.0002 18C64.0002 16.8954 64.8957 16 66.0002 16C67.1048 16 68.0002 16.8954 68.0002 18Z" fill="url(#paint53_linear)"/>
<path d="M68.0002 34C68.0002 35.1046 67.1048 36 66.0002 36C64.8957 36 64.0002 35.1046 64.0002 34C64.0002 32.8954 64.8957 32 66.0002 32C67.1048 32 68.0002 32.8954 68.0002 34Z" fill="url(#paint54_linear)"/>
<path d="M68.0002 50C68.0002 51.1046 67.1048 52 66.0002 52C64.8957 52 64.0002 51.1046 64.0002 50C64.0002 48.8954 64.8957 48 66.0002 48C67.1048 48 68.0002 48.8954 68.0002 50Z" fill="url(#paint55_linear)"/>
<path d="M68.0002 66C68.0002 67.1046 67.1048 68 66.0002 68C64.8957 68 64.0002 67.1046 64.0002 66C64.0002 64.8954 64.8957 64 66.0002 64C67.1048 64 68.0002 64.8954 68.0002 66Z" fill="url(#paint56_linear)"/>
<path d="M68.0002 82C68.0002 83.1046 67.1048 84 66.0002 84C64.8957 84 64.0002 83.1046 64.0002 82C64.0002 80.8954 64.8957 80 66.0002 80C67.1048 80 68.0002 80.8954 68.0002 82Z" fill="url(#paint57_linear)"/>
<path d="M68.0002 98C68.0002 99.1046 67.1048 100 66.0002 100C64.8957 100 64.0002 99.1046 64.0002 98C64.0002 96.8954 64.8957 96 66.0002 96C67.1048 96 68.0002 96.8954 68.0002 98Z" fill="url(#paint58_linear)"/>
<path d="M68.0002 114C68.0002 115.105 67.1048 116 66.0002 116C64.8957 116 64.0002 115.105 64.0002 114C64.0002 112.895 64.8957 112 66.0002 112C67.1048 112 68.0002 112.895 68.0002 114Z" fill="url(#paint59_linear)"/>
<path d="M68.0002 130C68.0002 131.105 67.1048 132 66.0002 132C64.8957 132 64.0002 131.105 64.0002 130C64.0002 128.895 64.8957 128 66.0002 128C67.1048 128 68.0002 128.895 68.0002 130Z" fill="url(#paint60_linear)"/>
<path d="M68.0002 146C68.0002 147.105 67.1048 148 66.0002 148C64.8957 148 64.0002 147.105 64.0002 146C64.0002 144.895 64.8957 144 66.0002 144C67.1048 144 68.0002 144.895 68.0002 146Z" fill="url(#paint61_linear)"/>
<path d="M68.0002 162C68.0002 163.105 67.1048 164 66.0002 164C64.8957 164 64.0002 163.105 64.0002 162C64.0002 160.895 64.8957 160 66.0002 160C67.1048 160 68.0002 160.895 68.0002 162Z" fill="url(#paint62_linear)"/>
<path d="M68.0002 178C68.0002 179.105 67.1048 180 66.0002 180C64.8957 180 64.0002 179.105 64.0002 178C64.0002 176.895 64.8957 176 66.0002 176C67.1048 176 68.0002 176.895 68.0002 178Z" fill="url(#paint63_linear)"/>
<path d="M68.0002 194C68.0002 195.105 67.1048 196 66.0002 196C64.8957 196 64.0002 195.105 64.0002 194C64.0002 192.895 64.8957 192 66.0002 192C67.1048 192 68.0002 192.895 68.0002 194Z" fill="url(#paint64_linear)"/>
<path d="M84.0002 2C84.0002 3.10457 83.1048 4 82.0002 4C80.8957 4 80.0002 3.10457 80.0002 2C80.0002 0.89543 80.8957 0 82.0002 0C83.1048 0 84.0002 0.89543 84.0002 2Z" fill="url(#paint65_linear)"/>
<path d="M84.0002 18C84.0002 19.1046 83.1048 20 82.0002 20C80.8957 20 80.0002 19.1046 80.0002 18C80.0002 16.8954 80.8957 16 82.0002 16C83.1048 16 84.0002 16.8954 84.0002 18Z" fill="url(#paint66_linear)"/>
<path d="M84.0002 34C84.0002 35.1046 83.1048 36 82.0002 36C80.8957 36 80.0002 35.1046 80.0002 34C80.0002 32.8954 80.8957 32 82.0002 32C83.1048 32 84.0002 32.8954 84.0002 34Z" fill="url(#paint67_linear)"/>
<path d="M84.0002 50C84.0002 51.1046 83.1048 52 82.0002 52C80.8957 52 80.0002 51.1046 80.0002 50C80.0002 48.8954 80.8957 48 82.0002 48C83.1048 48 84.0002 48.8954 84.0002 50Z" fill="url(#paint68_linear)"/>
<path d="M84.0002 66C84.0002 67.1046 83.1048 68 82.0002 68C80.8957 68 80.0002 67.1046 80.0002 66C80.0002 64.8954 80.8957 64 82.0002 64C83.1048 64 84.0002 64.8954 84.0002 66Z" fill="url(#paint69_linear)"/>
<path d="M84.0002 82C84.0002 83.1046 83.1048 84 82.0002 84C80.8957 84 80.0002 83.1046 80.0002 82C80.0002 80.8954 80.8957 80 82.0002 80C83.1048 80 84.0002 80.8954 84.0002 82Z" fill="url(#paint70_linear)"/>
<path d="M84.0002 98C84.0002 99.1046 83.1048 100 82.0002 100C80.8957 100 80.0002 99.1046 80.0002 98C80.0002 96.8954 80.8957 96 82.0002 96C83.1048 96 84.0002 96.8954 84.0002 98Z" fill="url(#paint71_linear)"/>
<path d="M84.0002 114C84.0002 115.105 83.1048 116 82.0002 116C80.8957 116 80.0002 115.105 80.0002 114C80.0002 112.895 80.8957 112 82.0002 112C83.1048 112 84.0002 112.895 84.0002 114Z" fill="url(#paint72_linear)"/>
<path d="M84.0002 130C84.0002 131.105 83.1048 132 82.0002 132C80.8957 132 80.0002 131.105 80.0002 130C80.0002 128.895 80.8957 128 82.0002 128C83.1048 128 84.0002 128.895 84.0002 130Z" fill="url(#paint73_linear)"/>
<path d="M84.0002 146C84.0002 147.105 83.1048 148 82.0002 148C80.8957 148 80.0002 147.105 80.0002 146C80.0002 144.895 80.8957 144 82.0002 144C83.1048 144 84.0002 144.895 84.0002 146Z" fill="url(#paint74_linear)"/>
<path d="M84.0002 162C84.0002 163.105 83.1048 164 82.0002 164C80.8957 164 80.0002 163.105 80.0002 162C80.0002 160.895 80.8957 160 82.0002 160C83.1048 160 84.0002 160.895 84.0002 162Z" fill="url(#paint75_linear)"/>
<path d="M84.0002 178C84.0002 179.105 83.1048 180 82.0002 180C80.8957 180 80.0002 179.105 80.0002 178C80.0002 176.895 80.8957 176 82.0002 176C83.1048 176 84.0002 176.895 84.0002 178Z" fill="url(#paint76_linear)"/>
<path d="M84.0002 194C84.0002 195.105 83.1048 196 82.0002 196C80.8957 196 80.0002 195.105 80.0002 194C80.0002 192.895 80.8957 192 82.0002 192C83.1048 192 84.0002 192.895 84.0002 194Z" fill="url(#paint77_linear)"/>
<path d="M100 2C100 3.10457 99.1048 4 98.0002 4C96.8957 4 96.0002 3.10457 96.0002 2C96.0002 0.89543 96.8957 0 98.0002 0C99.1048 0 100 0.89543 100 2Z" fill="url(#paint78_linear)"/>
<path d="M100 18C100 19.1046 99.1048 20 98.0002 20C96.8957 20 96.0002 19.1046 96.0002 18C96.0002 16.8954 96.8957 16 98.0002 16C99.1048 16 100 16.8954 100 18Z" fill="url(#paint79_linear)"/>
<path d="M100 34C100 35.1046 99.1048 36 98.0002 36C96.8957 36 96.0002 35.1046 96.0002 34C96.0002 32.8954 96.8957 32 98.0002 32C99.1048 32 100 32.8954 100 34Z" fill="url(#paint80_linear)"/>
<path d="M100 50C100 51.1046 99.1048 52 98.0002 52C96.8957 52 96.0002 51.1046 96.0002 50C96.0002 48.8954 96.8957 48 98.0002 48C99.1048 48 100 48.8954 100 50Z" fill="url(#paint81_linear)"/>
<path d="M100 66C100 67.1046 99.1048 68 98.0002 68C96.8957 68 96.0002 67.1046 96.0002 66C96.0002 64.8954 96.8957 64 98.0002 64C99.1048 64 100 64.8954 100 66Z" fill="url(#paint82_linear)"/>
<path d="M100 82C100 83.1046 99.1048 84 98.0002 84C96.8957 84 96.0002 83.1046 96.0002 82C96.0002 80.8954 96.8957 80 98.0002 80C99.1048 80 100 80.8954 100 82Z" fill="url(#paint83_linear)"/>
<path d="M100 98C100 99.1046 99.1048 100 98.0002 100C96.8957 100 96.0002 99.1046 96.0002 98C96.0002 96.8954 96.8957 96 98.0002 96C99.1048 96 100 96.8954 100 98Z" fill="url(#paint84_linear)"/>
<path d="M100 114C100 115.105 99.1048 116 98.0002 116C96.8957 116 96.0002 115.105 96.0002 114C96.0002 112.895 96.8957 112 98.0002 112C99.1048 112 100 112.895 100 114Z" fill="url(#paint85_linear)"/>
<path d="M100 130C100 131.105 99.1048 132 98.0002 132C96.8957 132 96.0002 131.105 96.0002 130C96.0002 128.895 96.8957 128 98.0002 128C99.1048 128 100 128.895 100 130Z" fill="url(#paint86_linear)"/>
<path d="M100 146C100 147.105 99.1048 148 98.0002 148C96.8957 148 96.0002 147.105 96.0002 146C96.0002 144.895 96.8957 144 98.0002 144C99.1048 144 100 144.895 100 146Z" fill="url(#paint87_linear)"/>
<path d="M100 162C100 163.105 99.1048 164 98.0002 164C96.8957 164 96.0002 163.105 96.0002 162C96.0002 160.895 96.8957 160 98.0002 160C99.1048 160 100 160.895 100 162Z" fill="url(#paint88_linear)"/>
<path d="M100 178C100 179.105 99.1048 180 98.0002 180C96.8957 180 96.0002 179.105 96.0002 178C96.0002 176.895 96.8957 176 98.0002 176C99.1048 176 100 176.895 100 178Z" fill="url(#paint89_linear)"/>
<path d="M100 194C100 195.105 99.1048 196 98.0002 196C96.8957 196 96.0002 195.105 96.0002 194C96.0002 192.895 96.8957 192 98.0002 192C99.1048 192 100 192.895 100 194Z" fill="url(#paint90_linear)"/>
<path d="M116 2C116 3.10457 115.105 4 114 4C112.896 4 112 3.10457 112 2C112 0.89543 112.896 0 114 0C115.105 0 116 0.89543 116 2Z" fill="url(#paint91_linear)"/>
<path d="M116 18C116 19.1046 115.105 20 114 20C112.896 20 112 19.1046 112 18C112 16.8954 112.896 16 114 16C115.105 16 116 16.8954 116 18Z" fill="url(#paint92_linear)"/>
<path d="M116 34C116 35.1046 115.105 36 114 36C112.896 36 112 35.1046 112 34C112 32.8954 112.896 32 114 32C115.105 32 116 32.8954 116 34Z" fill="url(#paint93_linear)"/>
<path d="M116 50C116 51.1046 115.105 52 114 52C112.896 52 112 51.1046 112 50C112 48.8954 112.896 48 114 48C115.105 48 116 48.8954 116 50Z" fill="url(#paint94_linear)"/>
<path d="M116 66C116 67.1046 115.105 68 114 68C112.896 68 112 67.1046 112 66C112 64.8954 112.896 64 114 64C115.105 64 116 64.8954 116 66Z" fill="url(#paint95_linear)"/>
<path d="M116 82C116 83.1046 115.105 84 114 84C112.896 84 112 83.1046 112 82C112 80.8954 112.896 80 114 80C115.105 80 116 80.8954 116 82Z" fill="url(#paint96_linear)"/>
<path d="M116 98C116 99.1046 115.105 100 114 100C112.896 100 112 99.1046 112 98C112 96.8954 112.896 96 114 96C115.105 96 116 96.8954 116 98Z" fill="url(#paint97_linear)"/>
<path d="M116 114C116 115.105 115.105 116 114 116C112.896 116 112 115.105 112 114C112 112.895 112.896 112 114 112C115.105 112 116 112.895 116 114Z" fill="url(#paint98_linear)"/>
<path d="M116 130C116 131.105 115.105 132 114 132C112.896 132 112 131.105 112 130C112 128.895 112.896 128 114 128C115.105 128 116 128.895 116 130Z" fill="url(#paint99_linear)"/>
<path d="M116 146C116 147.105 115.105 148 114 148C112.896 148 112 147.105 112 146C112 144.895 112.896 144 114 144C115.105 144 116 144.895 116 146Z" fill="url(#paint100_linear)"/>
<path d="M116 162C116 163.105 115.105 164 114 164C112.896 164 112 163.105 112 162C112 160.895 112.896 160 114 160C115.105 160 116 160.895 116 162Z" fill="url(#paint101_linear)"/>
<path d="M116 178C116 179.105 115.105 180 114 180C112.896 180 112 179.105 112 178C112 176.895 112.896 176 114 176C115.105 176 116 176.895 116 178Z" fill="url(#paint102_linear)"/>
<path d="M116 194C116 195.105 115.105 196 114 196C112.896 196 112 195.105 112 194C112 192.895 112.896 192 114 192C115.105 192 116 192.895 116 194Z" fill="url(#paint103_linear)"/>
<path d="M132 2C132 3.10457 131.105 4 130 4C128.896 4 128 3.10457 128 2C128 0.89543 128.896 0 130 0C131.105 0 132 0.89543 132 2Z" fill="url(#paint104_linear)"/>
<path d="M132 18C132 19.1046 131.105 20 130 20C128.896 20 128 19.1046 128 18C128 16.8954 128.896 16 130 16C131.105 16 132 16.8954 132 18Z" fill="url(#paint105_linear)"/>
<path d="M132 34C132 35.1046 131.105 36 130 36C128.896 36 128 35.1046 128 34C128 32.8954 128.896 32 130 32C131.105 32 132 32.8954 132 34Z" fill="url(#paint106_linear)"/>
<path d="M132 50C132 51.1046 131.105 52 130 52C128.896 52 128 51.1046 128 50C128 48.8954 128.896 48 130 48C131.105 48 132 48.8954 132 50Z" fill="url(#paint107_linear)"/>
<path d="M132 66C132 67.1046 131.105 68 130 68C128.896 68 128 67.1046 128 66C128 64.8954 128.896 64 130 64C131.105 64 132 64.8954 132 66Z" fill="url(#paint108_linear)"/>
<path d="M132 82C132 83.1046 131.105 84 130 84C128.896 84 128 83.1046 128 82C128 80.8954 128.896 80 130 80C131.105 80 132 80.8954 132 82Z" fill="url(#paint109_linear)"/>
<path d="M132 98C132 99.1046 131.105 100 130 100C128.896 100 128 99.1046 128 98C128 96.8954 128.896 96 130 96C131.105 96 132 96.8954 132 98Z" fill="url(#paint110_linear)"/>
<path d="M132 114C132 115.105 131.105 116 130 116C128.896 116 128 115.105 128 114C128 112.895 128.896 112 130 112C131.105 112 132 112.895 132 114Z" fill="url(#paint111_linear)"/>
<path d="M132 130C132 131.105 131.105 132 130 132C128.896 132 128 131.105 128 130C128 128.895 128.896 128 130 128C131.105 128 132 128.895 132 130Z" fill="url(#paint112_linear)"/>
<path d="M132 146C132 147.105 131.105 148 130 148C128.896 148 128 147.105 128 146C128 144.895 128.896 144 130 144C131.105 144 132 144.895 132 146Z" fill="url(#paint113_linear)"/>
<path d="M132 162C132 163.105 131.105 164 130 164C128.896 164 128 163.105 128 162C128 160.895 128.896 160 130 160C131.105 160 132 160.895 132 162Z" fill="url(#paint114_linear)"/>
<path d="M132 178C132 179.105 131.105 180 130 180C128.896 180 128 179.105 128 178C128 176.895 128.896 176 130 176C131.105 176 132 176.895 132 178Z" fill="url(#paint115_linear)"/>
<path d="M132 194C132 195.105 131.105 196 130 196C128.896 196 128 195.105 128 194C128 192.895 128.896 192 130 192C131.105 192 132 192.895 132 194Z" fill="url(#paint116_linear)"/>
<path d="M148 2C148 3.10457 147.105 4 146 4C144.896 4 144 3.10457 144 2C144 0.89543 144.896 0 146 0C147.105 0 148 0.89543 148 2Z" fill="url(#paint117_linear)"/>
<path d="M148 18C148 19.1046 147.105 20 146 20C144.896 20 144 19.1046 144 18C144 16.8954 144.896 16 146 16C147.105 16 148 16.8954 148 18Z" fill="url(#paint118_linear)"/>
<path d="M148 34C148 35.1046 147.105 36 146 36C144.896 36 144 35.1046 144 34C144 32.8954 144.896 32 146 32C147.105 32 148 32.8954 148 34Z" fill="url(#paint119_linear)"/>
<path d="M148 50C148 51.1046 147.105 52 146 52C144.896 52 144 51.1046 144 50C144 48.8954 144.896 48 146 48C147.105 48 148 48.8954 148 50Z" fill="url(#paint120_linear)"/>
<path d="M148 66C148 67.1046 147.105 68 146 68C144.896 68 144 67.1046 144 66C144 64.8954 144.896 64 146 64C147.105 64 148 64.8954 148 66Z" fill="url(#paint121_linear)"/>
<path d="M148 82C148 83.1046 147.105 84 146 84C144.896 84 144 83.1046 144 82C144 80.8954 144.896 80 146 80C147.105 80 148 80.8954 148 82Z" fill="url(#paint122_linear)"/>
<path d="M148 98C148 99.1046 147.105 100 146 100C144.896 100 144 99.1046 144 98C144 96.8954 144.896 96 146 96C147.105 96 148 96.8954 148 98Z" fill="url(#paint123_linear)"/>
<path d="M148 114C148 115.105 147.105 116 146 116C144.896 116 144 115.105 144 114C144 112.895 144.896 112 146 112C147.105 112 148 112.895 148 114Z" fill="url(#paint124_linear)"/>
<path d="M148 130C148 131.105 147.105 132 146 132C144.896 132 144 131.105 144 130C144 128.895 144.896 128 146 128C147.105 128 148 128.895 148 130Z" fill="url(#paint125_linear)"/>
<path d="M148 146C148 147.105 147.105 148 146 148C144.896 148 144 147.105 144 146C144 144.895 144.896 144 146 144C147.105 144 148 144.895 148 146Z" fill="url(#paint126_linear)"/>
<path d="M148 162C148 163.105 147.105 164 146 164C144.896 164 144 163.105 144 162C144 160.895 144.896 160 146 160C147.105 160 148 160.895 148 162Z" fill="url(#paint127_linear)"/>
<path d="M148 178C148 179.105 147.105 180 146 180C144.896 180 144 179.105 144 178C144 176.895 144.896 176 146 176C147.105 176 148 176.895 148 178Z" fill="url(#paint128_linear)"/>
<path d="M148 194C148 195.105 147.105 196 146 196C144.896 196 144 195.105 144 194C144 192.895 144.896 192 146 192C147.105 192 148 192.895 148 194Z" fill="url(#paint129_linear)"/>
<path d="M164 2C164 3.10457 163.105 4 162 4C160.896 4 160 3.10457 160 2C160 0.89543 160.896 0 162 0C163.105 0 164 0.89543 164 2Z" fill="url(#paint130_linear)"/>
<path d="M164 18C164 19.1046 163.105 20 162 20C160.896 20 160 19.1046 160 18C160 16.8954 160.896 16 162 16C163.105 16 164 16.8954 164 18Z" fill="url(#paint131_linear)"/>
<path d="M164 34C164 35.1046 163.105 36 162 36C160.896 36 160 35.1046 160 34C160 32.8954 160.896 32 162 32C163.105 32 164 32.8954 164 34Z" fill="url(#paint132_linear)"/>
<path d="M164 50C164 51.1046 163.105 52 162 52C160.896 52 160 51.1046 160 50C160 48.8954 160.896 48 162 48C163.105 48 164 48.8954 164 50Z" fill="url(#paint133_linear)"/>
<path d="M164 66C164 67.1046 163.105 68 162 68C160.896 68 160 67.1046 160 66C160 64.8954 160.896 64 162 64C163.105 64 164 64.8954 164 66Z" fill="url(#paint134_linear)"/>
<path d="M164 82C164 83.1046 163.105 84 162 84C160.896 84 160 83.1046 160 82C160 80.8954 160.896 80 162 80C163.105 80 164 80.8954 164 82Z" fill="url(#paint135_linear)"/>
<path d="M164 98C164 99.1046 163.105 100 162 100C160.896 100 160 99.1046 160 98C160 96.8954 160.896 96 162 96C163.105 96 164 96.8954 164 98Z" fill="url(#paint136_linear)"/>
<path d="M164 114C164 115.105 163.105 116 162 116C160.896 116 160 115.105 160 114C160 112.895 160.896 112 162 112C163.105 112 164 112.895 164 114Z" fill="url(#paint137_linear)"/>
<path d="M164 130C164 131.105 163.105 132 162 132C160.896 132 160 131.105 160 130C160 128.895 160.896 128 162 128C163.105 128 164 128.895 164 130Z" fill="url(#paint138_linear)"/>
<path d="M164 146C164 147.105 163.105 148 162 148C160.896 148 160 147.105 160 146C160 144.895 160.896 144 162 144C163.105 144 164 144.895 164 146Z" fill="url(#paint139_linear)"/>
<path d="M164 162C164 163.105 163.105 164 162 164C160.896 164 160 163.105 160 162C160 160.895 160.896 160 162 160C163.105 160 164 160.895 164 162Z" fill="url(#paint140_linear)"/>
<path d="M164 178C164 179.105 163.105 180 162 180C160.896 180 160 179.105 160 178C160 176.895 160.896 176 162 176C163.105 176 164 176.895 164 178Z" fill="url(#paint141_linear)"/>
<path d="M164 194C164 195.105 163.105 196 162 196C160.896 196 160 195.105 160 194C160 192.895 160.896 192 162 192C163.105 192 164 192.895 164 194Z" fill="url(#paint142_linear)"/>
<path d="M180 2C180 3.10457 179.105 4 178 4C176.896 4 176 3.10457 176 2C176 0.89543 176.896 0 178 0C179.105 0 180 0.89543 180 2Z" fill="url(#paint143_linear)"/>
<path d="M180 18C180 19.1046 179.105 20 178 20C176.896 20 176 19.1046 176 18C176 16.8954 176.896 16 178 16C179.105 16 180 16.8954 180 18Z" fill="url(#paint144_linear)"/>
<path d="M180 34C180 35.1046 179.105 36 178 36C176.896 36 176 35.1046 176 34C176 32.8954 176.896 32 178 32C179.105 32 180 32.8954 180 34Z" fill="url(#paint145_linear)"/>
<path d="M180 50C180 51.1046 179.105 52 178 52C176.896 52 176 51.1046 176 50C176 48.8954 176.896 48 178 48C179.105 48 180 48.8954 180 50Z" fill="url(#paint146_linear)"/>
<path d="M180 66C180 67.1046 179.105 68 178 68C176.896 68 176 67.1046 176 66C176 64.8954 176.896 64 178 64C179.105 64 180 64.8954 180 66Z" fill="url(#paint147_linear)"/>
<path d="M180 82C180 83.1046 179.105 84 178 84C176.896 84 176 83.1046 176 82C176 80.8954 176.896 80 178 80C179.105 80 180 80.8954 180 82Z" fill="url(#paint148_linear)"/>
<path d="M180 98C180 99.1046 179.105 100 178 100C176.896 100 176 99.1046 176 98C176 96.8954 176.896 96 178 96C179.105 96 180 96.8954 180 98Z" fill="url(#paint149_linear)"/>
<path d="M180 114C180 115.105 179.105 116 178 116C176.896 116 176 115.105 176 114C176 112.895 176.896 112 178 112C179.105 112 180 112.895 180 114Z" fill="url(#paint150_linear)"/>
<path d="M180 130C180 131.105 179.105 132 178 132C176.896 132 176 131.105 176 130C176 128.895 176.896 128 178 128C179.105 128 180 128.895 180 130Z" fill="url(#paint151_linear)"/>
<path d="M180 146C180 147.105 179.105 148 178 148C176.896 148 176 147.105 176 146C176 144.895 176.896 144 178 144C179.105 144 180 144.895 180 146Z" fill="url(#paint152_linear)"/>
<path d="M180 162C180 163.105 179.105 164 178 164C176.896 164 176 163.105 176 162C176 160.895 176.896 160 178 160C179.105 160 180 160.895 180 162Z" fill="url(#paint153_linear)"/>
<path d="M180 178C180 179.105 179.105 180 178 180C176.896 180 176 179.105 176 178C176 176.895 176.896 176 178 176C179.105 176 180 176.895 180 178Z" fill="url(#paint154_linear)"/>
<path d="M180 194C180 195.105 179.105 196 178 196C176.896 196 176 195.105 176 194C176 192.895 176.896 192 178 192C179.105 192 180 192.895 180 194Z" fill="url(#paint155_linear)"/>
<path d="M196 2C196 3.10457 195.105 4 194 4C192.896 4 192 3.10457 192 2C192 0.89543 192.896 0 194 0C195.105 0 196 0.89543 196 2Z" fill="url(#paint156_linear)"/>
<path d="M196 18C196 19.1046 195.105 20 194 20C192.896 20 192 19.1046 192 18C192 16.8954 192.896 16 194 16C195.105 16 196 16.8954 196 18Z" fill="url(#paint157_linear)"/>
<path d="M196 34C196 35.1046 195.105 36 194 36C192.896 36 192 35.1046 192 34C192 32.8954 192.896 32 194 32C195.105 32 196 32.8954 196 34Z" fill="url(#paint158_linear)"/>
<path d="M196 50C196 51.1046 195.105 52 194 52C192.896 52 192 51.1046 192 50C192 48.8954 192.896 48 194 48C195.105 48 196 48.8954 196 50Z" fill="url(#paint159_linear)"/>
<path d="M196 66C196 67.1046 195.105 68 194 68C192.896 68 192 67.1046 192 66C192 64.8954 192.896 64 194 64C195.105 64 196 64.8954 196 66Z" fill="url(#paint160_linear)"/>
<path d="M196 82C196 83.1046 195.105 84 194 84C192.896 84 192 83.1046 192 82C192 80.8954 192.896 80 194 80C195.105 80 196 80.8954 196 82Z" fill="url(#paint161_linear)"/>
<path d="M196 98C196 99.1046 195.105 100 194 100C192.896 100 192 99.1046 192 98C192 96.8954 192.896 96 194 96C195.105 96 196 96.8954 196 98Z" fill="url(#paint162_linear)"/>
<path d="M196 114C196 115.105 195.105 116 194 116C192.896 116 192 115.105 192 114C192 112.895 192.896 112 194 112C195.105 112 196 112.895 196 114Z" fill="url(#paint163_linear)"/>
<path d="M196 130C196 131.105 195.105 132 194 132C192.896 132 192 131.105 192 130C192 128.895 192.896 128 194 128C195.105 128 196 128.895 196 130Z" fill="url(#paint164_linear)"/>
<path d="M196 146C196 147.105 195.105 148 194 148C192.896 148 192 147.105 192 146C192 144.895 192.896 144 194 144C195.105 144 196 144.895 196 146Z" fill="url(#paint165_linear)"/>
<path d="M196 162C196 163.105 195.105 164 194 164C192.896 164 192 163.105 192 162C192 160.895 192.896 160 194 160C195.105 160 196 160.895 196 162Z" fill="url(#paint166_linear)"/>
<path d="M196 178C196 179.105 195.105 180 194 180C192.896 180 192 179.105 192 178C192 176.895 192.896 176 194 176C195.105 176 196 176.895 196 178Z" fill="url(#paint167_linear)"/>
<path d="M196 194C196 195.105 195.105 196 194 196C192.896 196 192 195.105 192 194C192 192.895 192.896 192 194 192C195.105 192 196 192.895 196 194Z" fill="url(#paint168_linear)"/>
<path d="M212 2C212 3.10457 211.105 4 210 4C208.896 4 208 3.10457 208 2C208 0.89543 208.896 0 210 0C211.105 0 212 0.89543 212 2Z" fill="url(#paint169_linear)"/>
<path d="M212 18C212 19.1046 211.105 20 210 20C208.896 20 208 19.1046 208 18C208 16.8954 208.896 16 210 16C211.105 16 212 16.8954 212 18Z" fill="url(#paint170_linear)"/>
<path d="M212 34C212 35.1046 211.105 36 210 36C208.896 36 208 35.1046 208 34C208 32.8954 208.896 32 210 32C211.105 32 212 32.8954 212 34Z" fill="url(#paint171_linear)"/>
<path d="M212 50C212 51.1046 211.105 52 210 52C208.896 52 208 51.1046 208 50C208 48.8954 208.896 48 210 48C211.105 48 212 48.8954 212 50Z" fill="url(#paint172_linear)"/>
<path d="M212 66C212 67.1046 211.105 68 210 68C208.896 68 208 67.1046 208 66C208 64.8954 208.896 64 210 64C211.105 64 212 64.8954 212 66Z" fill="url(#paint173_linear)"/>
<path d="M212 82C212 83.1046 211.105 84 210 84C208.896 84 208 83.1046 208 82C208 80.8954 208.896 80 210 80C211.105 80 212 80.8954 212 82Z" fill="url(#paint174_linear)"/>
<path d="M212 98C212 99.1046 211.105 100 210 100C208.896 100 208 99.1046 208 98C208 96.8954 208.896 96 210 96C211.105 96 212 96.8954 212 98Z" fill="url(#paint175_linear)"/>
<path d="M212 114C212 115.105 211.105 116 210 116C208.896 116 208 115.105 208 114C208 112.895 208.896 112 210 112C211.105 112 212 112.895 212 114Z" fill="url(#paint176_linear)"/>
<path d="M212 130C212 131.105 211.105 132 210 132C208.896 132 208 131.105 208 130C208 128.895 208.896 128 210 128C211.105 128 212 128.895 212 130Z" fill="url(#paint177_linear)"/>
<path d="M212 146C212 147.105 211.105 148 210 148C208.896 148 208 147.105 208 146C208 144.895 208.896 144 210 144C211.105 144 212 144.895 212 146Z" fill="url(#paint178_linear)"/>
<path d="M212 162C212 163.105 211.105 164 210 164C208.896 164 208 163.105 208 162C208 160.895 208.896 160 210 160C211.105 160 212 160.895 212 162Z" fill="url(#paint179_linear)"/>
<path d="M212 178C212 179.105 211.105 180 210 180C208.896 180 208 179.105 208 178C208 176.895 208.896 176 210 176C211.105 176 212 176.895 212 178Z" fill="url(#paint180_linear)"/>
<path d="M212 194C212 195.105 211.105 196 210 196C208.896 196 208 195.105 208 194C208 192.895 208.896 192 210 192C211.105 192 212 192.895 212 194Z" fill="url(#paint181_linear)"/>
<path d="M228 2C228 3.10457 227.105 4 226 4C224.896 4 224 3.10457 224 2C224 0.89543 224.896 0 226 0C227.105 0 228 0.89543 228 2Z" fill="url(#paint182_linear)"/>
<path d="M228 18C228 19.1046 227.105 20 226 20C224.896 20 224 19.1046 224 18C224 16.8954 224.896 16 226 16C227.105 16 228 16.8954 228 18Z" fill="url(#paint183_linear)"/>
<path d="M228 34C228 35.1046 227.105 36 226 36C224.896 36 224 35.1046 224 34C224 32.8954 224.896 32 226 32C227.105 32 228 32.8954 228 34Z" fill="url(#paint184_linear)"/>
<path d="M228 50C228 51.1046 227.105 52 226 52C224.896 52 224 51.1046 224 50C224 48.8954 224.896 48 226 48C227.105 48 228 48.8954 228 50Z" fill="url(#paint185_linear)"/>
<path d="M228 66C228 67.1046 227.105 68 226 68C224.896 68 224 67.1046 224 66C224 64.8954 224.896 64 226 64C227.105 64 228 64.8954 228 66Z" fill="url(#paint186_linear)"/>
<path d="M228 82C228 83.1046 227.105 84 226 84C224.896 84 224 83.1046 224 82C224 80.8954 224.896 80 226 80C227.105 80 228 80.8954 228 82Z" fill="url(#paint187_linear)"/>
<path d="M228 98C228 99.1046 227.105 100 226 100C224.896 100 224 99.1046 224 98C224 96.8954 224.896 96 226 96C227.105 96 228 96.8954 228 98Z" fill="url(#paint188_linear)"/>
<path d="M228 114C228 115.105 227.105 116 226 116C224.896 116 224 115.105 224 114C224 112.895 224.896 112 226 112C227.105 112 228 112.895 228 114Z" fill="url(#paint189_linear)"/>
<path d="M228 130C228 131.105 227.105 132 226 132C224.896 132 224 131.105 224 130C224 128.895 224.896 128 226 128C227.105 128 228 128.895 228 130Z" fill="url(#paint190_linear)"/>
<path d="M228 146C228 147.105 227.105 148 226 148C224.896 148 224 147.105 224 146C224 144.895 224.896 144 226 144C227.105 144 228 144.895 228 146Z" fill="url(#paint191_linear)"/>
<path d="M228 162C228 163.105 227.105 164 226 164C224.896 164 224 163.105 224 162C224 160.895 224.896 160 226 160C227.105 160 228 160.895 228 162Z" fill="url(#paint192_linear)"/>
<path d="M228 178C228 179.105 227.105 180 226 180C224.896 180 224 179.105 224 178C224 176.895 224.896 176 226 176C227.105 176 228 176.895 228 178Z" fill="url(#paint193_linear)"/>
<path d="M228 194C228 195.105 227.105 196 226 196C224.896 196 224 195.105 224 194C224 192.895 224.896 192 226 192C227.105 192 228 192.895 228 194Z" fill="url(#paint194_linear)"/>
</g>
<defs>
<linearGradient id="paint0_linear" x1="0.000237346" y1="-32" x2="228" y2="196" gradientUnits="userSpaceOnUse">
<stop offset="0.03125" stop-color="#61A1F0"/>
<stop offset="1" stop-color="#2B5CA8"/>
</linearGradient>
<linearGradient id="paint1_linear" x1="0.000237346" y1="-32" x2="228" y2="196" gradientUnits="userSpaceOnUse">
<stop offset="0.03125" stop-color="#61A1F0"/>
<stop offset="1" stop-color="#2B5CA8"/>
</linearGradient>
<linearGradient id="paint2_linear" x1="0.000237346" y1="-32" x2="228" y2="196" gradientUnits="userSpaceOnUse">
<stop offset="0.03125" stop-color="#61A1F0"/>
<stop offset="1" stop-color="#2B5CA8"/>
</linearGradient>
<linearGradient id="paint3_linear" x1="0.000237346" y1="-32" x2="228" y2="196" gradientUnits="userSpaceOnUse">
<stop offset="0.03125" stop-color="#61A1F0"/>
<stop offset="1" stop-color="#2B5CA8"/>
</linearGradient>
<linearGradient id="paint4_linear" x1="0.000237346" y1="-32" x2="228" y2="196" gradientUnits="userSpaceOnUse">
<stop offset="0.03125" stop-color="#61A1F0"/>
<stop offset="1" stop-color="#2B5CA8"/>
</linearGradient>
<linearGradient id="paint5_linear" x1="0.000237346" y1="-32" x2="228" y2="196" gradientUnits="userSpaceOnUse">
<stop offset="0.03125" stop-color="#61A1F0"/>
<stop offset="1" stop-color="#2B5CA8"/>
</linearGradient>
<linearGradient id="paint6_linear" x1="0.000237346" y1="-32" x2="228" y2="196" gradientUnits="userSpaceOnUse">
<stop offset="0.03125" stop-color="#61A1F0"/>
<stop offset="1" stop-color="#2B5CA8"/>
</linearGradient>
<linearGradient id="paint7_linear" x1="0.000237346" y1="-32" x2="228" y2="196" gradientUnits="userSpaceOnUse">
<stop offset="0.03125" stop-color="#61A1F0"/>
<stop offset="1" stop-color="#2B5CA8"/>
</linearGradient>
<linearGradient id="paint8_linear" x1="0.000237346" y1="-32" x2="228" y2="196" gradientUnits="userSpaceOnUse">
<stop offset="0.03125" stop-color="#61A1F0"/>
<stop offset="1" stop-color="#2B5CA8"/>
</linearGradient>
<linearGradient id="paint9_linear" x1="0.000237346" y1="-32" x2="228" y2="196" gradientUnits="userSpaceOnUse">
<stop offset="0.03125" stop-color="#61A1F0"/>
<stop offset="1" stop-color="#2B5CA8"/>
</linearGradient>
<linearGradient id="paint10_linear" x1="0.000237346" y1="-32" x2="228" y2="196" gradientUnits="userSpaceOnUse">
<stop offset="0.03125" stop-color="#61A1F0"/>
<stop offset="1" stop-color="#2B5CA8"/>
</linearGradient>
<linearGradient id="paint11_linear" x1="0.000237346" y1="-32" x2="228" y2="196" gradientUnits="userSpaceOnUse">
<stop offset="0.03125" stop-color="#61A1F0"/>
<stop offset="1" stop-color="#2B5CA8"/>
</linearGradient>
<linearGradient id="paint12_linear" x1="0.000237346" y1="-32" x2="228" y2="196" gradientUnits="userSpaceOnUse">
<stop offset="0.03125" stop-color="#61A1F0"/>
<stop offset="1" stop-color="#2B5CA8"/>
</linearGradient>
<linearGradient id="paint13_linear" x1="0.000237346" y1="-32" x2="228" y2="196" gradientUnits="userSpaceOnUse">
<stop offset="0.03125" stop-color="#61A1F0"/>
<stop offset="1" stop-color="#2B5CA8"/>
</linearGradient>
<linearGradient id="paint14_linear" x1="0.000237346" y1="-32" x2="228" y2="196" gradientUnits="userSpaceOnUse">
<stop offset="0.03125" stop-color="#61A1F0"/>
<stop offset="1" stop-color="#2B5CA8"/>
</linearGradient>
<linearGradient id="paint15_linear" x1="0.000237346" y1="-32" x2="228" y2="196" gradientUnits="userSpaceOnUse">
<stop offset="0.03125" stop-color="#61A1F0"/>
<stop offset="1" stop-color="#2B5CA8"/>
</linearGradient>
<linearGradient id="paint16_linear" x1="0.000237346" y1="-32" x2="228" y2="196" gradientUnits="userSpaceOnUse">
<stop offset="0.03125" stop-color="#61A1F0"/>
<stop offset="1" stop-color="#2B5CA8"/>
</linearGradient>
<linearGradient id="paint17_linear" x1="0.000237346" y1="-32" x2="228" y2="196" gradientUnits="userSpaceOnUse">
<stop offset="0.03125" stop-color="#61A1F0"/>
<stop offset="1" stop-color="#2B5CA8"/>
</linearGradient>
<linearGradient id="paint18_linear" x1="0.000237346" y1="-32" x2="228" y2="196" gradientUnits="userSpaceOnUse">
<stop offset="0.03125" stop-color="#61A1F0"/>
<stop offset="1" stop-color="#2B5CA8"/>
</linearGradient>
<linearGradient id="paint19_linear" x1="0.000237346" y1="-32" x2="228" y2="196" gradientUnits="userSpaceOnUse">
<stop offset="0.03125" stop-color="#61A1F0"/>
<stop offset="1" stop-color="#2B5CA8"/>
</linearGradient>
<linearGradient id="paint20_linear" x1="0.000237346" y1="-32" x2="228" y2="196" gradientUnits="userSpaceOnUse">
<stop offset="0.03125" stop-color="#61A1F0"/>
<stop offset="1" stop-color="#2B5CA8"/>
</linearGradient>
<linearGradient id="paint21_linear" x1="0.000237346" y1="-32" x2="228" y2="196" gradientUnits="userSpaceOnUse">
<stop offset="0.03125" stop-color="#61A1F0"/>
<stop offset="1" stop-color="#2B5CA8"/>
</linearGradient>
<linearGradient id="paint22_linear" x1="0.000237346" y1="-32" x2="228" y2="196" gradientUnits="userSpaceOnUse">
<stop offset="0.03125" stop-color="#61A1F0"/>
<stop offset="1" stop-color="#2B5CA8"/>
</linearGradient>
<linearGradient id="paint23_linear" x1="0.000237346" y1="-32" x2="228" y2="196" gradientUnits="userSpaceOnUse">
<stop offset="0.03125" stop-color="#61A1F0"/>
<stop offset="1" stop-color="#2B5CA8"/>
</linearGradient>
<linearGradient id="paint24_linear" x1="0.000237346" y1="-32" x2="228" y2="196" gradientUnits="userSpaceOnUse">
<stop offset="0.03125" stop-color="#61A1F0"/>
<stop offset="1" stop-color="#2B5CA8"/>
</linearGradient>
<linearGradient id="paint25_linear" x1="0.000237346" y1="-32" x2="228" y2="196" gradientUnits="userSpaceOnUse">
<stop offset="0.03125" stop-color="#61A1F0"/>
<stop offset="1" stop-color="#2B5CA8"/>
</linearGradient>
<linearGradient id="paint26_linear" x1="0.000237346" y1="-32" x2="228" y2="196" gradientUnits="userSpaceOnUse">
<stop offset="0.03125" stop-color="#61A1F0"/>
<stop offset="1" stop-color="#2B5CA8"/>
</linearGradient>
<linearGradient id="paint27_linear" x1="0.000237346" y1="-32" x2="228" y2="196" gradientUnits="userSpaceOnUse">
<stop offset="0.03125" stop-color="#61A1F0"/>
<stop offset="1" stop-color="#2B5CA8"/>
</linearGradient>
<linearGradient id="paint28_linear" x1="0.000237346" y1="-32" x2="228" y2="196" gradientUnits="userSpaceOnUse">
<stop offset="0.03125" stop-color="#61A1F0"/>
<stop offset="1" stop-color="#2B5CA8"/>
</linearGradient>
<linearGradient id="paint29_linear" x1="0.000237346" y1="-32" x2="228" y2="196" gradientUnits="userSpaceOnUse">
<stop offset="0.03125" stop-color="#61A1F0"/>
<stop offset="1" stop-color="#2B5CA8"/>
</linearGradient>
<linearGradient id="paint30_linear" x1="0.000237346" y1="-32" x2="228" y2="196" gradientUnits="userSpaceOnUse">
<stop offset="0.03125" stop-color="#61A1F0"/>
<stop offset="1" stop-color="#2B5CA8"/>
</linearGradient>
<linearGradient id="paint31_linear" x1="0.000237346" y1="-32" x2="228" y2="196" gradientUnits="userSpaceOnUse">
<stop offset="0.03125" stop-color="#61A1F0"/>
<stop offset="1" stop-color="#2B5CA8"/>
</linearGradient>
<linearGradient id="paint32_linear" x1="0.000237346" y1="-32" x2="228" y2="196" gradientUnits="userSpaceOnUse">
<stop offset="0.03125" stop-color="#61A1F0"/>
<stop offset="1" stop-color="#2B5CA8"/>
</linearGradient>
<linearGradient id="paint33_linear" x1="0.000237346" y1="-32" x2="228" y2="196" gradientUnits="userSpaceOnUse">
<stop offset="0.03125" stop-color="#61A1F0"/>
<stop offset="1" stop-color="#2B5CA8"/>
</linearGradient>
<linearGradient id="paint34_linear" x1="0.000237346" y1="-32" x2="228" y2="196" gradientUnits="userSpaceOnUse">
<stop offset="0.03125" stop-color="#61A1F0"/>
<stop offset="1" stop-color="#2B5CA8"/>
</linearGradient>
<linearGradient id="paint35_linear" x1="0.000237346" y1="-32" x2="228" y2="196" gradientUnits="userSpaceOnUse">
<stop offset="0.03125" stop-color="#61A1F0"/>
<stop offset="1" stop-color="#2B5CA8"/>
</linearGradient>
<linearGradient id="paint36_linear" x1="0.000237346" y1="-32" x2="228" y2="196" gradientUnits="userSpaceOnUse">
<stop offset="0.03125" stop-color="#61A1F0"/>
<stop offset="1" stop-color="#2B5CA8"/>
</linearGradient>
<linearGradient id="paint37_linear" x1="0.000237346" y1="-32" x2="228" y2="196" gradientUnits="userSpaceOnUse">
<stop offset="0.03125" stop-color="#61A1F0"/>
<stop offset="1" stop-color="#2B5CA8"/>
</linearGradient>
<linearGradient id="paint38_linear" x1="0.000237346" y1="-32" x2="228" y2="196" gradientUnits="userSpaceOnUse">
<stop offset="0.03125" stop-color="#61A1F0"/>
<stop offset="1" stop-color="#2B5CA8"/>
</linearGradient>
<linearGradient id="paint39_linear" x1="0.000237346" y1="-32" x2="228" y2="196" gradientUnits="userSpaceOnUse">
<stop offset="0.03125" stop-color="#61A1F0"/>
<stop offset="1" stop-color="#2B5CA8"/>
</linearGradient>
<linearGradient id="paint40_linear" x1="0.000237346" y1="-32" x2="228" y2="196" gradientUnits="userSpaceOnUse">
<stop offset="0.03125" stop-color="#61A1F0"/>
<stop offset="1" stop-color="#2B5CA8"/>
</linearGradient>
<linearGradient id="paint41_linear" x1="0.000237346" y1="-32" x2="228" y2="196" gradientUnits="userSpaceOnUse">
<stop offset="0.03125" stop-color="#61A1F0"/>
<stop offset="1" stop-color="#2B5CA8"/>
</linearGradient>
<linearGradient id="paint42_linear" x1="0.000237346" y1="-32" x2="228" y2="196" gradientUnits="userSpaceOnUse">
<stop offset="0.03125" stop-color="#61A1F0"/>
<stop offset="1" stop-color="#2B5CA8"/>
</linearGradient>
<linearGradient id="paint43_linear" x1="0.000237346" y1="-32" x2="228" y2="196" gradientUnits="userSpaceOnUse">
<stop offset="0.03125" stop-color="#61A1F0"/>
<stop offset="1" stop-color="#2B5CA8"/>
</linearGradient>
<linearGradient id="paint44_linear" x1="0.000237346" y1="-32" x2="228" y2="196" gradientUnits="userSpaceOnUse">
<stop offset="0.03125" stop-color="#61A1F0"/>
<stop offset="1" stop-color="#2B5CA8"/>
</linearGradient>
<linearGradient id="paint45_linear" x1="0.000237346" y1="-32" x2="228" y2="196" gradientUnits="userSpaceOnUse">
<stop offset="0.03125" stop-color="#61A1F0"/>
<stop offset="1" stop-color="#2B5CA8"/>
</linearGradient>
<linearGradient id="paint46_linear" x1="0.000237346" y1="-32" x2="228" y2="196" gradientUnits="userSpaceOnUse">
<stop offset="0.03125" stop-color="#61A1F0"/>
<stop offset="1" stop-color="#2B5CA8"/>
</linearGradient>
<linearGradient id="paint47_linear" x1="0.000237346" y1="-32" x2="228" y2="196" gradientUnits="userSpaceOnUse">
<stop offset="0.03125" stop-color="#61A1F0"/>
<stop offset="1" stop-color="#2B5CA8"/>
</linearGradient>
<linearGradient id="paint48_linear" x1="0.000237346" y1="-32" x2="228" y2="196" gradientUnits="userSpaceOnUse">
<stop offset="0.03125" stop-color="#61A1F0"/>
<stop offset="1" stop-color="#2B5CA8"/>
</linearGradient>
<linearGradient id="paint49_linear" x1="0.000237346" y1="-32" x2="228" y2="196" gradientUnits="userSpaceOnUse">
<stop offset="0.03125" stop-color="#61A1F0"/>
<stop offset="1" stop-color="#2B5CA8"/>
</linearGradient>
<linearGradient id="paint50_linear" x1="0.000237346" y1="-32" x2="228" y2="196" gradientUnits="userSpaceOnUse">
<stop offset="0.03125" stop-color="#61A1F0"/>
<stop offset="1" stop-color="#2B5CA8"/>
</linearGradient>
<linearGradient id="paint51_linear" x1="0.000237346" y1="-32" x2="228" y2="196" gradientUnits="userSpaceOnUse">
<stop offset="0.03125" stop-color="#61A1F0"/>
<stop offset="1" stop-color="#2B5CA8"/>
</linearGradient>
<linearGradient id="paint52_linear" x1="0.000237346" y1="-32" x2="228" y2="196" gradientUnits="userSpaceOnUse">
<stop offset="0.03125" stop-color="#61A1F0"/>
<stop offset="1" stop-color="#2B5CA8"/>
</linearGradient>
<linearGradient id="paint53_linear" x1="0.000237346" y1="-32" x2="228" y2="196" gradientUnits="userSpaceOnUse">
<stop offset="0.03125" stop-color="#61A1F0"/>
<stop offset="1" stop-color="#2B5CA8"/>
</linearGradient>
<linearGradient id="paint54_linear" x1="0.000237346" y1="-32" x2="228" y2="196" gradientUnits="userSpaceOnUse">
<stop offset="0.03125" stop-color="#61A1F0"/>
<stop offset="1" stop-color="#2B5CA8"/>
</linearGradient>
<linearGradient id="paint55_linear" x1="0.000237346" y1="-32" x2="228" y2="196" gradientUnits="userSpaceOnUse">
<stop offset="0.03125" stop-color="#61A1F0"/>
<stop offset="1" stop-color="#2B5CA8"/>
</linearGradient>
<linearGradient id="paint56_linear" x1="0.000237346" y1="-32" x2="228" y2="196" gradientUnits="userSpaceOnUse">
<stop offset="0.03125" stop-color="#61A1F0"/>
<stop offset="1" stop-color="#2B5CA8"/>
</linearGradient>
<linearGradient id="paint57_linear" x1="0.000237346" y1="-32" x2="228" y2="196" gradientUnits="userSpaceOnUse">
<stop offset="0.03125" stop-color="#61A1F0"/>
<stop offset="1" stop-color="#2B5CA8"/>
</linearGradient>
<linearGradient id="paint58_linear" x1="0.000237346" y1="-32" x2="228" y2="196" gradientUnits="userSpaceOnUse">
<stop offset="0.03125" stop-color="#61A1F0"/>
<stop offset="1" stop-color="#2B5CA8"/>
</linearGradient>
<linearGradient id="paint59_linear" x1="0.000237346" y1="-32" x2="228" y2="196" gradientUnits="userSpaceOnUse">
<stop offset="0.03125" stop-color="#61A1F0"/>
<stop offset="1" stop-color="#2B5CA8"/>
</linearGradient>
<linearGradient id="paint60_linear" x1="0.000237346" y1="-32" x2="228" y2="196" gradientUnits="userSpaceOnUse">
<stop offset="0.03125" stop-color="#61A1F0"/>
<stop offset="1" stop-color="#2B5CA8"/>
</linearGradient>
<linearGradient id="paint61_linear" x1="0.000237346" y1="-32" x2="228" y2="196" gradientUnits="userSpaceOnUse">
<stop offset="0.03125" stop-color="#61A1F0"/>
<stop offset="1" stop-color="#2B5CA8"/>
</linearGradient>
<linearGradient id="paint62_linear" x1="0.000237346" y1="-32" x2="228" y2="196" gradientUnits="userSpaceOnUse">
<stop offset="0.03125" stop-color="#61A1F0"/>
<stop offset="1" stop-color="#2B5CA8"/>
</linearGradient>
<linearGradient id="paint63_linear" x1="0.000237346" y1="-32" x2="228" y2="196" gradientUnits="userSpaceOnUse">
<stop offset="0.03125" stop-color="#61A1F0"/>
<stop offset="1" stop-color="#2B5CA8"/>
</linearGradient>
<linearGradient id="paint64_linear" x1="0.000237346" y1="-32" x2="228" y2="196" gradientUnits="userSpaceOnUse">
<stop offset="0.03125" stop-color="#61A1F0"/>
<stop offset="1" stop-color="#2B5CA8"/>
</linearGradient>
<linearGradient id="paint65_linear" x1="0.000237346" y1="-32" x2="228" y2="196" gradientUnits="userSpaceOnUse">
<stop offset="0.03125" stop-color="#61A1F0"/>
<stop offset="1" stop-color="#2B5CA8"/>
</linearGradient>
<linearGradient id="paint66_linear" x1="0.000237346" y1="-32" x2="228" y2="196" gradientUnits="userSpaceOnUse">
<stop offset="0.03125" stop-color="#61A1F0"/>
<stop offset="1" stop-color="#2B5CA8"/>
</linearGradient>
<linearGradient id="paint67_linear" x1="0.000237346" y1="-32" x2="228" y2="196" gradientUnits="userSpaceOnUse">
<stop offset="0.03125" stop-color="#61A1F0"/>
<stop offset="1" stop-color="#2B5CA8"/>
</linearGradient>
<linearGradient id="paint68_linear" x1="0.000237346" y1="-32" x2="228" y2="196" gradientUnits="userSpaceOnUse">
<stop offset="0.03125" stop-color="#61A1F0"/>
<stop offset="1" stop-color="#2B5CA8"/>
</linearGradient>
<linearGradient id="paint69_linear" x1="0.000237346" y1="-32" x2="228" y2="196" gradientUnits="userSpaceOnUse">
<stop offset="0.03125" stop-color="#61A1F0"/>
<stop offset="1" stop-color="#2B5CA8"/>
</linearGradient>
<linearGradient id="paint70_linear" x1="0.000237346" y1="-32" x2="228" y2="196" gradientUnits="userSpaceOnUse">
<stop offset="0.03125" stop-color="#61A1F0"/>
<stop offset="1" stop-color="#2B5CA8"/>
</linearGradient>
<linearGradient id="paint71_linear" x1="0.000237346" y1="-32" x2="228" y2="196" gradientUnits="userSpaceOnUse">
<stop offset="0.03125" stop-color="#61A1F0"/>
<stop offset="1" stop-color="#2B5CA8"/>
</linearGradient>
<linearGradient id="paint72_linear" x1="0.000237346" y1="-32" x2="228" y2="196" gradientUnits="userSpaceOnUse">
<stop offset="0.03125" stop-color="#61A1F0"/>
<stop offset="1" stop-color="#2B5CA8"/>
</linearGradient>
<linearGradient id="paint73_linear" x1="0.000237346" y1="-32" x2="228" y2="196" gradientUnits="userSpaceOnUse">
<stop offset="0.03125" stop-color="#61A1F0"/>
<stop offset="1" stop-color="#2B5CA8"/>
</linearGradient>
<linearGradient id="paint74_linear" x1="0.000237346" y1="-32" x2="228" y2="196" gradientUnits="userSpaceOnUse">
<stop offset="0.03125" stop-color="#61A1F0"/>
<stop offset="1" stop-color="#2B5CA8"/>
</linearGradient>
<linearGradient id="paint75_linear" x1="0.000237346" y1="-32" x2="228" y2="196" gradientUnits="userSpaceOnUse">
<stop offset="0.03125" stop-color="#61A1F0"/>
<stop offset="1" stop-color="#2B5CA8"/>
</linearGradient>
<linearGradient id="paint76_linear" x1="0.000237346" y1="-32" x2="228" y2="196" gradientUnits="userSpaceOnUse">
<stop offset="0.03125" stop-color="#61A1F0"/>
<stop offset="1" stop-color="#2B5CA8"/>
</linearGradient>
<linearGradient id="paint77_linear" x1="0.000237346" y1="-32" x2="228" y2="196" gradientUnits="userSpaceOnUse">
<stop offset="0.03125" stop-color="#61A1F0"/>
<stop offset="1" stop-color="#2B5CA8"/>
</linearGradient>
<linearGradient id="paint78_linear" x1="0.000237346" y1="-32" x2="228" y2="196" gradientUnits="userSpaceOnUse">
<stop offset="0.03125" stop-color="#61A1F0"/>
<stop offset="1" stop-color="#2B5CA8"/>
</linearGradient>
<linearGradient id="paint79_linear" x1="0.000237346" y1="-32" x2="228" y2="196" gradientUnits="userSpaceOnUse">
<stop offset="0.03125" stop-color="#61A1F0"/>
<stop offset="1" stop-color="#2B5CA8"/>
</linearGradient>
<linearGradient id="paint80_linear" x1="0.000237346" y1="-32" x2="228" y2="196" gradientUnits="userSpaceOnUse">
<stop offset="0.03125" stop-color="#61A1F0"/>
<stop offset="1" stop-color="#2B5CA8"/>
</linearGradient>
<linearGradient id="paint81_linear" x1="0.000237346" y1="-32" x2="228" y2="196" gradientUnits="userSpaceOnUse">
<stop offset="0.03125" stop-color="#61A1F0"/>
<stop offset="1" stop-color="#2B5CA8"/>
</linearGradient>
<linearGradient id="paint82_linear" x1="0.000237346" y1="-32" x2="228" y2="196" gradientUnits="userSpaceOnUse">
<stop offset="0.03125" stop-color="#61A1F0"/>
<stop offset="1" stop-color="#2B5CA8"/>
</linearGradient>
<linearGradient id="paint83_linear" x1="0.000237346" y1="-32" x2="228" y2="196" gradientUnits="userSpaceOnUse">
<stop offset="0.03125" stop-color="#61A1F0"/>
<stop offset="1" stop-color="#2B5CA8"/>
</linearGradient>
<linearGradient id="paint84_linear" x1="0.000237346" y1="-32" x2="228" y2="196" gradientUnits="userSpaceOnUse">
<stop offset="0.03125" stop-color="#61A1F0"/>
<stop offset="1" stop-color="#2B5CA8"/>
</linearGradient>
<linearGradient id="paint85_linear" x1="0.000237346" y1="-32" x2="228" y2="196" gradientUnits="userSpaceOnUse">
<stop offset="0.03125" stop-color="#61A1F0"/>
<stop offset="1" stop-color="#2B5CA8"/>
</linearGradient>
<linearGradient id="paint86_linear" x1="0.000237346" y1="-32" x2="228" y2="196" gradientUnits="userSpaceOnUse">
<stop offset="0.03125" stop-color="#61A1F0"/>
<stop offset="1" stop-color="#2B5CA8"/>
</linearGradient>
<linearGradient id="paint87_linear" x1="0.000237346" y1="-32" x2="228" y2="196" gradientUnits="userSpaceOnUse">
<stop offset="0.03125" stop-color="#61A1F0"/>
<stop offset="1" stop-color="#2B5CA8"/>
</linearGradient>
<linearGradient id="paint88_linear" x1="0.000237346" y1="-32" x2="228" y2="196" gradientUnits="userSpaceOnUse">
<stop offset="0.03125" stop-color="#61A1F0"/>
<stop offset="1" stop-color="#2B5CA8"/>
</linearGradient>
<linearGradient id="paint89_linear" x1="0.000237346" y1="-32" x2="228" y2="196" gradientUnits="userSpaceOnUse">
<stop offset="0.03125" stop-color="#61A1F0"/>
<stop offset="1" stop-color="#2B5CA8"/>
</linearGradient>
<linearGradient id="paint90_linear" x1="0.000237346" y1="-32" x2="228" y2="196" gradientUnits="userSpaceOnUse">
<stop offset="0.03125" stop-color="#61A1F0"/>
<stop offset="1" stop-color="#2B5CA8"/>
</linearGradient>
<linearGradient id="paint91_linear" x1="0.000237346" y1="-32" x2="228" y2="196" gradientUnits="userSpaceOnUse">
<stop offset="0.03125" stop-color="#61A1F0"/>
<stop offset="1" stop-color="#2B5CA8"/>
</linearGradient>
<linearGradient id="paint92_linear" x1="0.000237346" y1="-32" x2="228" y2="196" gradientUnits="userSpaceOnUse">
<stop offset="0.03125" stop-color="#61A1F0"/>
<stop offset="1" stop-color="#2B5CA8"/>
</linearGradient>
<linearGradient id="paint93_linear" x1="0.000237346" y1="-32" x2="228" y2="196" gradientUnits="userSpaceOnUse">
<stop offset="0.03125" stop-color="#61A1F0"/>
<stop offset="1" stop-color="#2B5CA8"/>
</linearGradient>
<linearGradient id="paint94_linear" x1="0.000237346" y1="-32" x2="228" y2="196" gradientUnits="userSpaceOnUse">
<stop offset="0.03125" stop-color="#61A1F0"/>
<stop offset="1" stop-color="#2B5CA8"/>
</linearGradient>
<linearGradient id="paint95_linear" x1="0.000237346" y1="-32" x2="228" y2="196" gradientUnits="userSpaceOnUse">
<stop offset="0.03125" stop-color="#61A1F0"/>
<stop offset="1" stop-color="#2B5CA8"/>
</linearGradient>
<linearGradient id="paint96_linear" x1="0.000237346" y1="-32" x2="228" y2="196" gradientUnits="userSpaceOnUse">
<stop offset="0.03125" stop-color="#61A1F0"/>
<stop offset="1" stop-color="#2B5CA8"/>
</linearGradient>
<linearGradient id="paint97_linear" x1="0.000237346" y1="-32" x2="228" y2="196" gradientUnits="userSpaceOnUse">
<stop offset="0.03125" stop-color="#61A1F0"/>
<stop offset="1" stop-color="#2B5CA8"/>
</linearGradient>
<linearGradient id="paint98_linear" x1="0.000237346" y1="-32" x2="228" y2="196" gradientUnits="userSpaceOnUse">
<stop offset="0.03125" stop-color="#61A1F0"/>
<stop offset="1" stop-color="#2B5CA8"/>
</linearGradient>
<linearGradient id="paint99_linear" x1="0.000237346" y1="-32" x2="228" y2="196" gradientUnits="userSpaceOnUse">
<stop offset="0.03125" stop-color="#61A1F0"/>
<stop offset="1" stop-color="#2B5CA8"/>
</linearGradient>
<linearGradient id="paint100_linear" x1="0.000237346" y1="-32" x2="228" y2="196" gradientUnits="userSpaceOnUse">
<stop offset="0.03125" stop-color="#61A1F0"/>
<stop offset="1" stop-color="#2B5CA8"/>
</linearGradient>
<linearGradient id="paint101_linear" x1="0.000237346" y1="-32" x2="228" y2="196" gradientUnits="userSpaceOnUse">
<stop offset="0.03125" stop-color="#61A1F0"/>
<stop offset="1" stop-color="#2B5CA8"/>
</linearGradient>
<linearGradient id="paint102_linear" x1="0.000237346" y1="-32" x2="228" y2="196" gradientUnits="userSpaceOnUse">
<stop offset="0.03125" stop-color="#61A1F0"/>
<stop offset="1" stop-color="#2B5CA8"/>
</linearGradient>
<linearGradient id="paint103_linear" x1="0.000237346" y1="-32" x2="228" y2="196" gradientUnits="userSpaceOnUse">
<stop offset="0.03125" stop-color="#61A1F0"/>
<stop offset="1" stop-color="#2B5CA8"/>
</linearGradient>
<linearGradient id="paint104_linear" x1="0.000237346" y1="-32" x2="228" y2="196" gradientUnits="userSpaceOnUse">
<stop offset="0.03125" stop-color="#61A1F0"/>
<stop offset="1" stop-color="#2B5CA8"/>
</linearGradient>
<linearGradient id="paint105_linear" x1="0.000237346" y1="-32" x2="228" y2="196" gradientUnits="userSpaceOnUse">
<stop offset="0.03125" stop-color="#61A1F0"/>
<stop offset="1" stop-color="#2B5CA8"/>
</linearGradient>
<linearGradient id="paint106_linear" x1="0.000237346" y1="-32" x2="228" y2="196" gradientUnits="userSpaceOnUse">
<stop offset="0.03125" stop-color="#61A1F0"/>
<stop offset="1" stop-color="#2B5CA8"/>
</linearGradient>
<linearGradient id="paint107_linear" x1="0.000237346" y1="-32" x2="228" y2="196" gradientUnits="userSpaceOnUse">
<stop offset="0.03125" stop-color="#61A1F0"/>
<stop offset="1" stop-color="#2B5CA8"/>
</linearGradient>
<linearGradient id="paint108_linear" x1="0.000237346" y1="-32" x2="228" y2="196" gradientUnits="userSpaceOnUse">
<stop offset="0.03125" stop-color="#61A1F0"/>
<stop offset="1" stop-color="#2B5CA8"/>
</linearGradient>
<linearGradient id="paint109_linear" x1="0.000237346" y1="-32" x2="228" y2="196" gradientUnits="userSpaceOnUse">
<stop offset="0.03125" stop-color="#61A1F0"/>
<stop offset="1" stop-color="#2B5CA8"/>
</linearGradient>
<linearGradient id="paint110_linear" x1="0.000237346" y1="-32" x2="228" y2="196" gradientUnits="userSpaceOnUse">
<stop offset="0.03125" stop-color="#61A1F0"/>
<stop offset="1" stop-color="#2B5CA8"/>
</linearGradient>
<linearGradient id="paint111_linear" x1="0.000237346" y1="-32" x2="228" y2="196" gradientUnits="userSpaceOnUse">
<stop offset="0.03125" stop-color="#61A1F0"/>
<stop offset="1" stop-color="#2B5CA8"/>
</linearGradient>
<linearGradient id="paint112_linear" x1="0.000237346" y1="-32" x2="228" y2="196" gradientUnits="userSpaceOnUse">
<stop offset="0.03125" stop-color="#61A1F0"/>
<stop offset="1" stop-color="#2B5CA8"/>
</linearGradient>
<linearGradient id="paint113_linear" x1="0.000237346" y1="-32" x2="228" y2="196" gradientUnits="userSpaceOnUse">
<stop offset="0.03125" stop-color="#61A1F0"/>
<stop offset="1" stop-color="#2B5CA8"/>
</linearGradient>
<linearGradient id="paint114_linear" x1="0.000237346" y1="-32" x2="228" y2="196" gradientUnits="userSpaceOnUse">
<stop offset="0.03125" stop-color="#61A1F0"/>
<stop offset="1" stop-color="#2B5CA8"/>
</linearGradient>
<linearGradient id="paint115_linear" x1="0.000237346" y1="-32" x2="228" y2="196" gradientUnits="userSpaceOnUse">
<stop offset="0.03125" stop-color="#61A1F0"/>
<stop offset="1" stop-color="#2B5CA8"/>
</linearGradient>
<linearGradient id="paint116_linear" x1="0.000237346" y1="-32" x2="228" y2="196" gradientUnits="userSpaceOnUse">
<stop offset="0.03125" stop-color="#61A1F0"/>
<stop offset="1" stop-color="#2B5CA8"/>
</linearGradient>
<linearGradient id="paint117_linear" x1="0.000237346" y1="-32" x2="228" y2="196" gradientUnits="userSpaceOnUse">
<stop offset="0.03125" stop-color="#61A1F0"/>
<stop offset="1" stop-color="#2B5CA8"/>
</linearGradient>
<linearGradient id="paint118_linear" x1="0.000237346" y1="-32" x2="228" y2="196" gradientUnits="userSpaceOnUse">
<stop offset="0.03125" stop-color="#61A1F0"/>
<stop offset="1" stop-color="#2B5CA8"/>
</linearGradient>
<linearGradient id="paint119_linear" x1="0.000237346" y1="-32" x2="228" y2="196" gradientUnits="userSpaceOnUse">
<stop offset="0.03125" stop-color="#61A1F0"/>
<stop offset="1" stop-color="#2B5CA8"/>
</linearGradient>
<linearGradient id="paint120_linear" x1="0.000237346" y1="-32" x2="228" y2="196" gradientUnits="userSpaceOnUse">
<stop offset="0.03125" stop-color="#61A1F0"/>
<stop offset="1" stop-color="#2B5CA8"/>
</linearGradient>
<linearGradient id="paint121_linear" x1="0.000237346" y1="-32" x2="228" y2="196" gradientUnits="userSpaceOnUse">
<stop offset="0.03125" stop-color="#61A1F0"/>
<stop offset="1" stop-color="#2B5CA8"/>
</linearGradient>
<linearGradient id="paint122_linear" x1="0.000237346" y1="-32" x2="228" y2="196" gradientUnits="userSpaceOnUse">
<stop offset="0.03125" stop-color="#61A1F0"/>
<stop offset="1" stop-color="#2B5CA8"/>
</linearGradient>
<linearGradient id="paint123_linear" x1="0.000237346" y1="-32" x2="228" y2="196" gradientUnits="userSpaceOnUse">
<stop offset="0.03125" stop-color="#61A1F0"/>
<stop offset="1" stop-color="#2B5CA8"/>
</linearGradient>
<linearGradient id="paint124_linear" x1="0.000237346" y1="-32" x2="228" y2="196" gradientUnits="userSpaceOnUse">
<stop offset="0.03125" stop-color="#61A1F0"/>
<stop offset="1" stop-color="#2B5CA8"/>
</linearGradient>
<linearGradient id="paint125_linear" x1="0.000237346" y1="-32" x2="228" y2="196" gradientUnits="userSpaceOnUse">
<stop offset="0.03125" stop-color="#61A1F0"/>
<stop offset="1" stop-color="#2B5CA8"/>
</linearGradient>
<linearGradient id="paint126_linear" x1="0.000237346" y1="-32" x2="228" y2="196" gradientUnits="userSpaceOnUse">
<stop offset="0.03125" stop-color="#61A1F0"/>
<stop offset="1" stop-color="#2B5CA8"/>
</linearGradient>
<linearGradient id="paint127_linear" x1="0.000237346" y1="-32" x2="228" y2="196" gradientUnits="userSpaceOnUse">
<stop offset="0.03125" stop-color="#61A1F0"/>
<stop offset="1" stop-color="#2B5CA8"/>
</linearGradient>
<linearGradient id="paint128_linear" x1="0.000237346" y1="-32" x2="228" y2="196" gradientUnits="userSpaceOnUse">
<stop offset="0.03125" stop-color="#61A1F0"/>
<stop offset="1" stop-color="#2B5CA8"/>
</linearGradient>
<linearGradient id="paint129_linear" x1="0.000237346" y1="-32" x2="228" y2="196" gradientUnits="userSpaceOnUse">
<stop offset="0.03125" stop-color="#61A1F0"/>
<stop offset="1" stop-color="#2B5CA8"/>
</linearGradient>
<linearGradient id="paint130_linear" x1="0.000237346" y1="-32" x2="228" y2="196" gradientUnits="userSpaceOnUse">
<stop offset="0.03125" stop-color="#61A1F0"/>
<stop offset="1" stop-color="#2B5CA8"/>
</linearGradient>
<linearGradient id="paint131_linear" x1="0.000237346" y1="-32" x2="228" y2="196" gradientUnits="userSpaceOnUse">
<stop offset="0.03125" stop-color="#61A1F0"/>
<stop offset="1" stop-color="#2B5CA8"/>
</linearGradient>
<linearGradient id="paint132_linear" x1="0.000237346" y1="-32" x2="228" y2="196" gradientUnits="userSpaceOnUse">
<stop offset="0.03125" stop-color="#61A1F0"/>
<stop offset="1" stop-color="#2B5CA8"/>
</linearGradient>
<linearGradient id="paint133_linear" x1="0.000237346" y1="-32" x2="228" y2="196" gradientUnits="userSpaceOnUse">
<stop offset="0.03125" stop-color="#61A1F0"/>
<stop offset="1" stop-color="#2B5CA8"/>
</linearGradient>
<linearGradient id="paint134_linear" x1="0.000237346" y1="-32" x2="228" y2="196" gradientUnits="userSpaceOnUse">
<stop offset="0.03125" stop-color="#61A1F0"/>
<stop offset="1" stop-color="#2B5CA8"/>
</linearGradient>
<linearGradient id="paint135_linear" x1="0.000237346" y1="-32" x2="228" y2="196" gradientUnits="userSpaceOnUse">
<stop offset="0.03125" stop-color="#61A1F0"/>
<stop offset="1" stop-color="#2B5CA8"/>
</linearGradient>
<linearGradient id="paint136_linear" x1="0.000237346" y1="-32" x2="228" y2="196" gradientUnits="userSpaceOnUse">
<stop offset="0.03125" stop-color="#61A1F0"/>
<stop offset="1" stop-color="#2B5CA8"/>
</linearGradient>
<linearGradient id="paint137_linear" x1="0.000237346" y1="-32" x2="228" y2="196" gradientUnits="userSpaceOnUse">
<stop offset="0.03125" stop-color="#61A1F0"/>
<stop offset="1" stop-color="#2B5CA8"/>
</linearGradient>
<linearGradient id="paint138_linear" x1="0.000237346" y1="-32" x2="228" y2="196" gradientUnits="userSpaceOnUse">
<stop offset="0.03125" stop-color="#61A1F0"/>
<stop offset="1" stop-color="#2B5CA8"/>
</linearGradient>
<linearGradient id="paint139_linear" x1="0.000237346" y1="-32" x2="228" y2="196" gradientUnits="userSpaceOnUse">
<stop offset="0.03125" stop-color="#61A1F0"/>
<stop offset="1" stop-color="#2B5CA8"/>
</linearGradient>
<linearGradient id="paint140_linear" x1="0.000237346" y1="-32" x2="228" y2="196" gradientUnits="userSpaceOnUse">
<stop offset="0.03125" stop-color="#61A1F0"/>
<stop offset="1" stop-color="#2B5CA8"/>
</linearGradient>
<linearGradient id="paint141_linear" x1="0.000237346" y1="-32" x2="228" y2="196" gradientUnits="userSpaceOnUse">
<stop offset="0.03125" stop-color="#61A1F0"/>
<stop offset="1" stop-color="#2B5CA8"/>
</linearGradient>
<linearGradient id="paint142_linear" x1="0.000237346" y1="-32" x2="228" y2="196" gradientUnits="userSpaceOnUse">
<stop offset="0.03125" stop-color="#61A1F0"/>
<stop offset="1" stop-color="#2B5CA8"/>
</linearGradient>
<linearGradient id="paint143_linear" x1="0.000237346" y1="-32" x2="228" y2="196" gradientUnits="userSpaceOnUse">
<stop offset="0.03125" stop-color="#61A1F0"/>
<stop offset="1" stop-color="#2B5CA8"/>
</linearGradient>
<linearGradient id="paint144_linear" x1="0.000237346" y1="-32" x2="228" y2="196" gradientUnits="userSpaceOnUse">
<stop offset="0.03125" stop-color="#61A1F0"/>
<stop offset="1" stop-color="#2B5CA8"/>
</linearGradient>
<linearGradient id="paint145_linear" x1="0.000237346" y1="-32" x2="228" y2="196" gradientUnits="userSpaceOnUse">
<stop offset="0.03125" stop-color="#61A1F0"/>
<stop offset="1" stop-color="#2B5CA8"/>
</linearGradient>
<linearGradient id="paint146_linear" x1="0.000237346" y1="-32" x2="228" y2="196" gradientUnits="userSpaceOnUse">
<stop offset="0.03125" stop-color="#61A1F0"/>
<stop offset="1" stop-color="#2B5CA8"/>
</linearGradient>
<linearGradient id="paint147_linear" x1="0.000237346" y1="-32" x2="228" y2="196" gradientUnits="userSpaceOnUse">
<stop offset="0.03125" stop-color="#61A1F0"/>
<stop offset="1" stop-color="#2B5CA8"/>
</linearGradient>
<linearGradient id="paint148_linear" x1="0.000237346" y1="-32" x2="228" y2="196" gradientUnits="userSpaceOnUse">
<stop offset="0.03125" stop-color="#61A1F0"/>
<stop offset="1" stop-color="#2B5CA8"/>
</linearGradient>
<linearGradient id="paint149_linear" x1="0.000237346" y1="-32" x2="228" y2="196" gradientUnits="userSpaceOnUse">
<stop offset="0.03125" stop-color="#61A1F0"/>
<stop offset="1" stop-color="#2B5CA8"/>
</linearGradient>
<linearGradient id="paint150_linear" x1="0.000237346" y1="-32" x2="228" y2="196" gradientUnits="userSpaceOnUse">
<stop offset="0.03125" stop-color="#61A1F0"/>
<stop offset="1" stop-color="#2B5CA8"/>
</linearGradient>
<linearGradient id="paint151_linear" x1="0.000237346" y1="-32" x2="228" y2="196" gradientUnits="userSpaceOnUse">
<stop offset="0.03125" stop-color="#61A1F0"/>
<stop offset="1" stop-color="#2B5CA8"/>
</linearGradient>
<linearGradient id="paint152_linear" x1="0.000237346" y1="-32" x2="228" y2="196" gradientUnits="userSpaceOnUse">
<stop offset="0.03125" stop-color="#61A1F0"/>
<stop offset="1" stop-color="#2B5CA8"/>
</linearGradient>
<linearGradient id="paint153_linear" x1="0.000237346" y1="-32" x2="228" y2="196" gradientUnits="userSpaceOnUse">
<stop offset="0.03125" stop-color="#61A1F0"/>
<stop offset="1" stop-color="#2B5CA8"/>
</linearGradient>
<linearGradient id="paint154_linear" x1="0.000237346" y1="-32" x2="228" y2="196" gradientUnits="userSpaceOnUse">
<stop offset="0.03125" stop-color="#61A1F0"/>
<stop offset="1" stop-color="#2B5CA8"/>
</linearGradient>
<linearGradient id="paint155_linear" x1="0.000237346" y1="-32" x2="228" y2="196" gradientUnits="userSpaceOnUse">
<stop offset="0.03125" stop-color="#61A1F0"/>
<stop offset="1" stop-color="#2B5CA8"/>
</linearGradient>
<linearGradient id="paint156_linear" x1="0.000237346" y1="-32" x2="228" y2="196" gradientUnits="userSpaceOnUse">
<stop offset="0.03125" stop-color="#61A1F0"/>
<stop offset="1" stop-color="#2B5CA8"/>
</linearGradient>
<linearGradient id="paint157_linear" x1="0.000237346" y1="-32" x2="228" y2="196" gradientUnits="userSpaceOnUse">
<stop offset="0.03125" stop-color="#61A1F0"/>
<stop offset="1" stop-color="#2B5CA8"/>
</linearGradient>
<linearGradient id="paint158_linear" x1="0.000237346" y1="-32" x2="228" y2="196" gradientUnits="userSpaceOnUse">
<stop offset="0.03125" stop-color="#61A1F0"/>
<stop offset="1" stop-color="#2B5CA8"/>
</linearGradient>
<linearGradient id="paint159_linear" x1="0.000237346" y1="-32" x2="228" y2="196" gradientUnits="userSpaceOnUse">
<stop offset="0.03125" stop-color="#61A1F0"/>
<stop offset="1" stop-color="#2B5CA8"/>
</linearGradient>
<linearGradient id="paint160_linear" x1="0.000237346" y1="-32" x2="228" y2="196" gradientUnits="userSpaceOnUse">
<stop offset="0.03125" stop-color="#61A1F0"/>
<stop offset="1" stop-color="#2B5CA8"/>
</linearGradient>
<linearGradient id="paint161_linear" x1="0.000237346" y1="-32" x2="228" y2="196" gradientUnits="userSpaceOnUse">
<stop offset="0.03125" stop-color="#61A1F0"/>
<stop offset="1" stop-color="#2B5CA8"/>
</linearGradient>
<linearGradient id="paint162_linear" x1="0.000237346" y1="-32" x2="228" y2="196" gradientUnits="userSpaceOnUse">
<stop offset="0.03125" stop-color="#61A1F0"/>
<stop offset="1" stop-color="#2B5CA8"/>
</linearGradient>
<linearGradient id="paint163_linear" x1="0.000237346" y1="-32" x2="228" y2="196" gradientUnits="userSpaceOnUse">
<stop offset="0.03125" stop-color="#61A1F0"/>
<stop offset="1" stop-color="#2B5CA8"/>
</linearGradient>
<linearGradient id="paint164_linear" x1="0.000237346" y1="-32" x2="228" y2="196" gradientUnits="userSpaceOnUse">
<stop offset="0.03125" stop-color="#61A1F0"/>
<stop offset="1" stop-color="#2B5CA8"/>
</linearGradient>
<linearGradient id="paint165_linear" x1="0.000237346" y1="-32" x2="228" y2="196" gradientUnits="userSpaceOnUse">
<stop offset="0.03125" stop-color="#61A1F0"/>
<stop offset="1" stop-color="#2B5CA8"/>
</linearGradient>
<linearGradient id="paint166_linear" x1="0.000237346" y1="-32" x2="228" y2="196" gradientUnits="userSpaceOnUse">
<stop offset="0.03125" stop-color="#61A1F0"/>
<stop offset="1" stop-color="#2B5CA8"/>
</linearGradient>
<linearGradient id="paint167_linear" x1="0.000237346" y1="-32" x2="228" y2="196" gradientUnits="userSpaceOnUse">
<stop offset="0.03125" stop-color="#61A1F0"/>
<stop offset="1" stop-color="#2B5CA8"/>
</linearGradient>
<linearGradient id="paint168_linear" x1="0.000237346" y1="-32" x2="228" y2="196" gradientUnits="userSpaceOnUse">
<stop offset="0.03125" stop-color="#61A1F0"/>
<stop offset="1" stop-color="#2B5CA8"/>
</linearGradient>
<linearGradient id="paint169_linear" x1="0.000237346" y1="-32" x2="228" y2="196" gradientUnits="userSpaceOnUse">
<stop offset="0.03125" stop-color="#61A1F0"/>
<stop offset="1" stop-color="#2B5CA8"/>
</linearGradient>
<linearGradient id="paint170_linear" x1="0.000237346" y1="-32" x2="228" y2="196" gradientUnits="userSpaceOnUse">
<stop offset="0.03125" stop-color="#61A1F0"/>
<stop offset="1" stop-color="#2B5CA8"/>
</linearGradient>
<linearGradient id="paint171_linear" x1="0.000237346" y1="-32" x2="228" y2="196" gradientUnits="userSpaceOnUse">
<stop offset="0.03125" stop-color="#61A1F0"/>
<stop offset="1" stop-color="#2B5CA8"/>
</linearGradient>
<linearGradient id="paint172_linear" x1="0.000237346" y1="-32" x2="228" y2="196" gradientUnits="userSpaceOnUse">
<stop offset="0.03125" stop-color="#61A1F0"/>
<stop offset="1" stop-color="#2B5CA8"/>
</linearGradient>
<linearGradient id="paint173_linear" x1="0.000237346" y1="-32" x2="228" y2="196" gradientUnits="userSpaceOnUse">
<stop offset="0.03125" stop-color="#61A1F0"/>
<stop offset="1" stop-color="#2B5CA8"/>
</linearGradient>
<linearGradient id="paint174_linear" x1="0.000237346" y1="-32" x2="228" y2="196" gradientUnits="userSpaceOnUse">
<stop offset="0.03125" stop-color="#61A1F0"/>
<stop offset="1" stop-color="#2B5CA8"/>
</linearGradient>
<linearGradient id="paint175_linear" x1="0.000237346" y1="-32" x2="228" y2="196" gradientUnits="userSpaceOnUse">
<stop offset="0.03125" stop-color="#61A1F0"/>
<stop offset="1" stop-color="#2B5CA8"/>
</linearGradient>
<linearGradient id="paint176_linear" x1="0.000237346" y1="-32" x2="228" y2="196" gradientUnits="userSpaceOnUse">
<stop offset="0.03125" stop-color="#61A1F0"/>
<stop offset="1" stop-color="#2B5CA8"/>
</linearGradient>
<linearGradient id="paint177_linear" x1="0.000237346" y1="-32" x2="228" y2="196" gradientUnits="userSpaceOnUse">
<stop offset="0.03125" stop-color="#61A1F0"/>
<stop offset="1" stop-color="#2B5CA8"/>
</linearGradient>
<linearGradient id="paint178_linear" x1="0.000237346" y1="-32" x2="228" y2="196" gradientUnits="userSpaceOnUse">
<stop offset="0.03125" stop-color="#61A1F0"/>
<stop offset="1" stop-color="#2B5CA8"/>
</linearGradient>
<linearGradient id="paint179_linear" x1="0.000237346" y1="-32" x2="228" y2="196" gradientUnits="userSpaceOnUse">
<stop offset="0.03125" stop-color="#61A1F0"/>
<stop offset="1" stop-color="#2B5CA8"/>
</linearGradient>
<linearGradient id="paint180_linear" x1="0.000237346" y1="-32" x2="228" y2="196" gradientUnits="userSpaceOnUse">
<stop offset="0.03125" stop-color="#61A1F0"/>
<stop offset="1" stop-color="#2B5CA8"/>
</linearGradient>
<linearGradient id="paint181_linear" x1="0.000237346" y1="-32" x2="228" y2="196" gradientUnits="userSpaceOnUse">
<stop offset="0.03125" stop-color="#61A1F0"/>
<stop offset="1" stop-color="#2B5CA8"/>
</linearGradient>
<linearGradient id="paint182_linear" x1="0.000237346" y1="-32" x2="228" y2="196" gradientUnits="userSpaceOnUse">
<stop offset="0.03125" stop-color="#61A1F0"/>
<stop offset="1" stop-color="#2B5CA8"/>
</linearGradient>
<linearGradient id="paint183_linear" x1="0.000237346" y1="-32" x2="228" y2="196" gradientUnits="userSpaceOnUse">
<stop offset="0.03125" stop-color="#61A1F0"/>
<stop offset="1" stop-color="#2B5CA8"/>
</linearGradient>
<linearGradient id="paint184_linear" x1="0.000237346" y1="-32" x2="228" y2="196" gradientUnits="userSpaceOnUse">
<stop offset="0.03125" stop-color="#61A1F0"/>
<stop offset="1" stop-color="#2B5CA8"/>
</linearGradient>
<linearGradient id="paint185_linear" x1="0.000237346" y1="-32" x2="228" y2="196" gradientUnits="userSpaceOnUse">
<stop offset="0.03125" stop-color="#61A1F0"/>
<stop offset="1" stop-color="#2B5CA8"/>
</linearGradient>
<linearGradient id="paint186_linear" x1="0.000237346" y1="-32" x2="228" y2="196" gradientUnits="userSpaceOnUse">
<stop offset="0.03125" stop-color="#61A1F0"/>
<stop offset="1" stop-color="#2B5CA8"/>
</linearGradient>
<linearGradient id="paint187_linear" x1="0.000237346" y1="-32" x2="228" y2="196" gradientUnits="userSpaceOnUse">
<stop offset="0.03125" stop-color="#61A1F0"/>
<stop offset="1" stop-color="#2B5CA8"/>
</linearGradient>
<linearGradient id="paint188_linear" x1="0.000237346" y1="-32" x2="228" y2="196" gradientUnits="userSpaceOnUse">
<stop offset="0.03125" stop-color="#61A1F0"/>
<stop offset="1" stop-color="#2B5CA8"/>
</linearGradient>
<linearGradient id="paint189_linear" x1="0.000237346" y1="-32" x2="228" y2="196" gradientUnits="userSpaceOnUse">
<stop offset="0.03125" stop-color="#61A1F0"/>
<stop offset="1" stop-color="#2B5CA8"/>
</linearGradient>
<linearGradient id="paint190_linear" x1="0.000237346" y1="-32" x2="228" y2="196" gradientUnits="userSpaceOnUse">
<stop offset="0.03125" stop-color="#61A1F0"/>
<stop offset="1" stop-color="#2B5CA8"/>
</linearGradient>
<linearGradient id="paint191_linear" x1="0.000237346" y1="-32" x2="228" y2="196" gradientUnits="userSpaceOnUse">
<stop offset="0.03125" stop-color="#61A1F0"/>
<stop offset="1" stop-color="#2B5CA8"/>
</linearGradient>
<linearGradient id="paint192_linear" x1="0.000237346" y1="-32" x2="228" y2="196" gradientUnits="userSpaceOnUse">
<stop offset="0.03125" stop-color="#61A1F0"/>
<stop offset="1" stop-color="#2B5CA8"/>
</linearGradient>
<linearGradient id="paint193_linear" x1="0.000237346" y1="-32" x2="228" y2="196" gradientUnits="userSpaceOnUse">
<stop offset="0.03125" stop-color="#61A1F0"/>
<stop offset="1" stop-color="#2B5CA8"/>
</linearGradient>
<linearGradient id="paint194_linear" x1="0.000237346" y1="-32" x2="228" y2="196" gradientUnits="userSpaceOnUse">
<stop offset="0.03125" stop-color="#61A1F0"/>
<stop offset="1" stop-color="#2B5CA8"/>
</linearGradient>
</defs>
</svg>
