<svg width="120" height="36" viewBox="0 0 120 36" fill="none" xmlns="http://www.w3.org/2000/svg">
<path d="M110.444 0H9.56145C9.19372 0 8.8304 2.09547e-10 8.46364 0.00191699C8.15663 0.00371699 7.85207 0.00894597 7.54211 0.013347C6.86874 0.0204586 6.19695 0.0736254 5.53259 0.172385C4.86915 0.273295 4.2265 0.46354 3.62637 0.736684C3.02697 1.01214 2.47929 1.37006 2.00318 1.79747C1.52457 2.22368 1.12561 2.71632 0.82165 3.25645C0.516847 3.7955 0.305496 4.37315 0.194896 4.96943C0.083244 5.56497 0.0231632 6.16737 0.0151925 6.77123C0.00588648 7.04717 0.00490373 7.32402 0 7.6V28.4028C0.00490373 28.6822 0.00588648 28.9529 0.0151925 29.2325C0.0231657 29.8363 0.0832464 30.4387 0.194896 31.0342C0.30519 31.6308 0.516554 32.2088 0.82165 32.748C1.12548 33.2864 1.52449 33.7771 2.00318 34.2009C2.47748 34.6302 3.02552 34.9884 3.62637 35.2617C4.2265 35.5356 4.86908 35.727 5.53259 35.8294C6.19707 35.9274 6.86879 35.9806 7.54211 35.9886C7.85207 35.9947 8.15663 35.9982 8.46364 35.9982C8.83039 36 9.19374 36 9.56145 36H110.444C110.804 36 111.171 36 111.531 35.9982C111.837 35.9982 112.15 35.9947 112.455 35.9886C113.128 35.981 113.798 35.9278 114.461 35.8294C115.127 35.7263 115.772 35.5349 116.375 35.2617C116.975 34.9882 117.522 34.6301 117.996 34.2009C118.474 33.7754 118.874 33.2851 119.181 32.748C119.484 32.2084 119.693 31.6305 119.802 31.0342C119.914 30.4386 119.976 29.8364 119.988 29.2325C119.992 28.9529 119.992 28.6822 119.992 28.4028C120 28.0758 120 27.7506 120 27.4183V8.58261C120 8.25302 120 7.92607 119.992 7.6C119.992 7.32402 119.992 7.04717 119.988 6.77119C119.976 6.16728 119.914 5.56501 119.802 4.9694C119.693 4.37346 119.484 3.79586 119.181 3.25641C118.562 2.17379 117.581 1.29254 116.375 0.736603C115.772 0.464126 115.127 0.273932 114.461 0.172304C113.798 0.0731093 113.128 0.0199239 112.455 0.013221C112.15 0.00882897 111.837 0.00355499 111.531 0.00179999C111.171 0 110.804 0 110.444 0Z" fill="#A6A6A6"/>
<path d="M8.46844 35.2125C8.16291 35.2125 7.86475 35.209 7.56161 35.2029C6.93364 35.1955 6.30713 35.1465 5.68723 35.0561C5.1092 34.9667 4.54925 34.8005 4.02584 34.563C3.50723 34.3274 3.03421 34.0184 2.62491 33.648C2.20969 33.282 1.864 32.8574 1.60154 32.3912C1.33619 31.9219 1.15255 31.4189 1.05701 30.8997C0.95385 30.3418 0.898034 29.7777 0.890047 29.2122C0.88369 29.0224 0.875366 28.3904 0.875366 28.3904V7.59998C0.875366 7.59998 0.884231 6.97771 0.890097 6.7949C0.897745 6.23031 0.953236 5.66707 1.05609 5.11004C1.1518 4.58941 1.33558 4.08496 1.60108 3.61416C1.86257 3.14824 2.20635 2.72337 2.61907 2.356C3.03132 1.98515 3.50585 1.67464 4.02534 1.43578C4.54755 1.19898 5.10645 1.03396 5.68331 0.94624C6.30524 0.85495 6.93393 0.805594 7.56408 0.798587L8.46893 0.787598H111.526L112.442 0.799028C113.066 0.805687 113.689 0.854602 114.305 0.945358C114.888 1.03417 115.453 1.20035 115.981 1.43842C117.022 1.91978 117.868 2.68134 118.403 3.61635C118.664 4.08391 118.845 4.58424 118.939 5.10037C119.043 5.66197 119.102 6.22964 119.114 6.79886C119.117 7.05374 119.117 7.32752 119.117 7.59998C119.124 7.93748 119.124 8.25872 119.124 8.58259V27.4183C119.124 27.7453 119.124 28.0644 119.117 28.386C119.117 28.6787 119.117 28.9468 119.113 29.2227C119.101 29.7818 119.044 30.3393 118.941 30.8909C118.848 31.4138 118.665 31.9208 118.4 32.3939C118.135 32.8551 117.792 33.2759 117.381 33.641C116.972 34.0134 116.498 34.3241 115.978 34.5613C115.451 34.8006 114.887 34.9675 114.305 35.0561C113.685 35.1469 113.059 35.196 112.431 35.2029C112.137 35.209 111.83 35.2125 111.531 35.2125L110.444 35.2143L8.46844 35.2125Z" fill="black"/>
<path d="M24.8386 18.2706C24.8605 16.7438 25.7524 15.3334 27.2018 14.5337C26.2833 13.3564 24.8 12.6368 23.1994 12.5918C21.5155 12.4332 19.8829 13.4962 19.0248 13.4962C18.1501 13.4962 16.8289 12.6076 15.4062 12.6338C13.5343 12.6881 11.8315 13.6201 10.9207 15.0889C8.9813 18.1025 10.4279 22.5314 12.2857 24.9674C13.2152 26.1602 14.3016 27.4926 15.723 27.4453C17.114 27.3935 17.6334 26.6493 19.3124 26.6493C20.9759 26.6493 21.4633 27.4453 22.9135 27.4153C24.4061 27.3935 25.3465 26.2172 26.2434 25.0131C26.9112 24.1631 27.4251 23.2238 27.766 22.2298C25.9933 21.5569 24.8407 19.998 24.8386 18.2706Z" fill="white"/>
<path d="M22.0992 10.9898C22.913 10.113 23.3139 8.98607 23.2168 7.84827C21.9735 7.96546 20.825 8.49877 20.0002 9.34191C19.1858 10.1738 18.7732 11.2621 18.8533 12.3672C20.1133 12.3788 21.3096 11.8711 22.0992 10.9898Z" fill="white"/>
<path d="M42.4209 15.4256H37.6742L36.5343 18.4464H34.5238L39.0198 7.27026H41.1086L45.6046 18.4464H43.5598L42.4209 15.4256ZM38.1658 14.0317H41.9284L40.0736 9.12916H40.0217L38.1658 14.0317Z" fill="white"/>
<path d="M55.3145 14.3728C55.3145 16.9049 53.8044 18.5318 51.5256 18.5318C50.3477 18.5871 49.2381 18.0334 48.6689 17.1062H48.6258V21.1421H46.7622V10.2982H48.5661V11.6535H48.6004C49.1949 10.7321 50.3056 10.1786 51.4913 10.2129C53.7956 10.2129 55.3145 11.8477 55.3145 14.3728ZM53.399 14.3728C53.399 12.7231 52.449 11.6385 50.9997 11.6385C49.5758 11.6385 48.618 12.7459 48.618 14.3728C48.618 16.0146 49.5758 17.1141 50.9997 17.1141C52.4491 17.1141 53.399 16.0374 53.399 14.3728Z" fill="white"/>
<path d="M65.3073 14.3728C65.3073 16.9049 63.7972 18.5318 61.5184 18.5318C60.3405 18.5871 59.2309 18.0333 58.6617 17.1062H58.6186V21.1421H56.755V10.2982H58.5589V11.6535H58.5932C59.1876 10.7321 60.2984 10.1786 61.4841 10.2129C63.7884 10.2129 65.3073 11.8477 65.3073 14.3728ZM63.3918 14.3728C63.3918 12.7231 62.4418 11.6385 60.9925 11.6385C59.5686 11.6385 58.6108 12.7459 58.6108 14.3728C58.6108 16.0146 59.5686 17.1141 60.9925 17.1141C62.4419 17.1141 63.3918 16.0374 63.3918 14.3728Z" fill="white"/>
<path d="M71.9119 15.3325C72.0499 16.4408 73.2496 17.1685 74.8889 17.1685C76.4597 17.1685 77.5899 16.4408 77.5899 15.4415C77.5899 14.574 76.9083 14.0546 75.2944 13.6986L73.6805 13.3497C71.3938 12.854 70.3322 11.8942 70.3322 10.3368C70.3322 8.40849 72.2047 7.08398 74.8635 7.08398C77.4948 7.08398 79.2987 8.40849 79.3595 10.3368H77.4782C77.3656 9.22148 76.3383 8.54824 74.837 8.54824C73.3357 8.54824 72.3085 9.2294 72.3085 10.2208C72.3085 11.0109 72.9646 11.4759 74.5697 11.8318L75.9417 12.1341C78.4967 12.6764 79.5582 13.5975 79.5582 15.2323C79.5582 17.3232 77.7025 18.6327 74.7508 18.6327C71.9892 18.6327 70.1246 17.3539 70.0042 15.3325L71.9119 15.3325Z" fill="white"/>
<path d="M83.5802 8.36987V10.2982H85.3067V11.6227H83.5802V16.1148C83.5802 16.8126 83.9259 17.1378 84.6849 17.1378C84.8898 17.1346 85.0945 17.1217 85.2979 17.0991V18.4157C84.9567 18.4729 84.6099 18.4988 84.2628 18.4931C82.4246 18.4931 81.7078 17.8734 81.7078 16.2932V11.6227H80.3877V10.2982H81.7078V8.36987H83.5802Z" fill="white"/>
<path d="M86.3064 14.3728C86.3064 11.809 87.9888 10.198 90.6124 10.198C93.2448 10.198 94.9194 11.809 94.9194 14.3728C94.9194 16.9436 93.2536 18.5476 90.6124 18.5476C87.9722 18.5476 86.3064 16.9436 86.3064 14.3728ZM93.0205 14.3728C93.0205 12.6141 92.1225 11.5761 90.6124 11.5761C89.1023 11.5761 88.2053 12.622 88.2053 14.3728C88.2053 16.1385 89.1023 17.1686 90.6124 17.1686C92.1225 17.1686 93.0205 16.1385 93.0205 14.3728Z" fill="white"/>
<path d="M96.4561 10.2981H98.2335V11.685H98.2766C98.5245 10.7922 99.436 10.1777 100.46 10.2129C100.675 10.2122 100.889 10.2331 101.099 10.2753V11.8397C100.828 11.7654 100.545 11.7312 100.262 11.7386C99.7137 11.7187 99.1835 11.9147 98.8102 12.2751C98.4368 12.6355 98.2576 13.1244 98.3197 13.6133V18.4464H96.4561V10.2981Z" fill="white"/>
<path d="M109.691 16.0533C109.441 17.5324 107.836 18.5476 105.782 18.5476C103.141 18.5476 101.501 16.9594 101.501 14.4115C101.501 11.8556 103.15 10.198 105.704 10.198C108.216 10.198 109.795 11.7466 109.795 14.2172V14.7903H103.383V14.8913C103.323 15.498 103.556 16.0984 104.024 16.54C104.491 16.9816 105.147 17.2217 105.825 17.1993C106.729 17.2754 107.582 16.8093 107.922 16.0532L109.691 16.0533ZM103.392 13.6213H107.931C107.964 13.0762 107.743 12.5432 107.321 12.1506C106.898 11.758 106.312 11.5415 105.704 11.5533C105.091 11.55 104.502 11.7666 104.067 12.1549C103.633 12.5433 103.39 13.0712 103.392 13.6213Z" fill="white"/>
<path d="M37.0334 28.9187C38.5795 28.9187 39.538 27.953 39.538 26.4204C39.538 24.8845 38.5758 23.9254 37.0334 23.9254C35.4947 23.9254 34.5251 24.8845 34.5251 26.4204C34.5251 27.953 35.48 28.9187 37.0334 28.9187ZM37.0334 28.1837C36.0786 28.1837 35.4947 27.4916 35.4947 26.4204C35.4947 25.3426 36.0933 24.6604 37.0334 24.6604C37.9735 24.6604 38.5721 25.3426 38.5721 26.4204C38.5721 27.4916 37.9772 28.1837 37.0334 28.1837ZM41.4366 28.8V26.7071C41.4366 26.1996 41.8479 25.87 42.4391 25.87C42.5934 25.87 42.8358 25.8931 42.9055 25.9161V25.1713C42.8211 25.1515 42.6595 25.1383 42.5273 25.1383C42.0095 25.1383 41.5761 25.402 41.466 25.7579H41.4035V25.1976H40.5258V28.8H41.4366ZM47.2977 29.9964V25.1976H46.4127V25.7942H46.3502C46.1299 25.3954 45.6525 25.1383 45.109 25.1383C44.0954 25.1383 43.4527 25.8601 43.4527 26.9972C43.4527 28.1409 44.0807 28.8594 45.0943 28.8594C45.6635 28.8594 46.0858 28.6418 46.3172 28.2529H46.3796V29.9964H47.2977ZM45.3807 28.1804C44.7564 28.1804 44.3855 27.7388 44.3855 27.0005C44.3855 26.2622 44.7601 25.8205 45.3844 25.8205C46.005 25.8205 46.398 26.2721 46.398 27.0005C46.398 27.7322 46.0087 28.1804 45.3807 28.1804ZM49.5158 28.8594C50.041 28.8594 50.4817 28.655 50.7057 28.3056H50.7681V28.8H51.6458V26.338C51.6458 25.5767 51.0656 25.1284 50.0336 25.1284C49.0788 25.1284 48.4141 25.5305 48.3407 26.16H49.2C49.2845 25.9128 49.5709 25.7777 49.9896 25.7777C50.4817 25.7777 50.7461 25.9788 50.7461 26.338V26.6478L49.7105 26.7038C48.7336 26.7533 48.1864 27.1323 48.1864 27.7783C48.1864 28.4375 48.741 28.8594 49.5158 28.8594ZM49.7839 28.2298C49.38 28.2298 49.0898 28.0486 49.0898 27.7388C49.0898 27.4388 49.3286 27.2707 49.839 27.2411L50.7461 27.185V27.4784C50.7461 27.9068 50.3348 28.2298 49.7839 28.2298ZM53.6877 28.8V23.8035H52.7769V28.8H53.6877ZM55.2999 24.5945C55.601 24.5945 55.847 24.3802 55.847 24.11C55.847 23.843 55.601 23.6255 55.2999 23.6255C55.0024 23.6255 54.7563 23.843 54.7563 24.11C54.7563 24.3802 55.0024 24.5945 55.2999 24.5945ZM55.7552 28.8V25.1976H54.8482V28.8H55.7552ZM59.3285 30.1052C60.2282 30.1052 60.6579 29.8119 60.9994 28.9253L62.45 25.1976H61.4878L60.5514 28.0255H60.4889L59.5488 25.1976H58.5499L59.9858 28.8132L59.9381 28.9813C59.8206 29.3208 59.6039 29.4526 59.2183 29.4526C59.1559 29.4526 59.02 29.4493 58.9686 29.4427V30.092C59.0273 30.1019 59.2734 30.1052 59.3285 30.1052ZM64.5873 28.8725C65.2006 28.8725 65.5936 28.6385 65.7882 28.2265H65.8506V28.8H66.7283V25.1976H65.8176V27.2971C65.8176 27.8409 65.4944 28.1705 64.9032 28.1705C64.3596 28.1705 64.1062 27.9003 64.1062 27.34V25.1976H63.1955V27.5377C63.1955 28.3815 63.7096 28.8725 64.5873 28.8725ZM68.7922 28.8V27.5344L69.1154 27.2444L70.4044 28.8H71.5061L69.7948 26.7434L71.3959 25.1976H70.3383L68.8546 26.6742H68.7922V23.8035H67.8815V28.8H68.7922ZM73.155 28.8V23.8035H72.2443V28.8H73.155ZM75.4099 28.8594C75.935 28.8594 76.3757 28.655 76.5997 28.3056H76.6621V28.8H77.5398V26.338C77.5398 25.5767 76.9596 25.1284 75.9277 25.1284C74.9728 25.1284 74.3081 25.5305 74.2347 26.16H75.094C75.1785 25.9128 75.465 25.7777 75.8836 25.7777C76.3757 25.7777 76.6401 25.9788 76.6401 26.338V26.6478L75.6045 26.7038C74.6276 26.7533 74.0805 27.1323 74.0805 27.7783C74.0805 28.4375 74.635 28.8594 75.4099 28.8594ZM75.6779 28.2298C75.274 28.2298 74.9839 28.0486 74.9839 27.7388C74.9839 27.4388 75.2226 27.2707 75.733 27.2411L76.6401 27.185V27.4784C76.6401 27.9068 76.2288 28.2298 75.6779 28.2298ZM79.545 28.8V26.7006C79.545 26.16 79.8865 25.8205 80.43 25.8205C80.9846 25.8205 81.2416 26.1007 81.2416 26.661V28.8H82.1524V26.4698C82.1524 25.6129 81.6639 25.1284 80.7679 25.1284C80.1693 25.1284 79.7653 25.3723 79.5744 25.7744H79.5119V25.1976H78.6342V28.8H79.545ZM84.9581 30.1711C86.1296 30.1711 86.8714 29.6471 86.8714 28.8198V25.1976H85.9937V25.7744H85.9313C85.7109 25.3822 85.2335 25.1383 84.6863 25.1383C83.6617 25.1383 83.0264 25.8568 83.0264 26.9609C83.0264 28.042 83.6581 28.7473 84.6716 28.7473C85.2298 28.7473 85.6668 28.5364 85.8982 28.1474H85.9606V28.833C85.9606 29.2911 85.5971 29.5614 84.9728 29.5614C84.4733 29.5614 84.1502 29.3999 84.0914 29.1461H83.177C83.2504 29.7657 83.9261 30.1711 84.9581 30.1711ZM84.9581 28.098C84.3228 28.098 83.9629 27.6564 83.9629 26.9576C83.9629 26.2622 84.3228 25.8205 84.9581 25.8205C85.5897 25.8205 85.9753 26.2622 85.9753 26.9609C85.9753 27.6564 85.5934 28.098 84.9581 28.098Z" fill="white"/>
</svg>
