<svg width="120" height="36" viewBox="0 0 120 36" fill="none" xmlns="http://www.w3.org/2000/svg">
<path d="M115.556 35.5556H4.44444C1.95556 35.5556 0 33.6 0 31.1111V4.44444C0 1.95556 1.95556 0 4.44444 0H115.556C118.044 0 120 1.95556 120 4.44444V31.1111C120 33.5111 118.044 35.5556 115.556 35.5556Z" fill="black"/>
<path d="M115.556 0.711111C117.6 0.711111 119.289 2.4 119.289 4.44444V31.1111C119.289 33.1556 117.6 34.8444 115.556 34.8444H4.44444C2.4 34.8444 0.711111 33.1556 0.711111 31.1111V4.44444C0.711111 2.4 2.4 0.711111 4.44444 0.711111H115.556ZM115.556 0H4.44444C1.95556 0 0 1.95556 0 4.44444V31.1111C0 33.6 1.95556 35.5556 4.44444 35.5556H115.556C118.044 35.5556 120 33.6 120 31.1111V4.44444C120 2.04444 118.044 0 115.556 0Z" fill="#A6A6A6"/>
<path d="M57.511 11.3777C55.6444 11.3777 54.2221 12.7999 54.2221 14.6666C54.2221 16.5333 55.7332 17.9555 57.511 17.9555C59.3777 17.9555 60.7999 16.5333 60.7999 14.6666C60.8888 12.7999 59.3777 11.3777 57.511 11.3777ZM57.511 16.7111C56.5332 16.7111 55.6444 15.9111 55.6444 14.6666C55.6444 13.5111 56.5332 12.6222 57.511 12.6222C58.4888 12.6222 59.3777 13.4222 59.3777 14.6666C59.3777 15.8222 58.5777 16.7111 57.511 16.7111ZM50.311 11.3777C48.4444 11.3777 47.0221 12.7999 47.0221 14.6666C47.0221 16.5333 48.5332 17.9555 50.311 17.9555C52.0888 17.9555 53.5999 16.5333 53.5999 14.6666C53.5999 12.7999 52.0888 11.3777 50.311 11.3777ZM50.311 16.7111C49.3332 16.7111 48.4444 15.9111 48.4444 14.6666C48.4444 13.5111 49.3332 12.6222 50.311 12.6222C51.2888 12.6222 52.1777 13.4222 52.1777 14.6666C52.1777 15.8222 51.2888 16.7111 50.311 16.7111ZM41.6888 12.3555V13.7777H45.0666C44.9777 14.5777 44.711 15.1111 44.2666 15.5555C43.8221 15.9999 43.0221 16.6222 41.6888 16.6222C39.6444 16.6222 38.0444 14.9333 38.0444 12.8888C38.0444 10.8444 39.6444 9.1555 41.6888 9.1555C42.8444 9.1555 43.6444 9.59994 44.1777 10.1333L45.1555 9.1555C44.3555 8.3555 43.1999 7.73328 41.5999 7.73328C38.7555 7.73328 36.3555 10.0444 36.3555 12.8888C36.3555 15.7333 38.7555 18.0444 41.5999 18.0444C43.111 18.0444 44.2666 17.5111 45.1555 16.6222C46.0444 15.7333 46.3999 14.3999 46.3999 13.3333C46.3999 12.9777 46.3999 12.7111 46.311 12.4444H41.6888V12.3555ZM76.8888 13.5111C76.6221 12.7999 75.7332 11.3777 74.0444 11.3777C72.3555 11.3777 70.9333 12.7111 70.9333 14.6666C70.9333 16.5333 72.3555 17.9555 74.2221 17.9555C75.7332 17.9555 76.6221 17.0666 76.9777 16.5333L75.8221 15.8222C75.4666 16.3555 74.9332 16.7111 74.2221 16.7111C73.511 16.7111 72.9777 16.3555 72.6221 15.7333L77.0666 13.8666L76.8888 13.5111ZM72.3555 14.5777C72.3555 13.3333 73.3333 12.6222 74.0444 12.6222C74.5777 12.6222 75.111 12.8888 75.2888 13.3333L72.3555 14.5777ZM68.7999 17.7777H70.2221V8.08883H68.7999V17.7777ZM66.3999 12.0888C66.0444 11.7333 65.4221 11.3777 64.6221 11.3777C62.9332 11.3777 61.4221 12.7999 61.4221 14.6666C61.4221 16.5333 62.9332 17.9555 64.6221 17.9555C65.4221 17.9555 66.0444 17.5999 66.3999 17.2444H66.4888V17.6888C66.4888 18.9333 65.7777 19.6444 64.711 19.6444C63.8221 19.6444 63.2888 19.0222 63.0221 18.4888L61.7777 19.0222C62.1332 19.9111 63.111 20.9777 64.711 20.9777C66.3999 20.9777 67.8221 19.9999 67.8221 17.5111V11.5555H66.4888V12.0888H66.3999ZM64.711 16.7111C63.7332 16.7111 62.8444 15.9111 62.8444 14.7555C62.8444 13.5999 63.6444 12.7111 64.711 12.7111C65.6888 12.7111 66.4888 13.5999 66.4888 14.7555C66.4888 15.8222 65.7777 16.7111 64.711 16.7111ZM83.7332 8.08883H80.2666V17.7777H81.6888V14.1333H83.7332C85.3332 14.1333 86.9333 12.9777 86.9333 11.1111C86.9333 9.24439 85.3332 8.08883 83.7332 8.08883ZM83.7332 12.7111H81.6888V9.42216H83.7332C84.7999 9.42216 85.4221 10.3111 85.4221 11.1111C85.4221 11.8222 84.7999 12.7111 83.7332 12.7111ZM92.711 11.3777C91.6444 11.3777 90.5777 11.8222 90.1333 12.8888L91.3777 13.4222C91.6444 12.8888 92.1777 12.7111 92.711 12.7111C93.4221 12.7111 94.2221 13.1555 94.2221 13.9555V14.0444C93.9555 13.8666 93.4221 13.6888 92.711 13.6888C91.2888 13.6888 89.9555 14.4888 89.9555 15.9111C89.9555 17.2444 91.111 18.0444 92.3555 18.0444C93.3333 18.0444 93.8666 17.5999 94.2221 17.0666H94.311V17.7777H95.7332V14.0444C95.6444 12.3555 94.311 11.3777 92.711 11.3777ZM92.5332 16.7111C92.0888 16.7111 91.3777 16.4444 91.3777 15.9111C91.3777 15.1999 92.1777 14.8444 92.8888 14.8444C93.511 14.8444 93.8666 15.0222 94.2221 15.1999C94.1333 15.9999 93.3332 16.7111 92.5332 16.7111ZM100.711 11.5555L99.0221 15.7333H98.9333L97.2444 11.5555H95.6444L98.2221 17.4222L96.711 20.7111H98.2221L102.222 11.5555H100.711ZM87.6444 17.7777H89.0666V8.08883H87.6444V17.7777Z" fill="white"/>
<path d="M9.24437 6.6665C8.9777 6.93317 8.79993 7.37761 8.79993 7.91095V27.5554C8.79993 28.0887 8.9777 28.5332 9.24437 28.7998L9.33326 28.8887L20.3555 17.8665V17.7776V17.6887L9.24437 6.6665Z" fill="url(#paint0_linear)"/>
<path d="M23.9999 21.6L20.3555 17.9555V17.7778V17.6889L23.9999 14.0444L24.0888 14.1333L28.4444 16.6222C29.6888 17.3333 29.6888 18.4889 28.4444 19.2L23.9999 21.6Z" fill="url(#paint1_linear)"/>
<path d="M24.089 21.5112L20.3556 17.7778L9.24451 28.8889C9.68895 29.3334 10.3112 29.3334 11.1112 28.9778L24.089 21.5112Z" fill="url(#paint2_linear)"/>
<path d="M24.089 14.0444L11.1112 6.66659C10.3112 6.22215 9.68895 6.31103 9.24451 6.75548L20.3556 17.7777L24.089 14.0444Z" fill="url(#paint3_linear)"/>
<path opacity="0.2" d="M24.0002 21.4221L11.1113 28.711C10.4002 29.1555 9.77796 29.0666 9.33352 28.711L9.24463 28.7999L9.33352 28.8888C9.77796 29.2443 10.4002 29.3332 11.1113 28.8888L24.0002 21.4221Z" fill="black"/>
<path opacity="0.12" d="M9.24447 28.7111C8.9778 28.4445 8.88892 28 8.88892 27.4667V27.5556C8.88892 28.0889 9.06669 28.5333 9.33336 28.8V28.7111H9.24447Z" fill="black"/>
<path opacity="0.12" d="M28.4444 18.9334L24 21.4223L24.0889 21.5112L28.4444 19.0223C29.0667 18.6667 29.3333 18.2223 29.3333 17.7778C29.3333 18.2223 28.9778 18.5778 28.4444 18.9334Z" fill="black"/>
<path opacity="0.25" d="M11.1104 6.75545L28.4437 16.6221C28.9771 16.9777 29.3326 17.3332 29.3326 17.7777C29.3326 17.3332 29.066 16.8888 28.4437 16.5332L11.1104 6.66656C9.86596 5.95545 8.88818 6.57767 8.88818 7.99989V8.08878C8.88818 6.66656 9.86596 6.04434 11.1104 6.75545Z" fill="white"/>
<path d="M41.0666 28.5333C40.5332 29.0666 39.911 29.3333 39.111 29.3333C38.311 29.3333 37.6888 29.0666 37.1555 28.5333C36.6221 27.9999 36.3555 27.3777 36.3555 26.5777C36.3555 25.7777 36.6221 25.1555 37.1555 24.6221C37.6888 24.0888 38.311 23.8221 39.111 23.8221C39.911 23.8221 40.5332 24.0888 41.0666 24.6221C41.5999 25.1555 41.8666 25.7777 41.8666 26.5777C41.8666 27.3777 41.5999 27.9999 41.0666 28.5333ZM37.6888 28.0888C38.0444 28.4444 38.5777 28.711 39.111 28.711C39.6444 28.711 40.1777 28.5333 40.5332 28.0888C40.8888 27.7333 41.1555 27.1999 41.1555 26.5777C41.1555 25.9555 40.9777 25.4221 40.5332 25.0666C40.1777 24.711 39.6444 24.4444 39.111 24.4444C38.5777 24.4444 38.0444 24.6221 37.6888 25.0666C37.3332 25.4221 37.0666 25.9555 37.0666 26.5777C37.1555 27.1999 37.3332 27.7333 37.6888 28.0888Z" fill="white" stroke="white" stroke-width="0.2" stroke-miterlimit="10"/>
<path d="M42.8442 29.2444V24H44.622C45.0665 24 45.422 24.1778 45.7776 24.4444C46.1331 24.7111 46.3109 25.1556 46.3109 25.6C46.3109 25.9556 46.222 26.3111 45.9553 26.5778C45.6887 26.8444 45.422 27.0222 45.0665 27.1111L46.5776 29.2444H45.7776L44.3553 27.1111H43.6442V29.2444H42.8442ZM43.4665 26.4889H44.5331C44.7998 26.4889 45.0665 26.4 45.2442 26.2222C45.422 26.0444 45.5109 25.7778 45.5109 25.5111C45.5109 25.2444 45.422 25.0667 45.2442 24.8889C45.0665 24.7111 44.7998 24.6222 44.5331 24.6222H43.3776V26.4889H43.4665Z" fill="white" stroke="white" stroke-width="0.2" stroke-miterlimit="10"/>
<path d="M51.1998 29.5999L50.8442 29.0666C50.4887 29.2444 50.0442 29.3333 49.5998 29.3333C48.7998 29.3333 48.1776 29.0666 47.6442 28.5333C47.1109 27.9999 46.8442 27.3777 46.8442 26.5777C46.8442 25.7777 47.1109 25.1555 47.6442 24.6221C48.1776 24.0888 48.7998 23.8221 49.5998 23.8221C50.3998 23.8221 51.022 24.0888 51.5553 24.6221C52.0887 25.1555 52.3553 25.7777 52.3553 26.5777C52.3553 27.4666 52.0887 28.0888 51.4665 28.711L51.822 29.2444L51.1998 29.5999ZM49.5998 28.711C49.8665 28.711 50.222 28.6221 50.4887 28.5333L49.8665 27.6444L50.3998 27.2888L51.022 28.1777C51.4665 27.8221 51.6442 27.2888 51.6442 26.6666C51.6442 26.0444 51.4665 25.511 51.022 25.1555C50.6665 24.7999 50.1331 24.5333 49.5998 24.5333C49.0665 24.5333 48.5331 24.711 48.1776 25.1555C47.822 25.511 47.5553 26.0444 47.5553 26.6666C47.5553 27.2888 47.7331 27.8221 48.1776 28.1777C48.5331 28.5333 49.0665 28.711 49.5998 28.711Z" fill="white" stroke="white" stroke-width="0.2" stroke-miterlimit="10"/>
<path d="M52.6221 29.2444L54.5776 24H55.3776L57.3332 29.2444H56.6221L56.0887 27.8222H53.8665L53.3332 29.2444H52.6221ZM54.1332 27.2H55.911L55.0221 24.8L54.1332 27.2Z" fill="white" stroke="white" stroke-width="0.2" stroke-miterlimit="10"/>
<path d="M58.0443 29.2444V24H58.7554V28.6222H61.0665V29.2444H58.0443Z" fill="white" stroke="white" stroke-width="0.2" stroke-miterlimit="10"/>
<path d="M61.7776 29.2444V24H62.4887V29.2444H61.7776Z" fill="white" stroke="white" stroke-width="0.2" stroke-miterlimit="10"/>
<path d="M69.511 28.5333C68.9777 29.0666 68.3555 29.3333 67.5555 29.3333C66.7555 29.3333 66.1333 29.0666 65.5999 28.5333C65.0666 27.9999 64.7999 27.3777 64.7999 26.5777C64.7999 25.7777 65.0666 25.1555 65.5999 24.6221C66.1333 24.0888 66.7555 23.8221 67.5555 23.8221C68.3555 23.8221 68.9777 24.0888 69.511 24.6221C70.0444 25.1555 70.311 25.7777 70.311 26.5777C70.311 27.3777 70.0444 27.9999 69.511 28.5333ZM66.1333 28.0888C66.4888 28.4444 67.0221 28.711 67.5555 28.711C68.0888 28.711 68.6221 28.5333 68.9777 28.0888C69.3333 27.7333 69.5999 27.1999 69.5999 26.5777C69.5999 25.9555 69.4221 25.4221 68.9777 25.0666C68.6221 24.711 68.0888 24.4444 67.5555 24.4444C67.0221 24.4444 66.4888 24.6221 66.1333 25.0666C65.7777 25.4221 65.511 25.9555 65.511 26.5777C65.5999 27.1999 65.7777 27.7333 66.1333 28.0888Z" fill="white" stroke="white" stroke-width="0.2" stroke-miterlimit="10"/>
<path d="M71.1998 29.2444V24H71.9109V28.6222H74.2221V29.2444H71.1998Z" fill="white" stroke="white" stroke-width="0.2" stroke-miterlimit="10"/>
<path d="M74.9332 29.2444V24H75.6443V29.2444H74.9332Z" fill="white" stroke="white" stroke-width="0.2" stroke-miterlimit="10"/>
<path d="M76.8888 29.2444V24H77.6888L80.2666 28.0889V27.1111V24H80.9777V29.2444H80.2666L77.5999 24.9778V25.9556V29.2444H76.8888Z" fill="white" stroke="white" stroke-width="0.2" stroke-miterlimit="10"/>
<path d="M87.1998 26.8445C87.1998 27.5556 87.022 28.1778 86.5776 28.6222C86.0442 29.1556 85.422 29.4222 84.622 29.4222C83.822 29.4222 83.1998 29.1556 82.6665 28.6222C82.1331 28.0889 81.8665 27.4667 81.8665 26.6667C81.8665 25.8667 82.1331 25.2445 82.6665 24.7111C83.1998 24.1778 83.822 23.9111 84.622 23.9111C84.9776 23.9111 85.3331 24 85.6887 24.0889C86.0442 24.2667 86.3109 24.4445 86.4887 24.7111L86.0442 25.1556C85.6887 24.7111 85.2442 24.5334 84.622 24.5334C84.0887 24.5334 83.5553 24.7111 83.1998 25.1556C82.7553 25.5111 82.5776 26.0445 82.5776 26.6667C82.5776 27.2889 82.7553 27.8222 83.1998 28.1778C83.6442 28.5334 84.0887 28.8 84.622 28.8C85.2442 28.8 85.6887 28.6222 86.1331 28.1778C86.3998 27.9111 86.5776 27.5556 86.5776 27.1111H84.622V26.4889H87.1998C87.1998 26.5778 87.1998 26.6667 87.1998 26.8445Z" fill="white" stroke="white" stroke-width="0.2" stroke-miterlimit="10"/>
<defs>
<linearGradient id="paint0_linear" x1="19.3774" y1="7.74179" x2="4.45975" y2="22.6595" gradientUnits="userSpaceOnUse">
<stop stop-color="#00A0FF"/>
<stop offset="0.00657445" stop-color="#00A1FF"/>
<stop offset="0.2601" stop-color="#00BEFF"/>
<stop offset="0.5122" stop-color="#00D2FF"/>
<stop offset="0.7604" stop-color="#00DFFF"/>
<stop offset="1" stop-color="#00E3FF"/>
</linearGradient>
<linearGradient id="paint1_linear" x1="30.0749" y1="17.779" x2="8.56658" y2="17.779" gradientUnits="userSpaceOnUse">
<stop stop-color="#FFE000"/>
<stop offset="0.4087" stop-color="#FFBD00"/>
<stop offset="0.7754" stop-color="#FFA500"/>
<stop offset="1" stop-color="#FF9C00"/>
</linearGradient>
<linearGradient id="paint2_linear" x1="22.0685" y1="19.8188" x2="1.83891" y2="40.0484" gradientUnits="userSpaceOnUse">
<stop stop-color="#FF3A44"/>
<stop offset="1" stop-color="#C31162"/>
</linearGradient>
<linearGradient id="paint3_linear" x1="6.48655" y1="0.156545" x2="15.52" y2="9.18988" gradientUnits="userSpaceOnUse">
<stop stop-color="#32A071"/>
<stop offset="0.0685" stop-color="#2DA771"/>
<stop offset="0.4762" stop-color="#15CF74"/>
<stop offset="0.8009" stop-color="#06E775"/>
<stop offset="1" stop-color="#00F076"/>
</linearGradient>
</defs>
</svg>
