<svg width="120" height="32" viewBox="0 0 120 32" fill="none" xmlns="http://www.w3.org/2000/svg">
<path d="M28.7026 12.6043L35.9004 21.6297L43.1929 12.6043V26.6746C44.7352 26.6746 46.2145 26.0394 47.3053 24.9091C48.3957 23.7785 49.0086 22.2451 49.0086 20.6464V0.000488281C46.8864 0.000488281 45.8921 0.649264 45.0967 1.58188L36.0374 12.6043L26.8085 1.54809C25.811 0.449901 24.7515 0.000488281 22.8249 0.000488281V20.5788C22.8249 22.192 23.443 23.7389 24.5436 24.8797C25.6441 26.0205 27.1365 26.6611 28.6928 26.6611V12.6043" fill="#191C1F"/>
<path opacity="0.38" d="M16.5074 10.0464C13.3388 6.60657 3.85566 9.4078 3.19389 10.4756C3.30669 9.7278 3.51955 8.99995 3.82631 8.31299C-6.06428 17.2134 5.43019 31.1215 13.3877 32.0001C3.18085 25.4988 2.81248 13.635 16.5074 10.0464Z" fill="url(#paint0_linear)"/>
<path d="M16.6086 0.395549C15.8275 0.127591 15.0093 -0.00588341 14.1865 0.000198865H3.19403C5.58681 7.43409 15.4839 3.80838 15.4774 8.1099C16.6347 8.76205 16.9933 9.41083 16.5075 10.0562C15.2557 8.56607 3.46786 8.62351 3.19403 16.6251V17.73C3.39289 24.2414 5.99756 26.208 8.1817 26.6068L8.3284 26.6304L8.58919 26.6642C8.76523 26.6642 8.94126 26.6912 9.12056 26.6912V15.4526H15.0503C15.0503 15.4526 22.0363 15.4526 22.0363 8.15721C22.0363 3.07513 18.6656 1.11866 16.6086 0.395549Z" fill="#191C1F"/>
<path d="M14.3262 7.56911C14.3849 7.42381 13.7232 7.29541 12.8332 7.29541C12.7876 7.37651 13.5113 7.7482 13.9546 7.75496C14.0254 7.75158 14.0948 7.73333 14.1587 7.70157C14.2226 7.66947 14.2796 7.62453 14.3262 7.56911Z" fill="white"/>
<path d="M60.8208 5.94071C60.5483 5.94071 60.1716 5.94071 59.8831 5.94071V8.86502C59.8831 8.92899 59.8583 8.99047 59.815 9.03533C59.7717 9.08019 59.7124 9.10595 59.6507 9.10595H58.1519C58.1223 9.10844 58.0926 9.10429 58.0645 9.09349C58.0357 9.08352 58.01 9.06773 57.9884 9.04613C57.9668 9.02536 57.9491 8.99961 57.9371 8.97136C57.9251 8.94312 57.9195 8.91238 57.9195 8.88164V0.789957C57.9195 0.374574 58.0798 0.266576 58.4404 0.208423C59.2219 0.102084 60.0089 0.0489133 60.7968 0.0505749C62.552 0.0505749 64.2832 0.690266 64.2832 2.95826V3.06626C64.2832 5.28441 62.552 5.94071 60.8208 5.94071ZM62.3116 2.92504C62.3116 2.09427 61.7987 1.72873 60.8208 1.72873H59.8831V4.22103C60.0113 4.22103 60.6846 4.22103 60.8208 4.22103C61.8548 4.22103 62.3116 3.82226 62.3116 3.00811V2.92504Z" fill="#191C1F"/>
<path d="M71.9781 9.07198H70.1989C70.0706 9.07198 70.0305 8.95568 69.9664 8.83106L68.4116 5.81537H68.2833H67.4818V8.87259C67.4818 8.93656 67.457 8.99804 67.4137 9.0429C67.3704 9.08776 67.3111 9.11352 67.2494 9.11352H65.7426C65.6809 9.11352 65.6216 9.08776 65.5783 9.0429C65.535 8.99804 65.5102 8.93656 65.5102 8.87259V0.797542C65.5102 0.382159 65.6705 0.274149 66.0312 0.215995C66.8006 0.0938722 67.5772 0.0216 68.3554 0C70.3351 0 71.8579 0.689537 71.8579 2.8163V2.97415C71.8876 3.48839 71.7577 3.99931 71.4884 4.43297C71.2191 4.8658 70.8232 5.19894 70.3591 5.38337L72.1144 8.78122C72.124 8.82525 72.124 8.8701 72.1144 8.91413C72.1545 9.01382 72.1064 9.07198 71.9781 9.07198ZM69.8863 2.83292C69.8863 2.10184 69.3413 1.76122 68.3635 1.76122C68.2032 1.76122 67.6021 1.76122 67.4578 1.76122V4.15384C67.586 4.15384 68.1551 4.15384 68.2593 4.15384C69.4775 4.15384 69.8622 3.82983 69.8622 3.00737L69.8863 2.83292Z" fill="#191C1F"/>
<path d="M76.6259 9.1807C74.7104 9.1807 73.1876 8.109 73.1876 5.31762V3.8887C73.1876 1.08901 74.7104 0.017334 76.6259 0.017334C78.5415 0.017334 80.0643 1.08901 80.0643 3.8887V5.31762C80.0643 8.109 78.5415 9.1807 76.6259 9.1807ZM78.0686 3.8887C78.0686 2.44317 77.6038 1.8284 76.6259 1.8284C75.6481 1.8284 75.1993 2.44317 75.1993 3.8887V5.31762C75.1993 6.76316 75.6562 7.37794 76.6259 7.37794C77.5957 7.37794 78.0686 6.76316 78.0686 5.31762V3.8887Z" fill="#191C1F"/>
<path d="M82.9422 10.211L82.4132 11.1332C82.285 11.3658 82.2209 11.4239 82.0606 11.4239H80.5378C80.5169 11.4264 80.4961 11.4248 80.4769 11.4173C80.4568 11.4106 80.4392 11.399 80.424 11.3841C80.4095 11.3683 80.3983 11.35 80.3919 11.3292C80.3847 11.3093 80.3831 11.2877 80.3855 11.2661C80.3855 11.2021 80.4023 11.139 80.4336 11.0833L81.0587 9.82056C81.4178 9.20163 81.5725 8.47803 81.4995 7.76024V0.358102C81.4971 0.329025 81.5011 0.299951 81.51 0.272536C81.5188 0.24429 81.5332 0.21937 81.5516 0.19777C81.5709 0.17617 81.5933 0.15789 81.619 0.145428C81.6446 0.133798 81.6719 0.126319 81.6999 0.125488H83.3029C83.3309 0.126319 83.3582 0.133798 83.3838 0.145428C83.4095 0.15789 83.4319 0.17617 83.4512 0.19777C83.4696 0.21937 83.484 0.24429 83.4928 0.272536C83.5016 0.299951 83.5056 0.329025 83.5032 0.358102V7.76024C83.5658 8.6176 83.3694 9.47411 82.9422 10.211Z" fill="#191C1F"/>
<path d="M90.1547 9.03058C89.4093 9.14191 88.6559 9.19176 87.9026 9.18013C86.4038 9.18013 85.0813 8.78967 85.0813 6.59644V2.59214C85.0813 0.407219 86.4118 0.0167658 87.9106 0.0167658C88.6616 0.00596585 89.4117 0.0583062 90.1547 0.174614C90.315 0.174614 90.3872 0.257685 90.3872 0.415531V1.53707C90.3872 1.60104 90.3623 1.66251 90.319 1.70737C90.2757 1.75223 90.2164 1.77799 90.1547 1.77799H87.7984C87.2534 1.77799 87.053 1.96906 87.053 2.60876V3.70537H90.0585C90.1203 3.70537 90.1796 3.73112 90.2228 3.77598C90.2661 3.82084 90.291 3.88232 90.291 3.94629V5.09275C90.291 5.15672 90.2661 5.2182 90.2228 5.26306C90.1796 5.30792 90.1203 5.33367 90.0585 5.33367H87.053V6.61306C87.053 7.23614 87.2534 7.44383 87.7984 7.44383H90.1547C90.2164 7.44383 90.2757 7.46957 90.319 7.51444C90.3623 7.5593 90.3872 7.62078 90.3872 7.68474V8.80629C90.3872 8.9309 90.315 9.00566 90.1547 9.03058Z" fill="#191C1F"/>
<path d="M96.8235 8.98069C96.2577 9.12524 95.675 9.19254 95.0923 9.18008C93.329 9.18008 91.654 8.21638 91.654 5.35024V3.83823C91.654 0.972086 93.329 0.0167111 95.0923 0.0167111C95.6758 0.00591109 96.2577 0.0756956 96.8235 0.224403C96.9918 0.274249 97.08 0.324088 97.08 0.490242V1.66163C97.084 1.69403 97.0808 1.72726 97.0704 1.75799C97.0599 1.78956 97.0431 1.81781 97.0207 1.84108C96.9982 1.86434 96.971 1.88178 96.9405 1.89258C96.9109 1.90338 96.8788 1.9067 96.8475 1.90254C96.4067 1.90254 95.7656 1.81116 95.1324 1.81116C94.3309 1.81116 93.6897 2.24317 93.6897 3.84655V5.35854C93.6897 6.96192 94.3309 7.39392 95.1324 7.39392C95.7656 7.39392 96.4067 7.33576 96.8475 7.30253C96.8788 7.29838 96.9109 7.30171 96.9405 7.31251C96.971 7.32331 96.9982 7.34075 97.0207 7.36401C97.0431 7.38728 97.0599 7.41553 97.0704 7.4471C97.0808 7.47783 97.084 7.51106 97.08 7.54346V8.70653C97.08 8.87269 96.9918 8.93084 96.8235 8.98069Z" fill="#191C1F"/>
<path d="M103.845 1.82704H101.962V8.83041C101.962 8.89438 101.937 8.95586 101.894 9.00072C101.85 9.04558 101.791 9.07133 101.729 9.07133H100.206C100.145 9.07133 100.085 9.04558 100.042 9.00072C99.9989 8.95586 99.974 8.89438 99.974 8.83041V1.82704H98.0826C98.0521 1.82787 98.0224 1.82289 97.9944 1.81209C97.9663 1.80046 97.9407 1.78383 97.9182 1.76223C97.8966 1.7398 97.8798 1.71405 97.8678 1.68581C97.8565 1.65673 97.8501 1.62599 97.8501 1.59442V0.356575C97.8501 0.325006 97.8565 0.294279 97.8678 0.265202C97.8798 0.236956 97.8966 0.211194 97.9182 0.188763C97.9407 0.167163 97.9663 0.15055 97.9944 0.138919C98.0224 0.128119 98.0521 0.12313 98.0826 0.123961H103.845C103.908 0.121468 103.969 0.144739 104.015 0.187939C104.062 0.231139 104.09 0.291775 104.094 0.356575V1.59442C104.09 1.65922 104.062 1.71987 104.015 1.76307C103.969 1.80627 103.908 1.82953 103.845 1.82704Z" fill="#191C1F"/>
<path d="M65.574 26.5907H64.0432C64.0159 26.5874 63.9895 26.5791 63.9646 26.565C63.9406 26.5517 63.9197 26.5326 63.9021 26.5101C63.8853 26.4877 63.8725 26.4619 63.8652 26.4345C63.8572 26.4071 63.8556 26.378 63.8588 26.3498V21.3652C63.8588 21.2821 63.8188 21.2655 63.7947 21.2655C63.7707 21.2655 63.7386 21.2655 63.7066 21.3486L62.6566 23.3341C62.623 23.3981 62.5733 23.4504 62.5124 23.4853C62.4514 23.521 62.3817 23.5377 62.312 23.5335H61.3823C61.3117 23.5368 61.2412 23.5202 61.1787 23.4853C61.117 23.4504 61.0649 23.3981 61.0296 23.3341L59.9877 21.3403C59.9877 21.2821 59.9316 21.2572 59.8915 21.2572C59.8514 21.2572 59.8354 21.2572 59.8354 21.3569V26.3415C59.8386 26.3697 59.837 26.3988 59.829 26.4262C59.8218 26.4536 59.809 26.4794 59.7921 26.5018C59.7745 26.5243 59.7537 26.5434 59.7296 26.5567C59.7048 26.5708 59.6783 26.5791 59.6511 26.5824H58.1202C58.0241 26.5824 57.9199 26.5824 57.9199 26.4163V18.0587C57.9175 18.0022 57.9263 17.9457 57.9471 17.8926C57.9671 17.8402 57.9984 17.7929 58.0377 17.753C58.077 17.714 58.1242 17.6841 58.1755 17.6649C58.2268 17.6458 58.2821 17.6384 58.3366 17.6433H59.4267C59.5332 17.6392 59.639 17.6683 59.7304 17.7256C59.821 17.7829 59.8939 17.8668 59.9396 17.9673L61.7189 21.4067C61.767 21.4981 61.799 21.5563 61.8471 21.5563C61.8952 21.5563 61.9273 21.4981 61.9754 21.4067L63.7546 17.9673C63.7995 17.8685 63.8709 17.7854 63.9606 17.7281C64.0504 17.6699 64.1546 17.6409 64.2596 17.6433H65.3576C65.4121 17.6409 65.4666 17.6508 65.5179 17.6708C65.5692 17.6915 65.6157 17.7223 65.6542 17.7622C65.6934 17.8012 65.7239 17.8494 65.7447 17.9017C65.7656 17.9541 65.7752 18.0106 65.7744 18.067V26.4246C65.7744 26.5575 65.6702 26.5907 65.574 26.5907Z" fill="#191C1F"/>
<path d="M73.6293 26.5893H72.0985C72.0697 26.5884 72.0408 26.581 72.0144 26.5685C71.9879 26.5552 71.9647 26.5369 71.9446 26.5145C71.9254 26.4921 71.9102 26.4663 71.9013 26.4372C71.8917 26.409 71.8877 26.3783 71.8901 26.3484V23.4241H69.3655V26.3484C69.3663 26.3791 69.3615 26.409 69.3518 26.4381C69.3414 26.4663 69.3254 26.4929 69.3054 26.5153C69.2853 26.5378 69.2613 26.556 69.234 26.5685C69.2076 26.581 69.1787 26.5884 69.1491 26.5893H67.6102C67.5485 26.5893 67.4892 26.5635 67.4459 26.5187C67.4026 26.4738 67.3778 26.4123 67.3778 26.3484V20.209C67.3778 18.0407 68.6441 17.5588 70.199 17.5588H71.0726C72.6355 17.5588 73.8858 18.0407 73.8858 20.209V26.3484C73.8858 26.3824 73.8794 26.4156 73.8658 26.4464C73.8529 26.478 73.8337 26.5054 73.8097 26.5278C73.7856 26.5511 73.7568 26.5677 73.7255 26.5785C73.6951 26.5893 73.6622 26.5926 73.6293 26.5893ZM71.8741 20.209C71.8741 19.5444 71.6817 19.3782 71.0325 19.3782H70.183C69.5498 19.3782 69.3815 19.5776 69.3815 20.209V21.7293H71.8741V20.209Z" fill="#191C1F"/>
<path d="M81.965 26.5908H80.4102C80.3805 26.5908 80.3509 26.5841 80.3236 26.5725C80.2964 26.56 80.2715 26.5417 80.2515 26.5193C80.2306 26.4969 80.2154 26.4703 80.205 26.4404C80.1954 26.4113 80.1914 26.3806 80.1938 26.3498V20.9831C80.1938 19.6289 79.769 19.3215 78.8152 19.3215C78.36 19.3182 77.9048 19.3431 77.4527 19.3963V26.3664C77.4551 26.3972 77.4511 26.4279 77.4407 26.457C77.4311 26.4869 77.4158 26.5135 77.395 26.5359C77.375 26.5584 77.3501 26.5766 77.3229 26.5891C77.2956 26.6007 77.266 26.6074 77.2363 26.6074H75.6894C75.659 26.6074 75.6293 26.6007 75.6013 26.5891C75.574 26.5766 75.5492 26.5592 75.5276 26.5359C75.5067 26.5135 75.4907 26.4869 75.4795 26.4578C75.469 26.4288 75.4642 26.398 75.465 26.3664V18.5074C75.465 17.9674 75.6093 17.8345 76.0581 17.7597C76.8981 17.6417 77.7437 17.5728 78.5908 17.552C80.851 17.552 82.1814 18.2083 82.1814 20.9997V26.3664C82.1814 26.4263 82.159 26.4828 82.1181 26.5251C82.0773 26.5675 82.0227 26.5908 81.965 26.5908Z" fill="#191C1F"/>
<path d="M90.0353 26.5893H88.5045C88.4756 26.5884 88.4468 26.581 88.4203 26.5685C88.3939 26.5552 88.3699 26.5369 88.3506 26.5145C88.3314 26.4921 88.3162 26.4663 88.3073 26.4372C88.2977 26.409 88.2937 26.3783 88.2961 26.3484V23.4241H85.7715V26.3484C85.7739 26.3791 85.7698 26.4098 85.7594 26.4389C85.7498 26.4688 85.7346 26.4954 85.7138 26.5178C85.6937 26.5403 85.6689 26.5585 85.6416 26.571C85.6144 26.5826 85.5847 26.5893 85.5551 26.5893H84.0242C83.9625 26.5893 83.9032 26.5635 83.8599 26.5187C83.8166 26.4738 83.7918 26.4123 83.7918 26.3484V20.209C83.7918 18.0407 85.0581 17.5588 86.613 17.5588H87.4626C89.0174 17.5588 90.2678 18.0407 90.2678 20.209V26.3484C90.2678 26.3799 90.2613 26.4115 90.2501 26.4406C90.2381 26.4696 90.2213 26.4962 90.1996 26.5187C90.178 26.5411 90.1523 26.5585 90.1243 26.571C90.0962 26.5826 90.0658 26.5893 90.0353 26.5893ZM88.2961 20.209C88.2961 19.5444 88.1118 19.3782 87.4946 19.3782H86.6451C86.0039 19.3782 85.8436 19.5776 85.8436 20.209V21.7293H88.3682L88.2961 20.209Z" fill="#191C1F"/>
<path d="M97.6259 19.4286C97.0649 19.4286 96.1993 19.3289 95.2215 19.3289C94.2437 19.3289 93.6987 19.8024 93.6987 21.3809V22.8846C93.6987 24.5461 94.428 24.9282 94.9971 24.9282C95.3257 24.9282 95.6142 24.9282 95.8947 24.9282V22.1618C95.8923 22.131 95.8963 22.1003 95.9068 22.0712C95.9164 22.0413 95.9316 22.0147 95.9524 21.9923C95.9725 21.9699 95.9973 21.9516 96.0246 21.9391C96.0518 21.9267 96.0815 21.9209 96.1111 21.9209H97.6019C97.6323 21.9209 97.6628 21.9275 97.6908 21.9391C97.7189 21.9516 97.7445 21.969 97.7662 21.9915C97.7878 22.0139 97.8047 22.0405 97.8167 22.0696C97.8279 22.0986 97.8343 22.1302 97.8343 22.1618V26.2076C97.8343 26.3738 97.7702 26.4485 97.6019 26.4818C96.7443 26.6579 95.8715 26.741 94.9971 26.731C93.6746 26.731 91.687 25.9501 91.687 22.9012V21.4141C91.687 18.3403 93.5304 17.5676 95.2215 17.5676C96.031 17.5668 96.8373 17.6615 97.6259 17.8501C97.7462 17.8501 97.8263 17.9166 97.8263 18.0246V19.3039C97.8023 19.4036 97.7301 19.4286 97.6259 19.4286Z" fill="#191C1F"/>
<path d="M104.414 26.5482C103.669 26.6595 102.915 26.7102 102.162 26.6977C100.663 26.6977 99.3407 26.3072 99.3407 24.114V20.1097C99.3407 17.9248 100.671 17.5343 102.17 17.5343C102.921 17.5235 103.671 17.5759 104.414 17.6922C104.574 17.6922 104.647 17.7753 104.647 17.9331V19.0547C104.647 19.1186 104.622 19.1801 104.578 19.2249C104.535 19.2698 104.476 19.2956 104.414 19.2956H102.058C101.513 19.2956 101.312 19.4866 101.312 20.1263V21.223H104.326C104.388 21.223 104.447 21.2487 104.49 21.2936C104.533 21.3384 104.558 21.3999 104.558 21.4639V22.6103C104.558 22.6743 104.533 22.7358 104.49 22.7806C104.447 22.8255 104.388 22.8513 104.326 22.8513H101.312V24.1306C101.312 24.7537 101.513 24.9614 102.058 24.9614H104.414C104.476 24.9614 104.535 24.9872 104.578 25.032C104.622 25.0769 104.647 25.1384 104.647 25.2023V26.3239C104.647 26.4485 104.574 26.5232 104.414 26.5482Z" fill="#191C1F"/>
<path d="M112.605 26.5893H110.833C110.705 26.5893 110.657 26.473 110.601 26.3483L109.038 23.3327H108.91H108.108V26.3899C108.108 26.4538 108.084 26.5153 108.04 26.5602C107.997 26.605 107.938 26.6308 107.876 26.6308H106.337C106.275 26.6308 106.216 26.605 106.173 26.5602C106.13 26.5153 106.105 26.4538 106.105 26.3899V18.3148C106.105 17.8994 106.265 17.7914 106.626 17.7333C107.407 17.6286 108.194 17.5763 108.982 17.5754C110.962 17.5754 112.484 18.265 112.484 20.3917V20.5496C112.514 21.0638 112.384 21.5748 112.115 22.0084C111.846 22.4412 111.45 22.7744 110.986 22.9588L112.741 26.3566C112.751 26.4007 112.751 26.4455 112.741 26.4896C112.749 26.5311 112.749 26.5893 112.605 26.5893ZM110.513 20.3502C110.513 19.6191 109.968 19.2785 108.99 19.2785C108.83 19.2785 108.229 19.2785 108.084 19.2785V21.6711C108.213 21.6711 108.782 21.6711 108.886 21.6711C110.112 21.6711 110.489 21.3471 110.489 20.5247L110.513 20.3502Z" fill="#191C1F"/>
<path d="M116.372 26.698C115.633 26.708 114.894 26.6183 114.176 26.4322C114.064 26.4322 113.944 26.3242 113.944 26.1913V24.995C113.94 24.9651 113.943 24.9352 113.952 24.9069C113.961 24.8787 113.976 24.8521 113.996 24.8313C114.016 24.8097 114.041 24.7931 114.067 24.7823C114.095 24.7723 114.123 24.7682 114.152 24.7707H114.192C114.665 24.8205 115.948 24.9119 116.396 24.9119C117.198 24.9119 117.43 24.646 117.43 24.0811C117.43 23.7322 117.27 23.5411 116.629 23.1673L115.026 22.1787C114.608 21.9726 114.257 21.6453 114.014 21.2374C113.77 20.8295 113.646 20.3568 113.655 19.8774C113.655 18.5482 114.377 17.5264 116.629 17.5264C117.458 17.5347 118.285 17.6236 119.097 17.7922C119.147 17.8005 119.192 17.8263 119.225 17.8662C119.257 17.906 119.275 17.9559 119.274 18.0082V19.2294C119.276 19.2569 119.273 19.2851 119.264 19.3109C119.255 19.3366 119.24 19.3607 119.221 19.3798C119.201 19.3989 119.178 19.4131 119.153 19.4222C119.127 19.4305 119.1 19.433 119.073 19.4288C118.745 19.4288 117.398 19.2959 116.613 19.2959C115.948 19.2959 115.707 19.5036 115.707 19.9356C115.707 20.3676 115.851 20.4341 116.509 20.7664L117.991 21.5971C118.469 21.7832 118.879 22.118 119.166 22.5558C119.453 22.9928 119.602 23.5112 119.594 24.0396C119.546 25.3439 118.737 26.698 116.372 26.698Z" fill="#191C1F"/>
<defs>
<linearGradient id="paint0_linear" x1="6.00068" y1="27.016" x2="10.6822" y2="5.98286" gradientUnits="userSpaceOnUse">
<stop stop-color="#EDEDED" stop-opacity="0"/>
<stop offset="1" stop-color="#B5B5B6"/>
</linearGradient>
</defs>
</svg>
