<svg width="43" height="43" viewBox="0 0 43 43" fill="none" xmlns="http://www.w3.org/2000/svg">
<path d="M22.2256 3.5C23.2696 3.5 24.2708 3.91456 25.0091 4.65254L29.9299 9.57074L34.8433 14.4915C35.5804 15.2298 35.9945 16.2304 35.9945 17.2737V34.5625C35.9945 36.7371 34.2316 38.5 32.057 38.5L20.5819 38.5014C21.3281 37.7241 21.965 36.841 22.4677 35.8769L32.057 35.875C32.7818 35.875 33.3695 35.2874 33.3695 34.5625L33.368 17.5053L25.9375 17.5068C23.8535 17.5068 22.1477 15.8878 22.0091 13.8389L22 13.5693L21.9983 6.125H11.9375C11.2127 6.125 10.625 6.71263 10.625 7.4375L10.6235 19.384C9.70781 19.5256 8.82822 19.7763 7.99841 20.1225L8.00005 7.4375C8.00005 5.26288 9.76292 3.5 11.9375 3.5H22.2256ZM24.6233 7.97825L24.625 13.5693C24.625 14.2338 25.1188 14.7829 25.7594 14.8698L25.9375 14.8818L31.5218 14.8803L24.6233 7.97825Z" fill="white"/>
<path d="M12 21C17.5228 21 22 25.4772 22 31C22 36.5228 17.5228 41 12 41C6.47715 41 2 36.5228 2 31C2 25.4772 6.47715 21 12 21ZM15.2197 27.9697L10.75 32.4393L8.78033 30.4697C8.48744 30.1768 8.01256 30.1768 7.71967 30.4697C7.42678 30.7626 7.42678 31.2374 7.71967 31.5303L10.2197 34.0303C10.5126 34.3232 10.9874 34.3232 11.2803 34.0303L16.2803 29.0303C16.5732 28.7374 16.5732 28.2626 16.2803 27.9697C15.9874 27.6768 15.5126 27.6768 15.2197 27.9697Z" fill="white"/>
</svg>
