<svg width="34" height="38" viewBox="0 0 34 38" fill="none" xmlns="http://www.w3.org/2000/svg">
<path d="M10.375 18C15.6907 18 20 22.3093 20 27.625C20 32.9407 15.6907 37.25 10.375 37.25C5.05926 37.25 0.75 32.9407 0.75 27.625C0.75 22.3093 5.05926 18 10.375 18ZM20.2256 0.5C21.2695 0.5 22.2707 0.91456 23.0091 1.65254L27.9299 6.57074L32.8433 11.4915C33.5804 12.2298 33.9944 13.2304 33.9944 14.2737V31.5625C33.9944 33.7371 32.2315 35.5 30.0569 35.5L18.5819 35.5014C19.3281 34.7241 19.9649 33.841 20.4677 32.8769L30.0569 32.875C30.7818 32.875 31.3694 32.2874 31.3694 31.5625L31.368 14.5053L23.9375 14.5068C21.8535 14.5068 20.1476 12.8878 20.0091 10.8389L20 10.5693L19.9982 3.125H9.9375C9.21263 3.125 8.625 3.71263 8.625 4.4375L8.62341 16.384C7.70776 16.5255 6.82817 16.7763 5.99837 17.1225L6 4.4375C6 2.26288 7.76288 0.5 9.9375 0.5H20.2256ZM15.625 27.625H12.125L11.9677 27.6391C11.5595 27.7132 11.25 28.0704 11.25 28.5C11.25 28.9296 11.5595 29.2868 11.9677 29.3609L12.125 29.375L13.6484 29.3761C13.0181 30.5548 11.7745 31.3413 10.3689 31.3413C9.29473 31.3413 8.29637 30.8842 7.59487 30.0981C7.49729 29.9887 7.40621 29.8737 7.32218 29.7537C7.04497 29.3579 6.49936 29.2617 6.10353 29.5389C5.70769 29.8161 5.61153 30.3617 5.88873 30.7576C6.01216 30.9338 6.14588 31.1027 6.28912 31.2632C7.31925 32.4177 8.79072 33.0913 10.3689 33.0913C12.0282 33.0913 13.5334 32.3467 14.5425 31.156L14.751 30.8942L14.75 32L14.7641 32.1573C14.8382 32.5655 15.1954 32.875 15.625 32.875C16.0546 32.875 16.4118 32.5655 16.4859 32.1573L16.5 32V28.5L16.4859 28.3427C16.4118 27.9345 16.0546 27.625 15.625 27.625ZM10.3689 22.1587C8.7139 22.1587 7.21231 22.8994 6.20332 24.0844L5.99477 24.3451L5.99775 23.25L5.98365 23.0927C5.90956 22.6845 5.5523 22.375 5.12275 22.375C4.69319 22.375 4.33593 22.6845 4.26184 23.0927L4.24775 23.25V26.75L4.26184 26.9073C4.32667 27.2644 4.6083 27.5461 4.96546 27.6109L5.12275 27.625H8.625L8.78228 27.6109C9.19047 27.5368 9.5 27.1796 9.5 26.75C9.5 26.3204 9.19047 25.9632 8.78228 25.8891L8.625 25.875L7.08898 25.8746C7.71914 24.6956 8.96284 23.9087 10.3689 23.9087C11.4399 23.9087 12.4357 24.3631 13.137 25.1454C13.2397 25.26 13.3353 25.3808 13.4231 25.5072C13.6989 25.904 14.2442 26.0021 14.641 25.7263C15.0378 25.4505 15.1359 24.9052 14.8601 24.5084C14.7312 24.3229 14.5908 24.1454 14.44 23.9772C13.4101 22.8285 11.9425 22.1587 10.3689 22.1587ZM22.6232 4.97825L22.625 10.5693C22.625 11.2338 23.1188 11.7829 23.7594 11.8698L23.9375 11.8818L29.5217 11.8803L22.6232 4.97825Z" fill="white"/>
</svg>
