<svg width="64" height="64" viewBox="0 0 64 64" fill="none" xmlns="http://www.w3.org/2000/svg">
<path d="M49 63.9956H15C6.729 63.9956 0 57.2666 0 48.9956V27.9617C0 23.3129 2.20688 18.8542 5.90325 16.0349L22.9032 3.06873C28.2594 -1.0164 35.7406 -1.0164 41.0967 3.06873L58.0967 16.0349C61.7931 18.8541 64 23.3127 64 27.9617V48.9956C64 57.2666 57.271 63.9956 49 63.9956ZM32 5.00173C29.8601 5.00173 27.7211 5.68248 25.9355 7.04423L8.9355 20.0104C6.47125 21.89 5 24.8624 5 27.9617V48.9956C5 54.5096 9.486 58.9956 15 58.9956H49C54.514 58.9956 59 54.5096 59 48.9956V27.9617C59 24.8625 57.5287 21.89 55.0645 20.0105L38.0645 7.04435C36.2794 5.68285 34.1394 5.00173 32 5.00173ZM41 49.8706H23.125C18.9895 49.8706 15.625 46.5061 15.625 42.3706V32.9956C15.625 28.8601 18.9895 25.4956 23.125 25.4956H26.6061C28.7356 25.4956 30.6767 26.3347 32.1156 27.6999C33.5499 26.3344 35.488 25.4956 37.6183 25.4956H41C45.1355 25.4956 48.5 28.8601 48.5 32.9956V42.3706C48.5 46.5061 45.1355 49.8706 41 49.8706ZM23.125 30.4956C21.7465 30.4956 20.625 31.6171 20.625 32.9956V42.3706C20.625 43.7491 21.7465 44.8706 23.125 44.8706H41C42.3785 44.8706 43.5 43.7491 43.5 42.3706V32.9956C43.5 31.6171 42.3785 30.4956 41 30.4956H37.6183C35.9686 30.4956 34.6264 31.8427 34.625 33.4992V33.5055V38.1206C34.625 39.5014 33.5057 40.6206 32.125 40.6206C30.7442 40.6206 29.625 39.5014 29.625 38.1206V33.5084C29.6159 31.8469 28.2624 30.4956 26.6061 30.4956H23.125Z" fill="#F64E60"/>
</svg>
