<svg width="26" height="21" viewBox="0 0 26 21" fill="none" xmlns="http://www.w3.org/2000/svg">
<path d="M26 2.48612C25.0424 2.90786 24.0153 3.19194 22.9353 3.32135C24.0376 2.66502 24.8842 1.6251 25.2815 0.388746C24.2513 0.995581 23.108 1.43692 21.8936 1.67408C20.9215 0.642925 19.5349 0 18.001 0C15.0545 0 12.6662 2.37372 12.6662 5.30117C12.6662 5.71621 12.7139 6.12042 12.8057 6.50917C8.37254 6.28799 4.44149 4.17721 1.8099 0.969802C1.35081 1.75451 1.08833 2.66554 1.08833 3.63637C1.08833 5.47544 2.02829 7.09744 3.46106 8.04972C2.58542 8.02188 1.76425 7.78316 1.04527 7.38565C1.04527 7.40834 1.04527 7.42999 1.04527 7.45319C1.04527 10.0228 2.8837 12.1625 5.32232 12.6523C4.8762 12.774 4.40466 12.8379 3.91808 12.8379C3.57363 12.8379 3.23904 12.8049 2.91275 12.742C3.59386 14.8461 5.5625 16.382 7.89633 16.4248C6.07191 17.8462 3.77179 18.6928 1.27196 18.6928C0.839847 18.6928 0.416552 18.668 0 18.6185C2.35925 20.1235 5.16462 21 8.17645 21C17.9885 21 23.3549 12.9219 23.3549 5.91832C23.3549 5.68734 23.3492 5.45739 23.3394 5.23157C24.381 4.48398 25.2857 3.54924 26 2.48612Z" fill="white" fill-opacity="0.4"/>
</svg>
