<svg width="34" height="34" viewBox="0 0 34 34" fill="none" xmlns="http://www.w3.org/2000/svg">
<path d="M16.9999 0.333252C26.2047 0.333252 33.6666 7.79517 33.6666 16.9999C33.6666 26.2047 26.2047 33.6666 16.9999 33.6666C7.79517 33.6666 0.333252 26.2047 0.333252 16.9999C0.333252 7.79517 7.79517 0.333252 16.9999 0.333252ZM22.8838 11.116L22.7436 10.995C22.3086 10.6723 21.7116 10.6683 21.2726 10.9831L21.116 11.116L16.9999 15.2316L12.8838 11.116L12.7436 10.995C12.3086 10.6723 11.7116 10.6683 11.2726 10.9831L11.116 11.116L10.995 11.2562C10.6723 11.6912 10.6683 12.2882 10.9831 12.7272L11.116 12.8838L15.2316 16.9999L11.116 21.116L10.995 21.2562C10.6723 21.6912 10.6683 22.2882 10.9831 22.7272L11.116 22.8838L11.2562 23.0048C11.6912 23.3276 12.2882 23.3316 12.7272 23.0168L12.8838 22.8838L16.9999 18.7683L21.116 22.8838L21.2562 23.0048C21.6912 23.3276 22.2882 23.3316 22.7272 23.0168L22.8838 22.8838L23.0048 22.7436C23.3276 22.3086 23.3316 21.7116 23.0168 21.2726L22.8838 21.116L18.7683 16.9999L22.8838 12.8838L23.0048 12.7436C23.3276 12.3086 23.3316 11.7116 23.0168 11.2726L22.8838 11.116L22.7436 10.995L22.8838 11.116Z" fill="white" fill-opacity="0.8"/>
</svg>
