<svg width="18" height="18" viewBox="0 0 18 18" fill="none" xmlns="http://www.w3.org/2000/svg">
<path d="M9.00003 0.665771C13.6031 0.665771 17.3347 4.39731 17.3347 9.0004C17.3347 13.6035 13.6031 17.335 9.00003 17.335C4.39694 17.335 0.665405 13.6035 0.665405 9.0004C0.665405 4.39731 4.39694 0.665771 9.00003 0.665771ZM8.99686 7.54126C8.5695 7.54154 8.21748 7.86347 8.16961 8.27795L8.16407 8.37514L8.16707 12.9598L8.17274 13.057C8.22115 13.4714 8.57359 13.7929 9.00095 13.7926C9.42831 13.7923 9.78033 13.4704 9.82819 13.0559L9.83374 12.9587L9.83074 8.37405L9.82507 8.27686C9.77666 7.86245 9.42422 7.54098 8.99686 7.54126ZM9.0004 4.41663C8.42441 4.41663 7.95747 4.88357 7.95747 5.45957C7.95747 6.03556 8.42441 6.5025 9.0004 6.5025C9.5764 6.5025 10.0433 6.03556 10.0433 5.45957C10.0433 4.88357 9.5764 4.41663 9.0004 4.41663Z" fill="#C5D3E6"/>
</svg>
