<svg width="92" height="100" viewBox="0 0 92 100" fill="none" xmlns="http://www.w3.org/2000/svg">
<path d="M46 4.25532C48.5438 4.25532 50.9816 4.68085 52.6774 5.42553C52.7834 5.42553 59.4608 8.51064 66.8802 12.8723C74.1935 17.234 80.235 21.7021 80.235 21.7021C83.4147 24.0426 86.4885 29.6808 86.9124 33.617C86.9124 33.7234 87.6544 41.1702 87.6544 49.8936C87.6544 58.617 86.9124 66.1702 86.9124 66.1702C86.4885 70.2128 83.3087 75.7447 80.235 78.0851C80.129 78.0851 74.1935 82.5532 66.8802 86.9149C59.5668 91.2766 52.7834 94.3617 52.6774 94.3617C50.9816 95.1064 48.5438 95.5319 46 95.5319C43.4562 95.5319 41.0184 95.1064 39.3226 94.3617C39.2166 94.3617 32.5392 91.2766 25.1198 86.9149C17.8065 82.5532 11.765 78.0851 11.765 78.0851C8.58525 75.7447 5.51152 70.1064 5.08756 66.1702C5.08756 66.0638 4.34562 58.617 4.34562 49.8936C4.34562 41.1702 5.08756 33.617 5.08756 33.617C5.51152 29.5745 8.69124 24.0426 11.765 21.7021C11.871 21.7021 17.8065 17.234 25.1198 12.8723C32.4332 8.51064 39.2166 5.42553 39.3226 5.42553C41.0184 4.68085 43.4562 4.25532 46 4.25532ZM46 0C42.9263 0 39.8525 0.531915 37.6267 1.59574C37.6267 1.59574 30.7373 4.68085 23 9.25532C15.3687 13.8298 9.2212 18.2979 9.2212 18.2979C5.08756 21.383 1.37788 28.0851 0.847926 33.1915C0.847926 33.1915 0 40.8511 0 50C0 59.0426 0.847926 66.8085 0.847926 66.8085C1.37788 71.9149 5.19355 78.617 9.2212 81.7021C9.2212 81.7021 15.3687 86.2766 23 90.8511C30.6313 95.4255 37.6267 98.5106 37.6267 98.5106C39.9585 99.5745 43.0323 100.106 46 100.106C48.9677 100.106 52.1475 99.5745 54.3733 98.5106C54.3733 98.5106 61.2627 95.4255 69 90.8511C76.6313 86.2766 82.7788 81.7021 82.7788 81.7021C86.9124 78.617 90.6221 71.9149 91.1521 66.8085C91.1521 66.8085 92 59.1489 92 50C92 40.9574 91.1521 33.1915 91.1521 33.1915C90.6221 28.0851 86.8064 21.383 82.7788 18.2979C82.7788 18.2979 76.6313 13.7234 69 9.25532C61.3687 4.68085 54.3733 1.59574 54.3733 1.59574C52.1475 0.531915 49.0737 0 46 0Z" fill="white"/>
<path d="M45.4583 42.1667C48.3804 42.1667 50.179 44.2664 50.3238 47.2127L50.3333 47.6017V52.1853L55.1415 53.0584C55.3296 53.0925 55.5163 53.1343 55.701 53.1837C59.3287 54.1529 61.5345 57.7843 60.7788 61.4154L60.6865 61.8043L58.4155 70.3044C57.943 72.0728 56.5242 73.417 54.7562 73.8067L54.3981 73.8717L49.1586 74.6235C47.1553 74.911 45.1975 73.9312 44.218 72.1894L44.046 71.854L43.983 71.7185C43.4742 70.6248 42.7106 69.6722 41.7592 68.9388L41.3402 68.6382L37.2588 65.9172L37.0553 65.7907L36.8443 65.6773L31.7247 63.1304C31.1841 62.8615 30.8372 62.3151 30.8238 61.7115C30.7706 59.3096 31.8325 57.4564 33.8982 56.4235C35.4189 55.6632 37.4408 55.7061 40.0217 56.4595L40.5833 56.6318V47.6017C40.5833 44.453 42.4092 42.1667 45.4583 42.1667ZM45.4583 45.4167C44.4617 45.4167 43.9148 46.0124 43.8417 47.2938L43.8333 47.6017V58.9638C43.8333 60.1208 42.6585 60.9071 41.5889 60.4661C38.4242 59.1612 36.2991 58.8567 35.3517 59.3304C34.8013 59.6056 34.4412 59.9607 34.2471 60.4549L34.1638 60.7139L38.2918 62.7674L38.6837 62.9781L39.0615 63.2131L43.143 65.934C44.6222 66.9201 45.8313 68.2557 46.6657 69.8186L46.9298 70.3478L46.9928 70.4833C47.2615 71.061 47.8385 71.4216 48.4617 71.423L48.697 71.4065L53.9365 70.6546C54.5002 70.5738 54.9741 70.2054 55.1963 69.6934L55.2756 69.4656L57.5466 60.9654C58.0871 58.9423 56.8852 56.8641 54.8621 56.3235L54.7122 56.2867L48.418 55.1406C47.7224 55.0143 47.1978 54.4565 47.0998 53.7736L47.0833 53.5418V47.6017C47.0833 46.1076 46.5316 45.4167 45.4583 45.4167ZM45.4558 31.3333C54.132 31.3333 61.1654 38.3668 61.1654 47.043C61.1654 49.1795 60.7389 51.2164 59.9664 53.0732C59.1531 52.3543 58.2018 51.7727 57.1399 51.3727C57.6421 50.0254 57.9154 48.5661 57.9154 47.043C57.9154 40.1617 52.3371 34.5833 45.4558 34.5833C38.5745 34.5833 32.9961 40.1617 32.9961 47.043C32.9961 49.5424 33.732 51.87 34.9991 53.8208C34.2673 53.9402 33.5786 54.1609 32.9293 54.4856C32.5805 54.66 32.2518 54.8528 31.9436 55.063C30.5488 52.7178 29.7461 49.9741 29.7461 47.043C29.7461 38.3668 36.7796 31.3333 45.4558 31.3333ZM45.4558 36.7539C51.1383 36.7539 55.7449 41.3605 55.7449 47.043C55.7449 48.3823 55.489 49.6617 55.0235 50.8353L52.5 50.3766V47.6017L52.4911 47.1796L52.4949 47.043C52.4949 45.5684 52.0415 44.1997 51.2664 43.0687L51.073 42.7816C49.8638 41.0757 47.9326 40 45.4583 40C42.9123 40 40.9412 41.139 39.7403 42.9316C38.9079 44.0879 38.4166 45.5081 38.4166 47.043L38.4217 47.2829L38.4166 47.6017V53.8632L37.8487 53.7845C37.3343 53.7202 36.8601 53.4735 36.512 53.0894C35.6151 52.0995 35.1666 50.084 35.1666 47.043C35.1666 41.3605 39.7732 36.7539 45.4558 36.7539Z" fill="white"/>
</svg>
