<svg width="92" height="100" viewBox="0 0 92 100" fill="none" xmlns="http://www.w3.org/2000/svg">
<path d="M46 4.25532C48.5438 4.25532 50.9816 4.68085 52.6774 5.42553C52.7834 5.42553 59.4608 8.51064 66.8802 12.8723C74.1935 17.234 80.235 21.7021 80.235 21.7021C83.4147 24.0426 86.4885 29.6808 86.9124 33.617C86.9124 33.7234 87.6544 41.1702 87.6544 49.8936C87.6544 58.617 86.9124 66.1702 86.9124 66.1702C86.4885 70.2128 83.3087 75.7447 80.235 78.0851C80.129 78.0851 74.1935 82.5532 66.8802 86.9149C59.5668 91.2766 52.7834 94.3617 52.6774 94.3617C50.9816 95.1064 48.5438 95.5319 46 95.5319C43.4562 95.5319 41.0184 95.1064 39.3226 94.3617C39.2166 94.3617 32.5392 91.2766 25.1198 86.9149C17.8065 82.5532 11.765 78.0851 11.765 78.0851C8.58525 75.7447 5.51152 70.1064 5.08756 66.1702C5.08756 66.0638 4.34562 58.617 4.34562 49.8936C4.34562 41.1702 5.08756 33.617 5.08756 33.617C5.51152 29.5745 8.69124 24.0426 11.765 21.7021C11.871 21.7021 17.8065 17.234 25.1198 12.8723C32.4332 8.51064 39.2166 5.42553 39.3226 5.42553C41.0184 4.68085 43.4562 4.25532 46 4.25532ZM46 0C42.9263 0 39.8525 0.531915 37.6267 1.59574C37.6267 1.59574 30.7373 4.68085 23 9.25532C15.3687 13.8298 9.2212 18.2979 9.2212 18.2979C5.08756 21.383 1.37788 28.0851 0.847926 33.1915C0.847926 33.1915 0 40.8511 0 50C0 59.0426 0.847926 66.8085 0.847926 66.8085C1.37788 71.9149 5.19355 78.617 9.2212 81.7021C9.2212 81.7021 15.3687 86.2766 23 90.8511C30.6313 95.4255 37.6267 98.5106 37.6267 98.5106C39.9585 99.5745 43.0323 100.106 46 100.106C48.9677 100.106 52.1475 99.5745 54.3733 98.5106C54.3733 98.5106 61.2627 95.4255 69 90.8511C76.6313 86.2766 82.7788 81.7021 82.7788 81.7021C86.9124 78.617 90.6221 71.9149 91.1521 66.8085C91.1521 66.8085 92 59.1489 92 50C92 40.9574 91.1521 33.1915 91.1521 33.1915C90.6221 28.0851 86.8064 21.383 82.7788 18.2979C82.7788 18.2979 76.6313 13.7234 69 9.25532C61.3687 4.68085 54.3733 1.59574 54.3733 1.59574C52.1475 0.531915 49.0737 0 46 0Z" fill="white"/>
<path d="M57.9166 52C64.498 52 69.8333 57.3353 69.8333 63.9167C69.8333 70.4981 64.498 75.8333 57.9166 75.8333C51.3352 75.8333 46 70.4981 46 63.9167C46 57.3353 51.3352 52 57.9166 52ZM57.9166 56.3317L57.7219 56.3491C57.2797 56.4294 56.931 56.7781 56.8507 57.2203L56.8333 57.415L56.8325 62.8317L51.4115 62.8333L51.2168 62.8508C50.7746 62.9311 50.4259 63.2797 50.3457 63.7219L50.3282 63.9167L50.3457 64.1114C50.4259 64.5536 50.7746 64.9023 51.2168 64.9826L51.4115 65L56.8347 64.9984L56.8357 70.4242L56.8531 70.619C56.9334 71.0612 57.2821 71.4098 57.7243 71.4901L57.919 71.5076L58.1138 71.4901C58.556 71.4098 58.9046 71.0612 58.9849 70.619L59.0024 70.4242L59.0014 64.9984L64.4265 65L64.6212 64.9826C65.0634 64.9023 65.4121 64.5536 65.4924 64.1114L65.5098 63.9167L65.4924 63.7219C65.4121 63.2797 65.0634 62.9311 64.6212 62.8508L64.4265 62.8333L58.9992 62.8317L59 57.415L58.9825 57.2203C58.9022 56.7781 58.5536 56.4294 58.1114 56.3491L57.9166 56.3317ZM58.4583 30.3333C62.2132 30.3333 65.2817 33.2723 65.4888 36.9754L65.5 37.375L65.5026 52.049C64.4985 51.4058 63.4074 50.8866 62.2509 50.5129L62.25 41.9748L44.5901 51.2713C44.1841 51.4851 43.7101 51.5156 43.2846 51.3629L43.0765 51.2713L25.4166 41.977V57.9583C25.4166 59.9477 26.9487 61.5793 28.8973 61.7374L29.2083 61.75L43.9989 61.7502C43.8899 62.4564 43.8333 63.1799 43.8333 63.9167C43.8333 64.2814 43.8472 64.643 43.8744 65.0007L29.2083 65C25.4534 65 22.3849 62.061 22.1778 58.3579L22.1666 57.9583V37.375C22.1666 33.6201 25.1056 30.5516 28.8087 30.3445L29.2083 30.3333H58.4583ZM58.4583 33.5833H29.2083C27.2189 33.5833 25.5874 35.1154 25.4292 37.064L25.4166 37.375V38.3045L43.8333 47.997L62.25 38.3023V37.375C62.25 35.3856 60.7179 33.7541 58.7693 33.5959L58.4583 33.5833Z" fill="white"/>
</svg>
