<svg width="92" height="100" viewBox="0 0 92 100" fill="none" xmlns="http://www.w3.org/2000/svg">
<path d="M46 4.25532C48.5438 4.25532 50.9816 4.68085 52.6774 5.42553C52.7834 5.42553 59.4608 8.51064 66.8802 12.8723C74.1935 17.234 80.235 21.7021 80.235 21.7021C83.4147 24.0426 86.4885 29.6808 86.9124 33.617C86.9124 33.7234 87.6544 41.1702 87.6544 49.8936C87.6544 58.617 86.9124 66.1702 86.9124 66.1702C86.4885 70.2128 83.3087 75.7447 80.235 78.0851C80.129 78.0851 74.1935 82.5532 66.8802 86.9149C59.5668 91.2766 52.7834 94.3617 52.6774 94.3617C50.9816 95.1064 48.5438 95.5319 46 95.5319C43.4562 95.5319 41.0184 95.1064 39.3226 94.3617C39.2166 94.3617 32.5392 91.2766 25.1198 86.9149C17.8065 82.5532 11.765 78.0851 11.765 78.0851C8.58525 75.7447 5.51152 70.1064 5.08756 66.1702C5.08756 66.0638 4.34562 58.617 4.34562 49.8936C4.34562 41.1702 5.08756 33.617 5.08756 33.617C5.51152 29.5745 8.69124 24.0426 11.765 21.7021C11.871 21.7021 17.8065 17.234 25.1198 12.8723C32.4332 8.51064 39.2166 5.42553 39.3226 5.42553C41.0184 4.68085 43.4562 4.25532 46 4.25532ZM46 0C42.9263 0 39.8525 0.531915 37.6267 1.59574C37.6267 1.59574 30.7373 4.68085 23 9.25532C15.3687 13.8298 9.2212 18.2979 9.2212 18.2979C5.08756 21.383 1.37788 28.0851 0.847926 33.1915C0.847926 33.1915 0 40.8511 0 50C0 59.0426 0.847926 66.8085 0.847926 66.8085C1.37788 71.9149 5.19355 78.617 9.2212 81.7021C9.2212 81.7021 15.3687 86.2766 23 90.8511C30.6313 95.4255 37.6267 98.5106 37.6267 98.5106C39.9585 99.5745 43.0323 100.106 46 100.106C48.9677 100.106 52.1475 99.5745 54.3733 98.5106C54.3733 98.5106 61.2627 95.4255 69 90.8511C76.6313 86.2766 82.7788 81.7021 82.7788 81.7021C86.9124 78.617 90.6221 71.9149 91.1521 66.8085C91.1521 66.8085 92 59.1489 92 50C92 40.9574 91.1521 33.1915 91.1521 33.1915C90.6221 28.0851 86.8064 21.383 82.7788 18.2979C82.7788 18.2979 76.6313 13.7234 69 9.25532C61.3687 4.68085 54.3733 1.59574 54.3733 1.59574C52.1475 0.531915 49.0737 0 46 0Z" fill="white"/>
<path d="M45.4624 28.3324C48.7554 28.3324 51.4248 31.0018 51.4248 34.2948V65.7083C51.4248 69.0012 48.7554 71.6707 45.4624 71.6707C42.1695 71.6707 39.5 69.0012 39.5 65.7083V34.2948C39.5 31.0018 42.1695 28.3324 45.4624 28.3324ZM60.6291 39.1657C63.922 39.1657 66.5915 41.8352 66.5915 45.1281V65.7083C66.5915 69.0012 63.922 71.6707 60.6291 71.6707C57.3362 71.6707 54.6667 69.0012 54.6667 65.7083V45.1281C54.6667 41.8352 57.3362 39.1657 60.6291 39.1657ZM30.2958 49.9991C33.5887 49.9991 36.2581 52.6685 36.2581 55.9615V65.7083C36.2581 69.0012 33.5887 71.6707 30.2958 71.6707C27.0028 71.6707 24.3334 69.0012 24.3334 65.7083V55.9615C24.3334 52.6685 27.0028 49.9991 30.2958 49.9991ZM45.4624 31.5824C43.9644 31.5824 42.75 32.7968 42.75 34.2948V65.7083C42.75 67.2063 43.9644 68.4207 45.4624 68.4207C46.9604 68.4207 48.1748 67.2063 48.1748 65.7083V34.2948C48.1748 32.7968 46.9604 31.5824 45.4624 31.5824ZM60.6291 42.4157C59.1311 42.4157 57.9167 43.6301 57.9167 45.1281V65.7083C57.9167 67.2063 59.1311 68.4207 60.6291 68.4207C62.1271 68.4207 63.3415 67.2063 63.3415 65.7083V45.1281C63.3415 43.6301 62.1271 42.4157 60.6291 42.4157ZM30.2958 53.2491C28.7978 53.2491 27.5834 54.4634 27.5834 55.9615V65.7083C27.5834 67.2063 28.7978 68.4207 30.2958 68.4207C31.7938 68.4207 33.0081 67.2063 33.0081 65.7083V55.9615C33.0081 54.4634 31.7938 53.2491 30.2958 53.2491Z" fill="white"/>
</svg>
