<svg width="92" height="100" viewBox="0 0 92 100" fill="none" xmlns="http://www.w3.org/2000/svg">
<g clip-path="url(#clip0)">
<path d="M45.9999 4.25532C48.5437 4.25532 50.9815 4.68085 52.6774 5.42553C52.7833 5.42553 59.4608 8.51064 66.8801 12.8723C74.1935 17.234 80.235 21.7021 80.235 21.7021C83.4147 24.0426 86.4884 29.6808 86.9124 33.617C86.9124 33.7234 87.6543 41.1702 87.6543 49.8936C87.6543 58.617 86.9124 66.1702 86.9124 66.1702C86.4884 70.2128 83.3087 75.7447 80.235 78.0851C80.129 78.0851 74.1935 82.5532 66.8801 86.9149C59.5668 91.2766 52.7833 94.3617 52.6774 94.3617C50.9815 95.1064 48.5437 95.5319 45.9999 95.5319C43.4562 95.5319 41.0184 95.1064 39.3225 94.3617C39.2165 94.3617 32.5391 91.2766 25.1198 86.9149C17.8064 82.5532 11.7649 78.0851 11.7649 78.0851C8.58519 75.7447 5.51146 70.1064 5.0875 66.1702C5.0875 66.0638 4.34556 58.617 4.34556 49.8936C4.34556 41.1702 5.0875 33.617 5.0875 33.617C5.51146 29.5745 8.69118 24.0426 11.7649 21.7021C11.8709 21.7021 17.8064 17.234 25.1198 12.8723C32.4331 8.51064 39.2165 5.42553 39.3225 5.42553C41.0184 4.68085 43.4562 4.25532 45.9999 4.25532ZM45.9999 0C42.9262 0 39.8525 0.531915 37.6267 1.59574C37.6267 1.59574 30.7373 4.68085 22.9999 9.25532C15.3686 13.8298 9.22114 18.2979 9.22114 18.2979C5.0875 21.383 1.37782 28.0851 0.847865 33.1915C0.847865 33.1915 -6.10352e-05 40.8511 -6.10352e-05 50C-6.10352e-05 59.0426 0.847865 66.8085 0.847865 66.8085C1.37782 71.9149 5.19349 78.617 9.22114 81.7021C9.22114 81.7021 15.3686 86.2766 22.9999 90.8511C30.6313 95.4255 37.6267 98.5106 37.6267 98.5106C39.9585 99.5745 43.0322 100.106 45.9999 100.106C48.9677 100.106 52.1474 99.5745 54.3732 98.5106C54.3732 98.5106 61.2626 95.4255 68.9999 90.8511C76.6313 86.2766 82.7787 81.7021 82.7787 81.7021C86.9124 78.617 90.6221 71.9149 91.152 66.8085C91.152 66.8085 91.9999 59.1489 91.9999 50C91.9999 40.9574 91.152 33.1915 91.152 33.1915C90.6221 28.0851 86.8064 21.383 82.7787 18.2979C82.7787 18.2979 76.6313 13.7234 68.9999 9.25532C61.3686 4.68085 54.3732 1.59574 54.3732 1.59574C52.1474 0.531915 49.0737 0 45.9999 0Z" fill="white"/>
<path d="M46 30.3333C54.3763 30.3333 61.1666 37.1237 61.1666 45.5C61.1666 49.6318 59.5144 53.3777 56.8347 56.1131L56.8316 72.0421C56.8316 73.2812 55.5173 74.0363 54.4651 73.489L54.2712 73.3709L45.9979 67.5474L37.7291 73.3707C36.7158 74.0843 35.3416 73.4442 35.1834 72.2686L35.1684 72.0421L35.1653 56.1131C32.4855 53.3777 30.8333 49.6318 30.8333 45.5C30.8333 37.1237 37.6237 30.3333 46 30.3333ZM53.5816 68.9111L53.582 58.6384C51.3515 59.9284 48.762 60.6667 46 60.6667C43.238 60.6667 40.6484 59.9284 38.4179 58.6384L38.4184 68.9102L45.062 64.2314C45.553 63.8857 46.1876 63.8424 46.7145 64.1016L46.933 64.2312L53.5816 68.9111L53.582 58.6384L53.5816 68.9111ZM46 33.5833C39.4186 33.5833 34.0833 38.9186 34.0833 45.5C34.0833 52.0814 39.4186 57.4167 46 57.4167C52.5814 57.4167 57.9166 52.0814 57.9166 45.5C57.9166 38.9186 52.5814 33.5833 46 33.5833Z" fill="white"/>
</g>
<defs>
<clipPath id="clip0">
<rect width="92" height="100" fill="white"/>
</clipPath>
</defs>
</svg>
