<svg width="92" height="100" viewBox="0 0 92 100" fill="none" xmlns="http://www.w3.org/2000/svg">
<path d="M46 4.25532C48.5438 4.25532 50.9816 4.68085 52.6774 5.42553C52.7834 5.42553 59.4608 8.51064 66.8802 12.8723C74.1935 17.234 80.235 21.7021 80.235 21.7021C83.4147 24.0426 86.4885 29.6808 86.9124 33.617C86.9124 33.7234 87.6544 41.1702 87.6544 49.8936C87.6544 58.617 86.9124 66.1702 86.9124 66.1702C86.4885 70.2128 83.3087 75.7447 80.235 78.0851C80.129 78.0851 74.1935 82.5532 66.8802 86.9149C59.5668 91.2766 52.7834 94.3617 52.6774 94.3617C50.9816 95.1064 48.5438 95.5319 46 95.5319C43.4562 95.5319 41.0184 95.1064 39.3226 94.3617C39.2166 94.3617 32.5392 91.2766 25.1198 86.9149C17.8065 82.5532 11.765 78.0851 11.765 78.0851C8.58525 75.7447 5.51152 70.1064 5.08756 66.1702C5.08756 66.0638 4.34562 58.617 4.34562 49.8936C4.34562 41.1702 5.08756 33.617 5.08756 33.617C5.51152 29.5745 8.69124 24.0426 11.765 21.7021C11.871 21.7021 17.8065 17.234 25.1198 12.8723C32.4332 8.51064 39.2166 5.42553 39.3226 5.42553C41.0184 4.68085 43.4562 4.25532 46 4.25532ZM46 0C42.9263 0 39.8525 0.531915 37.6267 1.59574C37.6267 1.59574 30.7373 4.68085 23 9.25532C15.3687 13.8298 9.2212 18.2979 9.2212 18.2979C5.08756 21.383 1.37788 28.0851 0.847926 33.1915C0.847926 33.1915 0 40.8511 0 50C0 59.0426 0.847926 66.8085 0.847926 66.8085C1.37788 71.9149 5.19355 78.617 9.2212 81.7021C9.2212 81.7021 15.3687 86.2766 23 90.8511C30.6313 95.4255 37.6267 98.5106 37.6267 98.5106C39.9585 99.5745 43.0323 100.106 46 100.106C48.9677 100.106 52.1475 99.5745 54.3733 98.5106C54.3733 98.5106 61.2627 95.4255 69 90.8511C76.6313 86.2766 82.7788 81.7021 82.7788 81.7021C86.9124 78.617 90.6221 71.9149 91.1521 66.8085C91.1521 66.8085 92 59.1489 92 50C92 40.9574 91.1521 33.1915 91.1521 33.1915C90.6221 28.0851 86.8064 21.383 82.7788 18.2979C82.7788 18.2979 76.6313 13.7234 69 9.25532C61.3687 4.68085 54.3733 1.59574 54.3733 1.59574C52.1475 0.531915 49.0737 0 46 0Z" fill="white"/>
<path d="M46 28.3333C54.3764 28.3333 61.1667 35.1237 61.1667 43.5C61.1667 47.6318 59.5145 51.3777 56.8347 54.1131L56.8316 70.0421C56.8316 71.2812 55.5173 72.0363 54.4651 71.489L54.2713 71.3709L45.998 65.5474L37.7291 71.3707C36.7159 72.0843 35.3416 71.4442 35.1835 70.2686L35.1685 70.0421L35.1654 54.1131C32.4856 51.3777 30.8334 47.6318 30.8334 43.5C30.8334 35.1237 37.6237 28.3333 46 28.3333ZM53.5816 66.9111L53.5821 56.6384C51.3516 57.9284 48.762 58.6667 46 58.6667C43.2381 58.6667 40.6485 57.9284 38.418 56.6384L38.4185 66.9102L45.0621 62.2314C45.553 61.8857 46.1877 61.8424 46.7146 62.1016L46.9331 62.2312L53.5816 66.9111L53.5821 56.6384L53.5816 66.9111ZM46 31.5833C39.4186 31.5833 34.0834 36.9186 34.0834 43.5C34.0834 50.0814 39.4186 55.4167 46 55.4167C52.5814 55.4167 57.9167 50.0814 57.9167 43.5C57.9167 36.9186 52.5814 31.5833 46 31.5833Z" fill="white"/>
</svg>
