<svg width="100" height="100" viewBox="0 0 100 100" fill="none" xmlns="http://www.w3.org/2000/svg">
<path d="M73.3333 0H26.6667C11.9391 0 0 11.9391 0 26.6667V73.3333C0 88.0609 11.9391 100 26.6667 100H73.3333C88.0609 100 100 88.0609 100 73.3333V26.6667C100 11.9391 88.0609 0 73.3333 0Z" fill="white"/>
<path fill-rule="evenodd" clip-rule="evenodd" d="M11.6627 59.9644V62.7591C11.9314 63.3412 11.6 68.9216 15.8816 73.5524C19.133 77.0637 25.8509 78.4789 30.5714 77.2607C31.6194 76.9921 32.721 76.5621 33.6079 76.0694C34.5304 75.5589 35.4799 74.9409 36.1875 74.3407C39.6809 71.3759 41.6872 68.6171 43.6309 64.5864C47.2049 57.1787 48.9067 44.0564 43.183 37.3834C42.0814 36.1026 40.0929 34.7321 37.7192 34.2484C34.9782 33.6841 32.721 33.9437 30.7864 35.2784C26.8094 38.0104 26.7825 44.1371 31.8074 45.7314C33.5272 46.2779 35.5784 46.0361 37.0742 45.0686C37.316 44.9164 37.5042 44.7821 37.7102 44.6297C37.9072 44.4864 38.167 44.2894 38.2745 44.0834C37.334 44.5581 36.5905 45.3016 34.8529 45.0866C33.572 44.9252 32.6315 44.2266 32.0224 43.4922C30.2937 41.4409 31.1984 36.7026 35.5425 35.3411C39.3315 34.1499 42.2694 36.4876 44.0967 39.5511C48.835 47.4961 45.4492 61.1736 41.2572 67.7302C40.675 68.6349 40.048 69.5666 39.4032 70.3099C39.2329 70.5071 39.0985 70.6682 38.9105 70.8922C37.0384 73.1404 35.023 75.2186 31.888 76.1679C29.4337 76.9024 26.5227 76.8936 24.2029 76.0426C21.8112 75.1647 20.2437 73.8839 18.9897 72.3164C16.3563 69.0112 15.3173 63.1621 15.9622 57.9491C16.6519 52.3329 19.7152 45.1672 23.119 40.6527C23.6564 39.9362 24.6149 38.8882 25.2329 38.3329C25.4299 38.1537 25.5732 37.9836 25.7882 37.8132C25.9942 37.6521 26.227 37.4551 26.4152 37.3027C27.2304 36.6309 28.0812 36.0846 29.0487 35.5024C33.1152 33.0391 38.158 31.9822 42.986 34.2931C45.0462 35.2784 46.5689 36.7384 47.6437 38.5031C50.304 42.8204 49.6144 48.5977 48.4857 53.4794C47.9394 55.8621 47.1422 58.0834 46.4435 60.3676C45.7537 62.6426 45.064 64.8819 44.4012 67.1929C43.8907 68.9932 42.7174 72.6926 43.0309 74.6094C43.4697 77.2876 45.0192 78.7117 48.0827 78.2012C50.4474 77.8071 52.1582 76.5442 53.5644 74.7437C56.359 71.1609 58.1057 67.6944 60.1659 63.5472C61.1512 61.5499 62.0917 59.4897 62.9425 57.4564C63.3189 56.5607 65.164 52.0014 65.4327 51.0431C65.379 51.7507 65.1282 52.7717 65.0027 53.5332C64.8593 54.3931 64.734 55.2082 64.5997 56.0949C63.8294 61.4244 63.2202 67.3899 64.0622 72.7194C64.5729 75.9619 65.7372 79.1239 67.233 81.4347C68.487 83.3786 70.6995 85.3671 73.0105 86.0656C73.4045 86.1821 73.933 86.2001 74.2733 86.3612H75.7962C75.9932 86.2627 76.8979 86.1194 77.2562 86.0029C78.3669 85.6267 80.1852 84.5967 80.6957 83.8264C78.8864 84.2474 77.6145 84.5161 75.6887 83.9249C73.6554 83.2979 71.9894 81.6139 70.9592 79.8494C70.5652 79.1686 70.2875 78.6312 70.0009 77.8609C68.281 73.3196 68.6573 66.6106 69.1498 61.8454C69.8485 55.0649 71.1025 48.4454 72.7059 41.8977C74.6227 34.0692 77.7309 28.3187 81.9855 21.7531C82.3887 21.1351 82.7827 20.5529 83.1769 19.9886L84.395 18.2509C84.2965 18.1076 84.3502 18.1792 84.2249 18.0717L83.58 17.5074C83.2843 17.2476 82.944 16.9969 82.7738 16.7639C82.0482 16.9789 78.9939 20.0602 74.3809 19.8989C72.5715 19.8362 71.3982 19.1824 69.974 18.5644C67.457 17.4806 63.1039 16.6654 60.327 17.1671C58.1325 17.5701 56.2964 18.9316 55.1589 20.5886C53.7794 22.5861 53.233 24.5926 53.3315 27.1722C53.4569 27.1006 54.066 26.1869 54.2004 26.0077C54.5139 25.5957 54.7915 25.3091 55.1499 24.9419C57.7922 22.2367 60.5242 21.9859 64.4832 22.4607C66.8749 22.7474 68.8544 23.6341 71.2639 23.7864C73.118 23.9027 74.9094 23.6162 76.647 23.1146C77.1577 22.9712 77.722 22.7294 78.1877 22.6219C78.0265 22.9444 77.7489 23.2847 77.5248 23.5892C77.292 23.9027 77.1128 24.2162 76.88 24.5567C74.2107 28.4351 70.6815 34.8127 68.8364 39.0046C67.5377 41.9694 66.5524 45.2477 65.4417 48.4366C64.0443 52.4494 60.1927 62.5979 57.9535 66.6734C57.1562 68.1244 56.4217 69.3694 55.5529 70.7221C54.6035 72.1999 52.606 74.9677 51.146 75.9261C50.5459 76.3202 49.8114 76.9382 48.826 76.6786C47.9124 76.4367 47.6617 75.7291 47.572 74.6901C47.4019 72.5941 48.0289 71.2862 48.5125 69.3336C48.7275 68.4647 48.9335 67.6407 49.1934 66.7897C49.677 65.2044 50.3577 63.6996 50.8952 62.1052C53.5914 54.0347 57.1025 37.9029 46.6942 33.3974C41.9649 31.3552 35.3097 31.7762 30.5175 33.9976C28.7352 34.8216 29.6757 34.2752 27.8035 34.4006C26.872 34.4634 25.9852 34.6872 25.206 35.0097C23.6654 35.6457 22.2949 36.7474 21.3992 37.6521C20.2169 38.8524 18.0672 41.6201 17.2072 43.0712C16.813 43.7341 16.41 44.3879 16.0159 45.1044C14.1528 48.5351 12.5405 53.1569 11.9673 57.0981C11.8956 57.5997 11.7433 59.7584 11.6627 59.9644Z" fill="black"/>
</svg>
