<svg width="72" height="70" viewBox="0 0 72 70" fill="none" xmlns="http://www.w3.org/2000/svg">
<path d="M37.7547 5.63409L37.8387 7.49286L37.3559 8.89898L36.5825 10.2088L35.9051 11.6631L35.6625 12.6815H35.1317L34.6969 12.7297L34.3582 13.0692L34.2141 13.7L34.4087 14.8148L34.6993 15.4456L34.8939 16.1246L34.3126 16.3196L33.5872 15.932L33.0059 16.2715L32.5711 17.2418L31.9899 18.2602L31.459 18.8429L30.7336 18.4071L30.6375 17.4368L30.5895 15.9344L30.2988 15.5467V14.7161H30.6856L30.9762 15.395L31.411 15.6382L32.0883 15.395L32.427 14.6679V13.6976L32.6696 12.9223L31.9418 12.4865L31.1684 11.8557L31.0243 11.273L31.459 10.789L31.8938 10.6927L32.3766 10.9359L32.4246 8.94954L33.102 8.85323L33.0539 8.07794L32.4727 7.93348L31.5551 7.78901L31.2164 8.0322L30.8297 8.51615L30.2988 8.75933L30.6375 8.22722L31.3149 6.96798L31.7497 6.33715L31.5071 5.61002L31.0243 4.93104L31.1684 4.01128L31.411 3.18784L32.2277 1.63967L37.7547 5.63409ZM28.5502 0L28.507 0.854745L28.1202 1.63003L28.0722 2.79297L27.1546 3.61641L26.6718 4.3917L26.6238 5.79782L25.9945 6.42865L25.7038 7.78661L24.9784 8.94954L24.4956 10.2569L24.3995 11.3717L24.4476 12.826L24.7382 13.505L25.221 14.3766L25.1249 15.0074L24.3995 17.0419L24.4956 18.3012L25.0265 19.5604L25.5573 20.1912L26.2827 20.5307L27.2507 20.9184L27.9761 20.9665L28.6054 21.4505L29.0882 21.5949L29.3308 21.111L29.7176 21.0147L30.2988 21.0628L30.7336 20.8678L31.9418 20.4802L32.5711 20.1888L32.9579 20.432L33.1524 21.3036L32.7177 21.8357L32.0379 22.2763L32.2805 23.1479L32.8113 23.3911L33.2461 23.8269L34.5024 24.0219L35.1317 24.5541L35.8571 24.6504L37.3079 24.7948L38.372 24.843L39.2415 24.3109L39.8228 24.6504L40.1134 24.8935L41.031 24.6985L41.5138 24.5541L42.3833 24.8454L43.5915 24.6022L44.7517 24.2146L46.4451 23.5356L46.5892 22.9048H47.4107L47.7014 22.469L47.4612 22.0356L47.8479 21.2121L49.3467 20.001L50.4589 18.8863L51.1362 17.6752L51.3308 16.7554L51.0882 16.4159L50.7015 16.0764L50.4589 15.5925L51.3908 15.5082L56.5984 19.2763L57.1292 20.9738L58.5872 22.4497L60.1221 24.3061L60.1918 24.4601L60.3455 24.6022L60.9532 25.3269L62.3223 27.0148L66.3649 32.0469L66.7564 32.4225L66.8885 32.4346L68.2937 34.9627L72 35.9691L65.3561 48.5375L65.0534 52.3345L66.6724 55.2599L63.5858 56.9693L68.6108 63.8723L71.9231 68.4903L69.2953 69.7087L68.6828 70L68.5267 69.9543L68.4619 69.9013L67.3665 68.1171L67.0062 67.4502L65.0846 65.329L64.3448 64.8691L63.4993 64.4213L61.3495 63.9253L60.6193 63.9205L60.4704 63.9686L60.1365 64.154L59.9492 64.3683L59.6681 64.9221L59.5456 65.3723L59.3727 65.5577H59.0148L58.4743 65.211L58.4143 64.9317L58.3254 64.7222L57.8402 64.1757L57.6697 64.0288L57.4919 63.959L56.9731 63.8723L56.6344 63.7327L55.2028 62.6396L53.226 60.8795L52.8488 60.5183L52.0442 59.5793L50.8023 58.4164L50.6366 58.3418L50.4757 58.1853L50.3868 58.0745L49.647 56.7767L49.5485 56.1844L49.5389 55.5512L49.4981 55.4115L49.4044 55.296L48.1361 55.0263L47.1129 55.361L46.6565 55.5632L46.0151 56.8225L45.9623 56.6949L45.8422 56.5504L45.7101 56.4565L45.1288 56.2567L44.9342 56.1339L44.5067 55.6066L44.4659 55.6162L44.3866 55.5319L44.1752 55.5801L43.8726 55.2815L43.8269 55.0865L43.8726 55.0046L44.0071 54.8963L44.6844 54.8481L44.7685 54.7398L44.7205 54.5472L44.598 54.3714L44.4995 54.1379L44.4466 53.9115L44.4082 53.365L44.1056 52.9701L44.0984 52.8088L44.1416 52.6932L44.4034 52.5536L44.5043 52.5993L44.7085 52.6234L44.819 52.5969L44.927 52.4934L44.9871 52.3995L44.9919 52.2454L44.8742 51.9589L44.7589 51.824L44.5211 51.6796L44.1007 51.6218L43.9614 51.564L43.7645 51.393L43.5651 51.1234L43.4018 50.7959L43.2504 50.6611L42.7772 50.507L42.5274 50.3047L42.453 50.4372L42.3425 50.7815L42.256 50.8657L42.1359 50.8682L41.7036 50.7357L41.5402 50.6515L41.4297 50.6563L41.3 50.6057L40.8268 50.5961L40.4497 50.6852H40.087L39.7651 50.7237L37.9853 50.7478L37.8483 50.6394L37.673 50.3023L37.5169 50.2301L37.3055 49.9749L36.3351 49.0046L36.3255 48.9083L36.436 48.6097L36.4095 48.3136L35.5905 47.2421L35.4776 47.1314L35.2109 46.9724L35.1149 46.958L34.853 47.0302L34.6225 47.2156L34.4855 47.2734L33.861 47.2325L33.6929 47.1795L33.3134 46.9724L32.7681 46.8135L32.6072 46.7365L32.1916 46.3753L31.1852 45.2678L30.0298 43.9796L29.29 43.0406L29.1747 42.9371L29.1675 43.1417L29.093 43.4259L29.1171 43.5583L29.3308 43.7726L29.3405 43.8424L29.2996 43.9676L29.2179 44.0206L29.1171 44.0182L28.985 43.9435H28.8336L28.7111 44.0952V44.1361L28.8769 44.2734L28.9393 44.3745L28.8384 44.8994L28.764 45.0174L28.6463 45.0896L28.37 45.0005L27.7335 45.1209L27.4765 45.1353L27.1594 44.9813L26.8688 44.9235L26.583 44.7862L26.2251 44.6875L25.5285 44.543L25.3123 44.5503L24.9712 44.6875L24.7214 44.832L24.1617 45.2991L24.0128 45.3135L23.9143 45.3978L23.8711 45.5639L23.948 45.7469L24.3947 46.072L24.964 46.3922L25.2018 46.4837L25.5261 46.5439L25.6342 46.6739L26.2755 48.1667L26.5878 48.6603L26.7247 48.824L26.7703 49.0503L26.7607 49.3417L26.8664 49.438L26.9937 49.4067L27.7503 49.8834L27.9809 50.0736L28.0121 50.2446L27.8896 50.495L27.8008 50.5576L27.6975 50.5624L27.1907 50.442L26.7415 50.5335L26.6958 50.3722L26.7247 49.8858L26.6982 49.633L26.5037 48.9444L26.3331 48.6217L26.1194 48.3834L25.8191 48.1811L24.6541 47.8802L24.462 47.8922L23.9383 48.1643L23.6261 48.2798L23.5805 48.2558L23.5348 48.0824L23.3138 47.9259L23.2442 47.8368L23.1793 47.5479L22.9751 47.3673L22.7446 47.324L22.4011 47.3986L22.1633 47.5623L22.036 47.5599L21.9711 47.6298L21.875 48.0704L21.8054 48.2509L21.7285 48.2197L21.5508 48.0126L21.4451 47.9861L21.2841 48.0391L21.2313 48.133L21.164 48.5062L21.2457 48.694L21.4595 48.8914L21.5652 49.0648L21.6444 49.3248L21.6396 49.4548L21.5508 49.7076L21.558 50.0471L21.5003 50.3144L21.5291 50.6876L21.4811 51.0752L21.4379 51.2197L21.3562 51.3136L21.2433 51.3521L21.0391 51.3449L20.6404 51.1788L20.5347 51.2028L20.4675 51.328L20.3858 51.617L20.5539 51.9059L20.6596 52.1707L20.614 52.2719L20.405 52.3008L19.67 52.1756L19.0479 52.3898L18.6227 52.6138L18.445 52.6571L18.3008 52.6523L17.9117 52.4139L17.4626 52.3248L16.9125 52.2815L15.6707 52.3489L15.1999 52.5247L14.5946 52.8232L14.0685 53.2085L13.7659 53.4709L13.4968 53.8586L13.3984 54.068L13.235 54.4509L12.978 55.2526L12.8315 55.4573L12.5601 55.7221L12.3895 55.8257L12.0605 55.9485L11.5416 56.1026L11.3663 56.2085L11.1597 56.3987L10.9387 56.861L10.8643 57.3522L10.7562 57.7928L10.7682 58.4549L10.8402 59.1002L10.8066 59.7575L10.9411 60.3281L11.0372 60.5665L11.1285 60.6869L11.1237 60.7447L11.2101 60.7832L11.3374 61.0312L11.3951 61.3081L11.4167 61.5007L11.3687 61.7944V62.3579L11.4696 63.1139L11.5416 63.3522L11.6329 63.5256L12.0773 64.1612L12.2958 64.1661L12.7642 64.0216L12.8675 64.1179L12.8771 64.2431L12.8003 64.4141L12.7042 64.5104L12.5769 64.5898L12.1013 64.756L11.8995 64.9462L11.789 65.158L11.7794 65.5192L11.7026 65.6805L11.5849 65.8105L11.4527 65.8804H11.1357L10.7033 65.7744L9.75213 65.6926L8.7553 65.5505L7.13394 65.4494L6.22839 65.4301L4.81601 65.2664L3.97771 65.2038L3.52614 65.2062L2.2819 65.093L0.019216 64.9991L0 9.00492L0.365104 8.91102L0.708591 8.75933L7.94822 6.38771L7.95303 6.35641L8.35416 6.28659L8.43583 6.20232L8.67843 6.12046L11.8347 5.10921L22.3218 1.85877L23.9191 1.32425L24.4524 1.2135L28.5502 0Z" fill="#2B5CA8"/>
</svg>
