<svg width="36" height="40" viewBox="0 0 36 40" fill="none" xmlns="http://www.w3.org/2000/svg">
<path d="M22.3125 0.833374C23.0403 0.833374 23.6417 1.37417 23.7369 2.07581L23.75 2.27087V6.58337H33.8125C34.6064 6.58337 35.25 7.22696 35.25 8.02087V37.7292C35.25 38.5231 34.6064 39.1667 33.8125 39.1667H28.0625C27.2686 39.1667 26.625 38.5231 26.625 37.7292V32.4584H22.7917V37.7292C22.7917 38.5231 22.1481 39.1667 21.3542 39.1667H15.6042C14.8103 39.1667 14.1667 38.5231 14.1667 37.7292V8.02087C14.1667 7.22696 14.8103 6.58337 15.6042 6.58337H20.875V3.70837H3.625V37.7292C3.625 38.5231 2.98141 39.1667 2.1875 39.1667C1.45975 39.1667 0.858309 38.6259 0.763123 37.9243L0.75 37.7292V2.27087C0.75 1.54312 1.29079 0.941683 1.99244 0.846497L2.1875 0.833374H22.3125ZM32.375 9.45837H17.0417V36.2917H19.9167V31.0209C19.9167 30.227 20.5603 29.5834 21.3542 29.5834H28.0625C28.8564 29.5834 29.5 30.227 29.5 31.0209V36.2917H32.375V9.45837ZM10.3333 29.5834V33.4167H6.5V29.5834H10.3333ZM23.75 23.8334V27.6667H19.9167V23.8334H23.75ZM29.5 23.8334V27.6667H25.6667V23.8334H29.5ZM10.3333 23.8334V27.6667H6.5V23.8334H10.3333ZM23.75 18.0834V21.9167H19.9167V18.0834H23.75ZM29.5 18.0834V21.9167H25.6667V18.0834H29.5ZM10.3333 18.0834V21.9167H6.5V18.0834H10.3333ZM10.3333 12.3334V16.1667H6.5V12.3334H10.3333ZM23.75 12.3334V16.1667H19.9167V12.3334H23.75ZM29.5 12.3334V16.1667H25.6667V12.3334H29.5ZM10.3333 6.58337V10.4167H6.5V6.58337H10.3333Z" fill="#212121"/>
</svg>
