<svg width="34" height="38" viewBox="0 0 34 38" fill="none" xmlns="http://www.w3.org/2000/svg">
<path d="M10.375 18C15.6907 18 20 22.3093 20 27.625C20 32.9407 15.6907 37.25 10.375 37.25C5.05926 37.25 0.75 32.9407 0.75 27.625C0.75 22.3093 5.05926 18 10.375 18ZM20.2256 0.5C21.2695 0.5 22.2707 0.91456 23.0091 1.65254L27.9299 6.57074L32.8433 11.4915C33.5804 12.2298 33.9944 13.2304 33.9944 14.2737V31.5625C33.9944 33.7371 32.2315 35.5 30.0569 35.5L18.5819 35.5014C19.3281 34.7241 19.9649 33.841 20.4677 32.8769L30.0569 32.875C30.7818 32.875 31.3694 32.2874 31.3694 31.5625L31.368 14.5053L23.9375 14.5068C21.8535 14.5068 20.1476 12.8878 20.0091 10.8389L20 10.5693L19.9982 3.125H9.9375C9.21263 3.125 8.625 3.71263 8.625 4.4375L8.62341 16.384C7.70776 16.5255 6.82817 16.7763 5.99837 17.1225L6 4.4375C6 2.26288 7.76288 0.5 9.9375 0.5H20.2256ZM6.16283 23.191L6.04165 23.2922L5.9404 23.4134C5.73369 23.7118 5.73369 24.1101 5.9404 24.4085L6.04165 24.5297L9.13837 27.6262L6.04618 30.7181L5.94493 30.8393C5.73822 31.1377 5.73822 31.536 5.94493 31.8344L6.04618 31.9555L6.16736 32.0568C6.46576 32.2635 6.86404 32.2635 7.16243 32.0568L7.28362 31.9555L10.3756 28.8635L13.4714 31.9595L13.5926 32.0607C13.891 32.2674 14.2893 32.2674 14.5877 32.0607L14.7089 31.9595L14.8101 31.8383C15.0168 31.5399 15.0168 31.1416 14.8101 30.8432L14.7089 30.722L11.6129 27.6262L14.7137 24.5298L14.815 24.4086C15.0217 24.1102 15.0217 23.7119 14.815 23.4135L14.7137 23.2923L14.5925 23.1911C14.2941 22.9844 13.8959 22.9844 13.5975 23.1911L13.4763 23.2923L10.3756 26.389L7.27909 23.2922L7.1579 23.191C6.85951 22.9843 6.46122 22.9843 6.16283 23.191ZM22.6232 4.97825L22.625 10.5693C22.625 11.2338 23.1188 11.7829 23.7594 11.8698L23.9375 11.8818L29.5217 11.8803L22.6232 4.97825Z" fill="white"/>
</svg>
