<svg width="28" height="36" viewBox="0 0 28 36" fill="none" xmlns="http://www.w3.org/2000/svg">
<path d="M25.375 32C25.375 32.4813 24.983 32.875 24.5 32.875H3.5C3.017 32.875 2.625 32.4813 2.625 32V4C2.625 3.51875 3.017 3.125 3.5 3.125H14V11C14 12.932 15.568 14.5 17.5 14.5H25.375V32ZM16.625 5.08675L23.4115 11.875H17.5C17.017 11.875 16.625 11.4812 16.625 11V5.08675ZM26.9745 11.7245L16.7738 1.5255C16.7283 1.48 16.6723 1.445 16.625 1.403C16.5007 1.291 16.3783 1.18075 16.2418 1.088C16.1718 1.04075 16.0912 1.00925 16.0177 0.969C15.8935 0.899 15.771 0.822 15.6398 0.766C15.295 0.6225 14.924 0.55075 14.5477 0.5245C14.4655 0.51925 14.385 0.5 14.301 0.5H14.2992H14H3.5C1.568 0.5 0 2.068 0 4V32C0 33.932 1.568 35.5 3.5 35.5H24.5C26.432 35.5 28 33.932 28 32V14.5V14.199C28 13.2715 27.6307 12.3807 26.9745 11.7245Z" fill="white"/>
</svg>
