<svg width="74" height="45" viewBox="0 0 74 45" fill="none" xmlns="http://www.w3.org/2000/svg">
<path d="M12.4852 5.83956C14.4335 5.32817 16.5338 5.41967 18.4318 6.09265C20.2518 6.73956 21.8798 7.91929 23.0574 9.4523C24.2495 10.9888 24.986 12.8774 25.1346 14.8181C25.1849 15.3735 25.1861 15.9342 25.1363 16.4901C24.971 18.5861 24.1246 20.6195 22.7631 22.2185C21.1542 23.9994 19.5811 25.8139 17.9896 27.6098C17.7595 26.9357 17.6236 26.2297 17.5808 25.5185C18.892 24.0602 20.1835 22.5845 21.5011 21.132C22.5186 19.9378 23.1736 18.4546 23.4262 16.9083C23.4343 16.8973 23.4494 16.8747 23.4569 16.8631C23.4413 16.7195 23.4523 16.5764 23.4725 16.434C23.5309 15.9961 23.4898 15.5537 23.5101 15.1141C23.5055 15.0625 23.5026 15.0116 23.4956 14.9606L23.4927 14.9403C23.3875 14.0925 23.2123 13.2486 22.8828 12.4575C22.137 10.6071 20.7119 9.04574 18.9429 8.1301C17.5693 7.41079 15.9933 7.08878 14.4485 7.19998C12.5303 7.32682 10.6682 8.14284 9.26912 9.46388C8.03482 10.6135 7.15839 12.143 6.79128 13.7913C6.43862 15.3608 6.54095 17.0305 7.09248 18.5415C7.74056 20.3467 9.02747 21.9116 10.6676 22.9008C11.7175 23.5407 12.9096 23.9438 14.1317 24.0753C14.0959 24.6324 14.0861 25.1907 14.13 25.7479C12.6101 25.6152 11.1226 25.1259 9.81776 24.3336C8.0724 23.2824 6.656 21.6898 5.81945 19.8289C5.06095 18.1639 4.77998 16.2898 4.991 14.4741C5.23901 12.2519 6.2594 10.127 7.83075 8.54014C9.10031 7.23994 10.7283 6.29593 12.4852 5.83956Z" fill="white"/>
<path d="M6.66698 37.7739C9.82527 34.2353 12.9743 30.6885 16.1332 27.1505C16.2824 27.7899 16.4864 28.416 16.7477 29.0183C14.1693 31.9355 11.5961 34.8579 9.01879 37.7762C14.4046 37.7826 19.7904 37.7739 25.1768 37.7808C25.1722 38.3351 25.1756 38.8899 25.1745 39.4447C19.0047 39.4424 12.8356 39.4436 6.6664 39.4442C6.66524 38.887 6.66408 38.3305 6.66698 37.7739Z" fill="white"/>
<path d="M35.9015 5.57085C38.1163 5.32876 40.4086 5.839 42.3008 7.02104C44.1525 8.16081 45.6203 9.91505 46.4118 11.9438C46.776 12.8676 46.9986 13.8463 47.0813 14.8361C47.1188 15.3886 47.1194 15.9434 47.0801 16.4959C46.9205 18.4477 46.1805 20.3467 44.9728 21.8872C44.6346 22.3361 44.2271 22.7253 43.8623 23.1515C42.5517 24.6371 41.2399 26.122 39.9304 27.6093C39.7038 26.9363 39.5668 26.2332 39.52 25.5249C40.6936 24.2096 41.8631 22.8903 43.039 21.5774C44.2849 20.3039 45.1162 18.6301 45.3654 16.8637C45.4458 16.2874 45.4729 15.7019 45.4307 15.121C45.3197 13.1473 44.4757 11.2297 43.1101 9.80502C41.6602 8.27259 39.6212 7.31235 37.5145 7.19594C35.3662 7.0471 33.1745 7.77452 31.5355 9.17316C29.7861 10.6344 28.679 12.8317 28.5449 15.1095C28.0037 14.9739 27.4522 14.8842 26.8972 14.8274C27.0903 12.2977 28.2853 9.86641 30.1619 8.16428C31.7338 6.71641 33.7769 5.79093 35.9015 5.57085Z" fill="white"/>
<path d="M26.9019 16.5057C27.4829 16.5665 28.0604 16.6824 28.6148 16.8689C28.8779 18.7453 29.8029 20.5169 31.1823 21.8119C32.0778 22.6714 33.1739 23.3003 34.3406 23.7121C34.3637 23.7173 34.4099 23.7272 34.4336 23.7324C34.9794 23.8986 35.5379 24.0243 36.1067 24.0799C36.1547 24.6359 36.1518 25.1942 36.1114 25.7501L36.1044 25.7496C35.5529 25.7026 35.006 25.6077 34.4695 25.4721C32.4443 24.9555 30.592 23.7874 29.249 22.1843C27.9032 20.5963 27.0707 18.582 26.9019 16.5057Z" fill="white"/>
<path d="M28.6016 37.7908C31.7529 34.236 34.9228 30.6985 38.0741 27.1437C38.2198 27.7842 38.4239 28.4109 38.6858 29.0138C36.1154 31.9396 33.5324 34.8545 30.9597 37.7786C36.3426 37.7781 41.7261 37.7792 47.1096 37.7781C47.1091 38.3329 47.1096 38.8877 47.1091 39.4431C40.9405 39.442 34.7725 39.4425 28.6045 39.4425C28.6033 38.8918 28.6079 38.341 28.6016 37.7908Z" fill="white"/>
<path d="M53.4443 36.0355C54.2063 36.0367 54.9683 36.0367 55.7315 36.0355C55.7279 36.1877 55.7267 36.3411 55.7279 36.4957C55.43 36.4933 55.1345 36.4945 54.8389 36.4945C54.8401 37.4671 54.8377 38.4397 54.8413 39.4123C54.6728 39.4111 54.5066 39.4123 54.3416 39.4135C54.3416 38.4397 54.3416 37.4671 54.3428 36.4945C54.0437 36.4933 53.7458 36.4933 53.4491 36.4957C53.4467 36.3411 53.4443 36.1877 53.4443 36.0355Z" fill="white"/>
<path d="M57.2281 36.0616C57.6768 35.9213 58.2133 36.0474 58.5041 36.4338C58.9064 36.9427 58.7224 37.6406 58.7569 38.2399C58.796 38.813 58.3462 39.3635 57.7765 39.4277C57.1866 39.5347 56.5386 39.1043 56.4662 38.4979C56.4139 38.0164 56.4187 37.5289 56.4543 37.0473C56.465 36.5931 56.8127 36.2055 57.2281 36.0616ZM57.3017 36.5931C56.8673 36.8119 56.9397 37.3672 56.9184 37.7738C56.9457 38.1222 56.8887 38.5728 57.2187 38.8023C57.5451 39.0686 58.0934 38.8915 58.2061 38.486C58.2952 38.0092 58.2833 37.5134 58.2239 37.0354C58.161 36.6264 57.659 36.3874 57.3017 36.5931Z" fill="white"/>
<path d="M61.7467 36.0343C61.9449 36.0343 62.1419 36.0343 62.3437 36.0367C61.9947 36.4695 61.6636 36.9165 61.304 37.3422C61.6505 38.0508 62.0731 38.7203 62.4517 39.4123C62.2487 39.4099 62.0505 39.4111 61.8511 39.4099C61.5639 38.8582 61.2624 38.316 60.9716 37.7691C60.7817 37.9688 60.5942 38.1721 60.4055 38.3731C60.4007 38.7179 60.4007 39.0627 60.4031 39.4087C60.2334 39.4087 60.066 39.4111 59.8987 39.4134C59.9034 38.2875 59.9022 37.1615 59.8987 36.0355C60.066 36.0343 60.2346 36.0343 60.4043 36.0355C60.4007 36.6169 60.4007 37.1983 60.4043 37.7798C60.847 37.1948 61.3016 36.6181 61.7467 36.0343Z" fill="white"/>
<path d="M62.9395 36.0367C63.1163 36.0355 63.2955 36.0355 63.4759 36.0367C63.6955 36.5384 63.9305 37.0331 64.162 37.5301C64.3851 37.0283 64.6201 36.5337 64.8492 36.0343C65.026 36.0343 65.2017 36.0355 65.3821 36.0379C65.1044 36.5848 64.8397 37.1389 64.5608 37.6846C64.2474 38.2066 64.4539 38.8403 64.3946 39.4134C64.2759 39.4123 64.0373 39.4099 63.9186 39.4087C63.908 38.9462 63.9448 38.4813 63.9044 38.0211C63.616 37.3446 63.254 36.7001 62.9395 36.0367Z" fill="white"/>
<path d="M66.8313 36.0414C67.4556 35.8607 68.1856 36.2911 68.2699 36.9474C68.3066 37.5063 68.3328 38.0782 68.2437 38.6335C68.0384 39.4194 66.9477 39.7059 66.3673 39.1542C65.9815 38.8558 65.9613 38.335 65.9661 37.8915C65.9708 37.5146 65.9424 37.1282 66.0444 36.762C66.1631 36.41 66.4765 36.1377 66.8313 36.0414ZM66.8147 36.6062C66.3993 36.8297 66.48 37.3695 66.4646 37.7643C66.4824 38.1091 66.4171 38.5455 66.7281 38.7857C67.0604 39.0746 67.6396 38.9022 67.75 38.4706C67.8307 38.0057 67.8153 37.5253 67.7678 37.058C67.7144 36.6288 67.1803 36.3755 66.8147 36.6062Z" fill="white"/>
<path d="M55.9006 5.97273C57.9431 5.33277 60.1897 5.35941 62.2137 6.05728C64.51 6.83856 66.4982 8.48161 67.7042 10.5891C68.8726 12.6005 69.3044 15.0254 68.9171 17.3189C68.5708 19.4577 67.5076 21.4708 65.9415 22.9644C63.8781 24.977 60.9216 26.0229 58.0541 25.7519C58.179 24.0735 57.9096 22.3592 57.2147 20.8227C56.5088 19.2162 55.371 17.8059 53.961 16.7652C52.4735 15.666 50.6784 14.9843 48.8359 14.832C48.9955 12.853 49.7453 10.925 50.9808 9.37061C52.2318 7.77852 53.9685 6.57562 55.9006 5.97273Z" fill="white"/>
<path d="M48.8401 16.507C51.0664 16.7207 53.1771 17.8853 54.5658 19.6384C55.8798 21.2635 56.5424 23.389 56.4025 25.4745C54.2796 24.9307 52.3504 23.6705 50.993 21.9475C49.7599 20.3994 49.0025 18.4807 48.8401 16.507Z" fill="white"/>
<path d="M25.1346 14.8182C25.722 14.7991 26.3117 14.7672 26.8973 14.8274C27.4523 14.8842 28.0039 14.974 28.545 15.1095C30.3759 15.5763 32.0704 16.5736 33.3631 17.9543C34.9385 19.6037 35.9265 21.8039 36.1069 24.0799C35.538 24.0243 34.9795 23.8987 34.4338 23.7325C34.4159 23.6977 34.3979 23.6641 34.38 23.6305C34.0615 21.5045 32.8856 19.5301 31.1818 18.2253C30.4118 17.6311 29.5411 17.1666 28.615 16.8689C28.0605 16.6825 27.483 16.5666 26.902 16.5058C26.3152 16.4462 25.7243 16.4612 25.1364 16.4902C25.1861 15.9342 25.1849 15.3736 25.1346 14.8182Z" fill="white" fill-opacity="0.2"/>
<path d="M23.4956 14.9607C23.5026 15.0117 23.5055 15.0626 23.5101 15.1142C23.4899 15.5537 23.5309 15.9962 23.4725 16.4341C23.4523 16.5765 23.4413 16.7196 23.4569 16.8632C23.4494 16.8748 23.4344 16.8974 23.4263 16.9084C23.4274 16.8962 23.4291 16.8719 23.4303 16.8597C21.6763 17.4256 20.124 18.5821 19.0707 20.096C17.978 21.6632 17.4363 23.6115 17.5808 25.5186C17.6236 26.2298 17.7595 26.9358 17.9896 27.6099C18.629 29.5298 19.9749 31.1989 21.715 32.2263C23.665 33.3939 26.0955 33.7119 28.2814 33.1003C30.0481 32.6155 31.6385 31.5302 32.7456 30.0702C33.7614 28.7537 34.3522 27.1286 34.4696 25.4723C35.0061 25.6078 35.553 25.7028 36.1045 25.7497C35.9392 28.0813 34.9078 30.3366 33.274 32.0022C31.7622 33.5734 29.7278 34.6315 27.5726 34.9536C25.2323 35.3265 22.7649 34.8424 20.7461 33.5966C18.9915 32.5246 17.5681 30.9082 16.7478 29.0184C16.4864 28.4161 16.2824 27.79 16.1332 27.1507C15.5834 24.7286 15.9742 22.1091 17.197 19.9501C18.5226 17.5895 20.8253 15.7912 23.4511 15.1281C23.4656 15.0719 23.48 15.0163 23.4956 14.9607Z" fill="white" fill-opacity="0.2"/>
<path d="M47.0814 14.8361C47.6635 14.7758 48.2526 14.7828 48.836 14.832C50.6785 14.9843 52.4735 15.666 53.9611 16.7652C55.3711 17.8059 56.5089 19.2162 57.2147 20.8227C57.9096 22.3592 58.1791 24.0735 58.0542 25.7519C57.9339 27.205 57.5044 28.6326 56.7875 29.9021C56.025 31.2596 54.9468 32.4393 53.6599 33.3138C52.2562 34.2776 50.6045 34.8752 48.91 35.0276C46.7894 35.2395 44.6081 34.7507 42.7807 33.6527C40.9798 32.5818 39.523 30.9376 38.6858 29.0137C38.4239 28.4108 38.2199 27.7841 38.0742 27.1436C37.5764 24.926 37.8557 22.5416 38.8518 20.4984C40.1231 17.8633 42.5864 15.8183 45.4308 15.121C45.473 15.7019 45.4459 16.2874 45.3655 16.8637C43.5166 17.4596 41.8875 18.7111 40.8417 20.3507C39.8554 21.8716 39.3877 23.7167 39.5201 25.5249C39.5669 26.2332 39.7039 26.9362 39.9305 27.6092C40.5549 29.4805 41.8476 31.1212 43.5299 32.1498C45.3707 33.2971 47.6635 33.6776 49.7783 33.2108C51.3722 32.8638 52.8563 32.038 53.9963 30.8704C55.4104 29.4388 56.2868 27.4859 56.4025 25.4745C56.5424 23.3889 55.8799 21.2635 54.5658 19.6384C53.1771 17.8853 51.0664 16.7206 48.84 16.5069C48.2555 16.4374 47.6659 16.4571 47.0802 16.4959C47.1195 15.9434 47.1189 15.3886 47.0814 14.8361Z" fill="white" fill-opacity="0.2"/>
</svg>
