<svg width="74" height="45" viewBox="0 0 74 45" fill="none" xmlns="http://www.w3.org/2000/svg">
<path d="M12.4852 5.83968C14.4335 5.32829 16.5338 5.41979 18.4318 6.09277C20.2517 6.73968 21.8797 7.91941 23.0574 9.45242C24.2495 10.9889 24.986 12.8775 25.1346 14.8183C25.1849 15.3737 25.186 15.9343 25.1363 16.4903C24.971 18.5862 24.1246 20.6196 22.7631 22.2186C21.1542 23.9995 19.5811 25.814 17.9895 27.61C17.7594 26.9358 17.6236 26.2298 17.5808 25.5186C18.892 24.0603 20.1835 22.5847 21.501 21.1322C22.5185 19.938 23.1736 18.4547 23.4262 16.9084C23.4343 16.8974 23.4493 16.8748 23.4568 16.8632C23.4412 16.7196 23.4522 16.5766 23.4725 16.4341C23.5308 15.9962 23.4898 15.5538 23.51 15.1142C23.5054 15.0627 23.5025 15.0117 23.4956 14.9607L23.4927 14.9405C23.3875 14.0926 23.2123 13.2488 22.8828 12.4576C22.137 10.6072 20.7119 9.04586 18.9428 8.13022C17.5692 7.41092 15.9932 7.08891 14.4485 7.2001C12.5303 7.32694 10.6681 8.14296 9.26908 9.464C8.03478 10.6136 7.15834 12.1432 6.79123 13.7914C6.43858 15.3609 6.5409 17.0306 7.09243 18.5416C7.74051 20.3468 9.02742 21.9117 10.6676 22.9009C11.7174 23.5408 12.9095 23.9439 14.1317 24.0754C14.0958 24.6325 14.086 25.1908 14.13 25.748C12.6101 25.6154 11.1225 25.126 9.81772 24.3337C8.07236 23.2825 6.65595 21.6899 5.8194 19.8291C5.0609 18.164 4.77994 16.2899 4.99095 14.4742C5.23897 12.252 6.25936 10.1271 7.8307 8.54026C9.10026 7.24007 10.7283 6.29605 12.4852 5.83968Z" fill="#2B5CA8"/>
<path d="M6.66694 37.774C9.82524 34.2354 12.9743 30.6887 16.1332 27.1506C16.2823 27.79 16.4864 28.4161 16.7477 29.0184C14.1693 31.9356 11.596 34.858 9.01876 37.7763C14.4046 37.7827 19.7904 37.774 25.1768 37.781C25.1721 38.3352 25.1756 38.89 25.1745 39.4449C19.0047 39.4425 12.8355 39.4437 6.66637 39.4443C6.66521 38.8871 6.66405 38.3306 6.66694 37.774Z" fill="#2B5CA8"/>
<path d="M35.9015 5.57073C38.1163 5.32864 40.4086 5.83887 42.3008 7.02092C44.1525 8.16069 45.6204 9.91493 46.4118 11.9437C46.7761 12.8674 46.9986 13.8462 47.0813 14.836C47.1189 15.3885 47.1195 15.9433 47.0802 16.4958C46.9206 18.4476 46.1806 20.3466 44.9729 21.8871C44.6347 22.336 44.2271 22.7252 43.8623 23.1514C42.5517 24.6369 41.2399 26.1219 39.9305 27.6091C39.7039 26.9362 39.5669 26.2331 39.52 25.5248C40.6936 24.2095 41.8632 22.8902 43.0391 21.5773C44.2849 20.3037 45.1163 18.63 45.3654 16.8636C45.4458 16.2873 45.473 15.7018 45.4308 15.1209C45.3198 13.1472 44.4757 11.2296 43.1102 9.80489C41.6602 8.27246 39.6212 7.31223 37.5145 7.19582C35.3662 7.04698 33.1745 7.77439 31.5356 9.17304C29.7861 10.6342 28.679 12.8315 28.5449 15.1093C28.0038 14.9738 27.4523 14.884 26.8973 14.8273C27.0904 12.2976 28.2853 9.86628 30.1619 8.16416C31.7338 6.71629 33.7769 5.7908 35.9015 5.57073Z" fill="#2B5CA8"/>
<path d="M26.9019 16.5056C27.4829 16.5664 28.0605 16.6823 28.6149 16.8687C28.8779 18.7452 29.8029 20.5168 31.1823 21.8118C32.0778 22.6713 33.174 23.3002 34.3406 23.712C34.3637 23.7172 34.41 23.727 34.4337 23.7323C34.9794 23.8985 35.5379 24.0241 36.1068 24.0797C36.1548 24.6357 36.1519 25.194 36.1114 25.75L36.1045 25.7494C35.5529 25.7025 35.006 25.6075 34.4695 25.472C32.4444 24.9554 30.5921 23.7873 29.2491 22.1842C27.9032 20.5962 27.0707 18.5819 26.9019 16.5056Z" fill="#2B5CA8"/>
<path d="M28.6016 37.7907C31.753 34.2358 34.9228 30.6984 38.0742 27.1436C38.2199 27.7841 38.4239 28.4107 38.6858 29.0136C36.1155 31.9395 33.5324 34.8544 30.9598 37.7785C36.3427 37.7779 41.7262 37.7791 47.1097 37.7779C47.1091 38.3328 47.1097 38.8876 47.1091 39.443C40.9405 39.4418 34.7725 39.4424 28.6045 39.4424C28.6033 38.8916 28.608 38.3409 28.6016 37.7907Z" fill="#2B5CA8"/>
<path d="M53.4444 36.0352C54.2064 36.0363 54.9684 36.0363 55.7316 36.0352C55.728 36.1873 55.7268 36.3407 55.728 36.4953C55.4301 36.4929 55.1346 36.4941 54.839 36.4941C54.8402 37.4667 54.8379 38.4393 54.8414 39.4119C54.6729 39.4107 54.5067 39.4119 54.3417 39.4131C54.3417 38.4393 54.3417 37.4667 54.3429 36.4941C54.0438 36.4929 53.7459 36.4929 53.4492 36.4953C53.4468 36.3407 53.4444 36.1873 53.4444 36.0352Z" fill="#2B5CA8"/>
<path d="M57.2282 36.0614C57.6769 35.9211 58.2134 36.0471 58.5041 36.4336C58.9065 36.9425 58.7225 37.6404 58.757 38.2397C58.7961 38.8128 58.3463 39.3633 57.7766 39.4275C57.1867 39.5345 56.5387 39.1041 56.4663 38.4977C56.414 38.0161 56.4188 37.5286 56.4544 37.0471C56.4651 36.5929 56.8128 36.2053 57.2282 36.0614ZM57.3018 36.5929C56.8674 36.8117 56.9398 37.3669 56.9185 37.7736C56.9458 38.122 56.8888 38.5726 57.2188 38.8021C57.5451 39.0684 58.0935 38.8912 58.2062 38.4858C58.2953 38.009 58.2834 37.5132 58.224 37.0352C58.1611 36.6262 57.6591 36.3872 57.3018 36.5929Z" fill="#2B5CA8"/>
<path d="M61.7468 36.0339C61.945 36.0339 62.142 36.0339 62.3438 36.0363C61.9949 36.4691 61.6637 36.9162 61.3041 37.3418C61.6507 38.0505 62.0732 38.7199 62.4518 39.4119C62.2489 39.4095 62.0507 39.4107 61.8513 39.4095C61.564 38.8578 61.2626 38.3156 60.9718 37.7687C60.7819 37.9684 60.5943 38.1718 60.4056 38.3727C60.4009 38.7175 60.4009 39.0623 60.4032 39.4083C60.2335 39.4083 60.0662 39.4107 59.8988 39.4131C59.9036 38.2871 59.9024 37.1611 59.8988 36.0351C60.0662 36.0339 60.2347 36.0339 60.4044 36.0351C60.4009 36.6165 60.4009 37.198 60.4044 37.7794C60.8471 37.1944 61.3017 36.6177 61.7468 36.0339Z" fill="#2B5CA8"/>
<path d="M62.9396 36.0363C63.1165 36.0351 63.2957 36.0351 63.4761 36.0363C63.6957 36.5381 63.9307 37.0327 64.1621 37.5297C64.3853 37.0279 64.6203 36.5333 64.8493 36.0339C65.0262 36.0339 65.2019 36.0351 65.3823 36.0375C65.1045 36.5844 64.8398 37.1385 64.5609 37.6843C64.2476 38.2062 64.4541 38.84 64.3948 39.4131C64.2761 39.4119 64.0375 39.4095 63.9188 39.4083C63.9081 38.9458 63.9449 38.4809 63.9046 38.0208C63.6162 37.3442 63.2541 36.6998 62.9396 36.0363Z" fill="#2B5CA8"/>
<path d="M66.8314 36.0412C67.4558 35.8605 68.1857 36.2909 68.27 36.9472C68.3068 37.506 68.3329 38.0779 68.2439 38.6332C68.0385 39.4191 66.9478 39.7057 66.3674 39.154C65.9816 38.8556 65.9615 38.3348 65.9662 37.8913C65.9709 37.5144 65.9425 37.1279 66.0445 36.7617C66.1632 36.4098 66.4766 36.1375 66.8314 36.0412ZM66.8148 36.606C66.3994 36.8295 66.4801 37.3693 66.4647 37.7641C66.4825 38.1089 66.4172 38.5452 66.7282 38.7854C67.0605 39.0743 67.6397 38.9019 67.7501 38.4703C67.8308 38.0054 67.8154 37.5251 67.7679 37.0578C67.7145 36.6285 67.1804 36.3753 66.8148 36.606Z" fill="#2B5CA8"/>
<path d="M55.9006 5.97273C57.9431 5.33277 60.1897 5.35941 62.2137 6.05728C64.51 6.83856 66.4982 8.48161 67.7042 10.5891C68.8726 12.6005 69.3044 15.0254 68.9171 17.3189C68.5708 19.4577 67.5076 21.4708 65.9415 22.9644C63.8782 24.977 60.9216 26.0229 58.0541 25.7519C58.179 24.0735 57.9096 22.3592 57.2147 20.8227C56.5088 19.2162 55.3711 17.8059 53.961 16.7652C52.4735 15.666 50.6784 14.9843 48.836 14.832C48.9955 12.853 49.7453 10.925 50.9808 9.37061C52.2319 7.77852 53.9685 6.57562 55.9006 5.97273Z" fill="#2B5CA8"/>
<path d="M48.8401 16.5068C51.0664 16.7205 53.1771 17.8852 54.5657 19.6383C55.8798 21.2634 56.5423 23.3889 56.4024 25.4744C54.2796 24.9306 52.3504 23.6703 50.993 21.9474C49.7598 20.3993 49.0025 18.4806 48.8401 16.5068Z" fill="#2B5CA8"/>
<path d="M25.1346 14.8182C25.7219 14.7991 26.3116 14.7672 26.8973 14.8274C27.4523 14.8842 28.0038 14.974 28.5449 15.1095C30.3758 15.5763 32.0703 16.5736 33.363 17.9543C34.9384 19.6037 35.9264 21.8039 36.1068 24.0799C35.5379 24.0243 34.9794 23.8987 34.4337 23.7325C34.4158 23.6977 34.3978 23.6641 34.3799 23.6305C34.0614 21.5045 32.8855 19.5301 31.1817 18.2253C30.4117 17.6311 29.541 17.1666 28.6149 16.8689C28.0604 16.6825 27.4829 16.5666 26.9019 16.5058C26.3151 16.4462 25.7242 16.4612 25.1363 16.4902C25.186 15.9342 25.1848 15.3736 25.1346 14.8182Z" fill="#999C9F"/>
<path d="M23.4956 14.9607C23.5025 15.0117 23.5054 15.0626 23.51 15.1142C23.4898 15.5537 23.5308 15.9962 23.4724 16.4341C23.4522 16.5765 23.4412 16.7196 23.4568 16.8632C23.4493 16.8748 23.4343 16.8974 23.4262 16.9084C23.4274 16.8962 23.4291 16.8719 23.4302 16.8597C21.6762 17.4256 20.1239 18.5821 19.0706 20.096C17.9779 21.6632 17.4362 23.6115 17.5808 25.5186C17.6236 26.2298 17.7594 26.9358 17.9895 27.6099C18.6289 29.5298 19.9748 31.1989 21.7149 32.2263C23.665 33.3939 26.0954 33.7119 28.2813 33.1003C30.048 32.6155 31.6385 31.5302 32.7456 30.0702C33.7613 28.7537 34.3522 27.1286 34.4695 25.4723C35.006 25.6078 35.5529 25.7028 36.1045 25.7497C35.9391 28.0813 34.9078 30.3366 33.274 32.0022C31.7622 33.5734 29.7278 34.6315 27.5725 34.9536C25.2323 35.3265 22.7648 34.8424 20.746 33.5966C18.9914 32.5246 17.5681 30.9082 16.7477 29.0184C16.4864 28.4161 16.2823 27.79 16.1331 27.1507C15.5834 24.7286 15.9742 22.1091 17.1969 19.9501C18.5225 17.5895 20.8252 15.7912 23.4511 15.1281C23.4655 15.0719 23.48 15.0163 23.4956 14.9607Z" fill="#999C9F"/>
<path d="M47.0814 14.8361C47.6635 14.7758 48.2526 14.7828 48.836 14.832C50.6784 14.9843 52.4735 15.666 53.961 16.7652C55.3711 17.8059 56.5088 19.2162 57.2147 20.8227C57.9096 22.3592 58.179 24.0735 58.0542 25.7519C57.9339 27.205 57.5044 28.6326 56.7875 29.9021C56.0249 31.2596 54.9467 32.4393 53.6598 33.3138C52.2561 34.2776 50.6044 34.8752 48.91 35.0276C46.7894 35.2395 44.6081 34.7507 42.7807 33.6527C40.9798 32.5818 39.5229 30.9376 38.6858 29.0137C38.4239 28.4108 38.2199 27.7841 38.0742 27.1436C37.5764 24.926 37.8556 22.5416 38.8517 20.4984C40.123 17.8633 42.5864 15.8183 45.4308 15.121C45.473 15.7019 45.4458 16.2874 45.3655 16.8637C43.5166 17.4596 41.8875 18.7111 40.8417 20.3507C39.8554 21.8716 39.3877 23.7167 39.5201 25.5249C39.5669 26.2332 39.7039 26.9362 39.9305 27.6092C40.5549 29.4805 41.8476 31.1212 43.5299 32.1498C45.3707 33.2971 47.6635 33.6776 49.7783 33.2108C51.3722 32.8638 52.8562 32.038 53.9963 30.8704C55.4104 29.4388 56.2868 27.4859 56.4025 25.4745C56.5424 23.3889 55.8798 21.2635 54.5658 19.6384C53.1771 17.8853 51.0664 16.7206 48.84 16.5069C48.2555 16.4374 47.6658 16.4571 47.0802 16.4959C47.1195 15.9434 47.1189 15.3886 47.0814 14.8361Z" fill="#999C9F"/>
</svg>
